<svg width="17" height="17" viewBox="0 0 17 17" fill="none" xmlns="http://www.w3.org/2000/svg">
<path d="M7.0015 1.08534C6.94523 1.09731 6.85145 1.1392 6.78893 1.17511C6.71703 1.21999 5.99179 2.05486 4.7664 3.50615L2.85641 5.77137L2.33749 5.78932C1.77168 5.80728 1.61225 5.84618 1.35279 6.01674C1.18399 6.12746 0.968295 6.41472 0.908901 6.60324C0.811994 6.92043 0.821372 6.98028 1.64351 10.9481C2.0749 13.0218 2.4469 14.7933 2.47503 14.8831C2.55943 15.1584 2.6751 15.3379 2.92205 15.5743C3.17526 15.8137 3.40658 15.9424 3.73794 16.0232C3.99427 16.086 13.7349 16.086 13.9913 16.0232C14.6133 15.8706 15.1229 15.3888 15.2698 14.8083C15.2917 14.7245 15.6605 12.968 16.0888 10.9033C16.6421 8.24006 16.8672 7.088 16.8672 6.94437C16.8672 6.45362 16.5327 6.00477 16.0419 5.84618C15.8825 5.79531 15.7731 5.78633 15.276 5.78633H14.6946L12.8815 3.64081C11.8843 2.46182 11.0059 1.43245 10.9309 1.35166C10.7308 1.1392 10.5933 1.07935 10.3213 1.09431C10.1369 1.10329 10.0775 1.11825 9.96496 1.19306C9.69299 1.37859 9.60234 1.72869 9.75239 2.03092C9.79615 2.12069 10.4401 2.9017 11.3623 3.97595L12.8972 5.77137L8.78332 5.78034C6.51696 5.78334 4.66011 5.78034 4.65074 5.77436C4.64448 5.76538 5.31658 4.96343 6.14497 3.98792C6.97336 3.01241 7.6986 2.1566 7.75174 2.08478C7.83927 1.96509 7.84865 1.92918 7.84865 1.73767C7.84552 1.4504 7.72673 1.24992 7.47978 1.13022C7.37037 1.07636 7.13279 1.05242 7.0015 1.08534ZM6.49821 9.14675C6.56073 9.19163 6.65138 9.27841 6.69827 9.33826L6.7858 9.44598V10.993V12.5371L6.69827 12.6658C6.41381 13.0787 5.79798 13.0428 5.56978 12.6029L5.48851 12.4473V10.996C5.48851 9.64348 5.49476 9.53276 5.5479 9.42204C5.66982 9.17069 5.88864 9.04501 6.17936 9.05698C6.34816 9.06296 6.40755 9.08091 6.49821 9.14675ZM9.14281 9.10485C9.29599 9.18265 9.44604 9.34723 9.4898 9.48787C9.51481 9.56568 9.52106 10.0594 9.51481 11.0678L9.50543 12.5341L9.42103 12.6508C9.31474 12.8004 9.11781 12.9261 8.96151 12.953C8.70517 12.9949 8.39257 12.8333 8.27378 12.6029C8.20814 12.4742 8.20814 12.4383 8.20814 10.996C8.20814 9.37117 8.20189 9.42204 8.40508 9.23352C8.46134 9.18265 8.54887 9.11981 8.59889 9.09588C8.73018 9.03004 8.99589 9.03603 9.14281 9.10485ZM11.8312 9.10485C11.9844 9.18265 12.1344 9.34723 12.1782 9.48787C12.2032 9.56568 12.2094 10.0654 12.2032 11.0708L12.1938 12.5371L12.1094 12.6628C11.8437 13.0458 11.2748 13.0458 11.0028 12.6628L10.9121 12.5341L10.9028 11.0529C10.8965 9.77514 10.8996 9.55371 10.9434 9.44897C10.9934 9.31731 11.1372 9.17368 11.2873 9.09887C11.4186 9.03004 11.6843 9.03603 11.8312 9.10485Z" fill="#262426"/>
</svg>
