<svg width="16" height="17" viewBox="0 0 16 17" fill="none" xmlns="http://www.w3.org/2000/svg">
<path fill-rule="evenodd" clip-rule="evenodd" d="M10.2188 0.738281C9.52839 0.738281 8.96875 1.29793 8.96875 1.98828V6.51953C8.96875 7.20989 9.52839 7.76953 10.2188 7.76953H14.75C15.4404 7.76953 16 7.20989 16 6.51953V1.98828C16 1.29793 15.4404 0.738281 14.75 0.738281H10.2188ZM10.2188 9.70703C9.52839 9.70703 8.96875 10.2667 8.96875 10.957V15.4883C8.96875 16.1786 9.52839 16.7383 10.2188 16.7383H14.75C15.4404 16.7383 16 16.1786 16 15.4883V10.957C16 10.2667 15.4404 9.70703 14.75 9.70703H10.2188ZM0 10.957C0 10.2667 0.559644 9.70703 1.25 9.70703H5.78125C6.47161 9.70703 7.03125 10.2667 7.03125 10.957V15.4883C7.03125 16.1786 6.47161 16.7383 5.78125 16.7383H1.25C0.559644 16.7383 0 16.1786 0 15.4883V10.957ZM1.25 0.738281C0.559644 0.738281 0 1.29793 0 1.98828V6.51953C0 7.20989 0.559644 7.76953 1.25 7.76953H5.78125C6.47161 7.76953 7.03125 7.20989 7.03125 6.51953V1.98828C7.03125 1.29793 6.47161 0.738281 5.78125 0.738281H1.25Z" fill="#262426"/>
</svg>
