<svg width="20" height="20" viewBox="0 0 20 20" fill="none" xmlns="http://www.w3.org/2000/svg">
<path d="M19.547 18.8995L18.8989 19.5476C18.5409 19.9056 17.9605 19.9057 17.6025 19.5477L10.1484 12.0936L2.69431 19.5477C2.33642 19.9056 1.75597 19.9056 1.39798 19.5476L0.749869 18.8995C0.391878 18.5415 0.391877 17.9611 0.74977 17.6032L8.20389 10.1491L0.749808 2.695C0.391828 2.33702 0.391847 1.75659 0.749837 1.3986L1.39795 0.750484C1.75594 0.392494 2.33637 0.392475 2.69435 0.750455L10.1484 8.20453L17.6025 0.750438C17.9605 0.392457 18.5409 0.392486 18.8989 0.750477L19.547 1.39859C19.905 1.75658 19.905 2.337 19.5471 2.69498L12.093 10.1491L19.5471 17.6032C19.9051 17.9612 19.905 18.5415 19.547 18.8995Z" fill="#0055FF"/>
</svg>
