<svg width="14" height="14" viewBox="0 0 14 14" fill="none" xmlns="http://www.w3.org/2000/svg">
<path opacity="0.6" d="M4.60645 0.0226574C3.89395 0.128907 3.2627 0.585157 2.92207 1.24453C2.74082 1.58828 2.67207 1.88828 2.67207 2.32266V2.67578H2.31895C1.88457 2.67578 1.58457 2.74453 1.24082 2.92578C0.659572 3.22578 0.237697 3.75078 0.0564473 4.39453C0.00332226 4.58516 0.00019726 4.80391 0.00019726 8.00391C0.00019726 11.8227 -0.0154277 11.5633 0.231447 12.0664C0.525197 12.6633 1.0377 13.0883 1.6877 13.2758L1.9377 13.3477H5.35957H8.78145L9.0752 13.2445C9.4377 13.1195 9.68145 12.9758 9.94082 12.7289C10.2814 12.4133 10.5689 11.9039 10.6252 11.5164L10.6471 11.3727L11.0408 11.3539C11.3033 11.3414 11.5158 11.3133 11.6658 11.2695C12.5811 11.0085 13.3439 10.3058 13.3439 9.41016V5.67578C13.3439 5.67578 13.3439 3.39977 13.3439 1.94141C13.3439 0.988564 12.4992 0.0039072 11.4377 0.0039072C10.2534 0.0039072 8.10957 0.000782013 8.10957 0.000782013C6.27832 -0.00234299 4.70332 0.0070324 4.60645 0.0226574ZM11.3752 1.42891C11.6064 1.51641 11.8314 1.74141 11.9189 1.97266C11.9846 2.14453 11.9846 2.17578 11.9846 5.67578C11.9846 9.17578 11.9846 9.20703 11.9189 9.37891C11.8314 9.61016 11.6064 9.83516 11.3752 9.92266C11.2502 9.96953 11.1283 9.98828 10.9377 9.98828H10.6721V7.31016C10.6721 4.94453 10.6658 4.61016 10.6221 4.42891C10.4127 3.59141 9.75645 2.93516 8.91895 2.72578C8.74082 2.68203 8.42832 2.67578 6.3627 2.67578H4.00957L4.02207 2.38516C4.04082 2.01328 4.11895 1.82266 4.34395 1.61953C4.6377 1.35078 4.39395 1.36641 8.00645 1.36641C11.1721 1.36328 11.2033 1.36328 11.3752 1.42891Z" fill="#262426"/>
</svg>
