<svg width="21" height="21" viewBox="0 0 21 21" fill="none" xmlns="http://www.w3.org/2000/svg">
<path d="M16.7578 5.14844C16.7578 4.5319 16.4979 3.92753 16.0156 3.47266C15.5314 3.0161 14.8628 2.75 14.1543 2.75C13.5342 2.75002 12.9445 2.9536 12.4824 3.31055L12.293 3.47266L4.01953 11.2754C3.19942 12.0489 2.7501 13.0853 2.75 14.1523C2.75 15.2195 3.19937 16.2558 4.01953 17.0293L4.17676 17.1709C4.98224 17.8587 6.04206 18.2499 7.1543 18.25C8.34079 18.25 9.46791 17.8047 10.29 17.0293L18.5635 9.22656C18.9652 8.84767 19.5986 8.86592 19.9775 9.26758C20.3564 9.66932 20.3382 10.3027 19.9365 10.6816L11.6621 18.4844C10.4571 19.6208 8.83456 20.25 7.1543 20.25C5.57916 20.2499 4.05513 19.6969 2.87793 18.6914L2.64648 18.4844C1.43966 17.3461 0.75 15.7889 0.75 14.1523C0.7501 12.516 1.43987 10.9596 2.64648 9.82129L10.9209 2.01758L11.0869 1.86914C11.9337 1.14589 13.027 0.750024 14.1543 0.75C15.3568 0.75 16.5215 1.19973 17.3887 2.01758C18.2577 2.83728 18.7578 3.96248 18.7578 5.14844C18.7577 6.3342 18.2575 7.45869 17.3887 8.27832L17.3877 8.2793L9.10547 16.082L9.10449 16.0811C8.57522 16.5801 7.87003 16.8516 7.14551 16.8516C6.42084 16.8515 5.71482 16.5803 5.18555 16.0811V16.082C4.65422 15.581 4.34375 14.8877 4.34375 14.1523C4.34385 13.4171 4.65443 12.7246 5.18555 12.2236H5.18652L12.8291 5.02344L12.9072 4.95703C13.3094 4.64832 13.8881 4.68846 14.2432 5.06543C14.6217 5.46732 14.6028 6.0998 14.2012 6.47852L6.55762 13.6787C6.41336 13.8149 6.34385 13.9867 6.34375 14.1523C6.34375 14.2768 6.38333 14.4049 6.46387 14.5186L6.55762 14.627L6.67871 14.7197C6.81052 14.8026 6.97222 14.8515 7.14551 14.8516C7.3763 14.8516 7.58701 14.765 7.7334 14.627V14.626L16.0156 6.82324L16.1865 6.64648C16.5592 6.21777 16.7578 5.68784 16.7578 5.14844Z" fill="#0055FF"/>
</svg>
