<svg width="97" height="15" viewBox="0 0 97 15" fill="none" xmlns="http://www.w3.org/2000/svg">
<path d="M6.21753 6.93958H3.17647L2.75277 8.28364H0L3.27869 0.151543H6.21753L9.49621 8.28364H6.67007L6.21753 6.93958ZM5.6523 5.18446L4.71404 2.2598L3.75917 5.18446H5.6523Z" fill="black"/>
<path d="M8.27587 0.151543H11.0907L13.0581 6.00656L14.9914 0.151543H17.7267L14.4882 8.28364H11.5712L8.27587 0.151543Z" fill="black"/>
<path d="M18.6543 8.28375V0.151655H23.1761C23.82 0.131265 24.4639 0.198149 25.0867 0.351477C25.5201 0.481969 25.894 0.743768 26.1499 1.09528C26.4304 1.4835 26.5728 1.94429 26.5562 2.41243C26.5658 2.8194 26.4583 3.22148 26.246 3.57707C26.0381 3.90575 25.7437 4.17978 25.3916 4.37307C25.0981 4.52722 24.7792 4.63569 24.4481 4.69442C24.6962 4.76292 24.9321 4.86405 25.1488 4.99536C25.3078 5.12259 25.4519 5.26613 25.5786 5.4219C25.7219 5.58665 25.8485 5.76281 25.9569 5.94876L27.2629 8.30496H24.1764L22.735 5.80685C22.6214 5.5687 22.4563 5.35503 22.2492 5.17968C22.0553 5.05327 21.8238 4.98721 21.5879 4.98965H21.3503V8.28375H18.6543ZM21.3616 3.44577H22.4921C22.7227 3.42701 22.9525 3.39031 23.1761 3.33485C23.3526 3.3063 23.5099 3.21578 23.6173 3.08202C23.7283 2.94827 23.7885 2.78271 23.7868 2.61307C23.7938 2.4997 23.7728 2.38551 23.7256 2.2803C23.6793 2.17591 23.6068 2.08212 23.5151 2.00709C23.2163 1.835 22.8643 1.76079 22.5148 1.79586H21.3276L21.3616 3.44577Z" fill="black"/>
<path d="M27.54 4.2254C27.505 3.66102 27.5915 3.09581 27.7959 2.56406C27.9995 2.03149 28.3166 1.54215 28.7272 1.12621C29.1693 0.740442 29.6908 0.442747 30.2604 0.250271C30.83 0.0586112 31.4354 -0.0237588 32.04 0.00886426C32.6489 -0.0278366 33.2604 0.049647 33.837 0.237229C34.4136 0.424812 34.9447 0.718415 35.3973 1.1001C35.8061 1.50871 36.1206 1.9899 36.3233 2.51594C36.5251 3.04117 36.6107 3.59984 36.5732 4.15688C36.6072 4.9643 36.4308 5.76765 36.0586 6.49677C35.724 7.09622 35.2068 7.58964 34.5717 7.91506C33.8256 8.28125 32.9905 8.46231 32.1474 8.44192C31.3079 8.47046 30.4727 8.32121 29.7048 8.00477C29.0452 7.69974 28.5001 7.21692 28.1393 6.61829C27.7103 5.8859 27.5024 5.05891 27.54 4.2254ZM30.2307 4.2254C30.1713 4.85094 30.3443 5.47649 30.7226 5.99682C30.8964 6.16483 31.1043 6.29777 31.3341 6.38911C31.5647 6.48045 31.812 6.52776 32.0618 6.52776C32.3125 6.52776 32.5598 6.48045 32.7904 6.38911C33.0202 6.29777 33.2281 6.16483 33.4019 5.99682C33.7802 5.43163 33.9471 4.76693 33.8763 4.10468C33.9305 3.50931 33.7557 2.91558 33.3853 2.42868C33.2159 2.2517 33.0071 2.11305 32.7738 2.02171C32.5397 1.93036 32.2872 1.88959 32.0339 1.90101C31.7875 1.89122 31.542 1.93362 31.3157 2.02496C31.0895 2.11631 30.8885 2.25415 30.7278 2.42868C30.3408 2.95473 30.1652 3.59088 30.2307 4.2254Z" fill="black"/>
<path d="M38.06 8.28375V0.151655H42.5819C43.2266 0.131265 43.8696 0.198149 44.4925 0.351477C44.9249 0.4836 45.2988 0.744584 45.5557 1.09528C45.8352 1.4835 45.9759 1.9451 45.9567 2.41243C45.968 2.8194 45.8632 3.22148 45.6518 3.57707C45.436 3.90901 45.132 4.18305 44.7703 4.37307C44.4759 4.5264 44.157 4.63488 43.8259 4.69442C44.0732 4.76374 44.3099 4.86487 44.5266 4.99536C44.6856 5.12259 44.8297 5.26613 44.9564 5.4219C45.0996 5.58665 45.2263 5.76281 45.3355 5.94876L46.6407 8.30496H43.5944L42.1529 5.80685C42.0385 5.5687 41.8734 5.35503 41.6663 5.17968C41.4724 5.05327 41.2418 4.98721 41.005 4.98965H40.7674V8.28375H38.06ZM40.7674 3.44577H41.8987C42.139 3.42864 42.3775 3.39194 42.6107 3.33485C42.7863 3.3063 42.9444 3.21578 43.0519 3.08202C43.1628 2.94827 43.2231 2.78271 43.2214 2.61307C43.2292 2.4997 43.2109 2.38715 43.1655 2.28194C43.1209 2.17673 43.051 2.08294 42.961 2.00709C42.6596 1.835 42.3058 1.76079 41.9546 1.79586H40.7674V3.44577Z" fill="black"/>
<path d="M53.3509 6.93958H50.3098L49.8852 8.28364H47.1159L50.3946 0.151543H53.3334L56.6068 8.28364H53.7807L53.3509 6.93958ZM52.7857 5.18446L51.8247 2.2598L50.8751 5.18446H52.7857Z" fill="black"/>
<path d="M59.3523 5.67091L60.4426 5.58691C60.4749 5.9425 60.599 6.28667 60.8051 6.58762C61.027 6.87144 61.3311 7.09083 61.6814 7.22051C62.106 7.38281 62.5611 7.46355 63.0206 7.45784C63.4173 7.46437 63.8121 7.40401 64.1852 7.27841C64.4857 7.17483 64.7469 6.99133 64.9373 6.75155C65.0981 6.55092 65.1855 6.30624 65.1855 6.05586C65.1916 5.81364 65.1077 5.57712 64.9478 5.38628C64.7355 5.16607 64.4647 5.00051 64.1624 4.90672C63.6514 4.75013 63.1333 4.61882 62.6083 4.51117C62.023 4.39536 61.4542 4.21837 60.9117 3.9843C60.5352 3.81303 60.2128 3.55042 59.9796 3.225C59.7751 2.92243 59.6694 2.57091 59.6738 2.21369C59.6738 1.80345 59.8057 1.40301 60.053 1.06454C60.3255 0.707323 60.7108 0.438179 61.1555 0.295453C61.6595 0.103793 62.1994 0.00755543 62.7437 0.0108177C63.3238 0.00347755 63.8995 0.102166 64.4394 0.300351C64.9007 0.474069 65.2947 0.773377 65.5698 1.15914C65.8389 1.54002 65.9883 1.9837 65.9997 2.44042L64.8692 2.51953C64.8579 2.29769 64.7993 2.07994 64.6962 1.88012C64.5931 1.6803 64.4481 1.50169 64.2699 1.35407C63.827 1.06372 63.2897 0.924263 62.7498 0.959332C62.2117 0.917738 61.6753 1.04415 61.2227 1.31737C61.0742 1.41524 60.9528 1.5441 60.8698 1.69498C60.7859 1.84505 60.7422 2.01224 60.7422 2.18188C60.7388 2.31727 60.7667 2.45183 60.8252 2.5758C60.8838 2.69977 60.972 2.80988 61.0821 2.89877C61.6132 3.20135 62.2056 3.39872 62.8232 3.47865C63.481 3.60098 64.1258 3.77796 64.7504 4.00551C65.2021 4.17841 65.5934 4.46468 65.8809 4.8325C66.1246 5.17423 66.2504 5.57712 66.2425 5.98736C66.2434 6.42369 66.1054 6.85105 65.8468 7.21479C65.569 7.60627 65.1767 7.91538 64.7163 8.1054C64.1825 8.32479 63.6042 8.43245 63.0206 8.42185C62.3427 8.44224 61.6674 8.33296 61.0367 8.10052C60.5238 7.90396 60.0862 7.56794 59.7821 7.13568C59.4755 6.70017 59.3086 6.19207 59.3008 5.67091H59.3523Z" fill="black"/>
<path d="M69.0773 8.2844V1.11631H66.2057V0.152298H73.1134V1.11631H70.2305V8.2844H69.0773Z" fill="black"/>
<path d="M72.8103 4.32602C72.7422 3.17117 73.1598 2.03588 73.9748 1.16403C74.361 0.783159 74.8284 0.483025 75.3482 0.284024C75.868 0.0850237 76.4271 -0.00795067 76.9879 0.00999199C77.7515 -0.00305722 78.5037 0.179629 79.1641 0.536851C79.8045 0.89081 80.3182 1.4136 80.6397 2.03914C80.9926 2.72015 81.1708 3.46967 81.1595 4.22571C81.1734 4.99316 80.9917 5.75164 80.6283 6.43999C80.2946 7.06472 79.7643 7.57935 79.1073 7.91537C78.4635 8.25873 77.7358 8.43978 76.9932 8.44223C76.2174 8.45446 75.4539 8.2628 74.789 7.88927C74.1522 7.52797 73.642 7.00274 73.3196 6.37638C72.9885 5.74431 72.8182 5.05025 72.8217 4.34723L72.8103 4.32602ZM74.0089 4.34723C73.9582 5.19216 74.2623 6.0216 74.8572 6.66101C75.1333 6.93015 75.4644 7.14465 75.8313 7.29064C76.1991 7.43662 76.5939 7.51247 76.9932 7.51247C77.3933 7.51247 77.7882 7.43662 78.1551 7.29064C78.5229 7.14465 78.8549 6.93015 79.1301 6.66101C79.7294 5.97756 80.0264 5.10653 79.9609 4.22571C79.9757 3.63034 79.8525 3.03904 79.5992 2.49179C79.3808 2.01876 79.0147 1.6183 78.5482 1.34346C78.0817 1.07268 77.5427 0.932407 76.9932 0.937301C76.6035 0.930776 76.2165 0.996838 75.854 1.13141C75.4923 1.26679 75.163 1.46743 74.8851 1.7227C74.2893 2.2463 73.9941 3.12468 73.9976 4.35783L74.0089 4.34723Z" fill="black"/>
<path d="M81.992 8.28439V0.15229H85.8587C86.4597 0.127823 87.0608 0.202853 87.6338 0.373308C88.0418 0.522559 88.3843 0.795776 88.6062 1.14811C88.849 1.51593 88.9792 1.93921 88.9792 2.37147C88.9923 2.9122 88.7774 3.43661 88.3799 3.83053C87.8697 4.27258 87.2145 4.53845 86.52 4.58494C86.7707 4.69015 87.0048 4.82636 87.2154 4.99029C87.5823 5.31244 87.9047 5.67537 88.1764 6.07093L89.6912 8.28439H88.2384L87.1079 6.59289C86.7742 6.10762 86.492 5.73328 86.2771 5.47555C86.1181 5.27492 85.9268 5.09713 85.7119 4.9487C85.5503 4.85083 85.3729 4.77742 85.1868 4.73257C84.9728 4.70402 84.757 4.69179 84.5412 4.69505H83.2072V8.28439H81.992ZM83.1505 3.74164H85.6272C86.0465 3.75795 86.4649 3.70657 86.8651 3.58831C87.1429 3.50268 87.3822 3.33223 87.5439 3.10386C87.6976 2.88611 87.7771 2.63164 87.7754 2.37147C87.7806 2.19204 87.7439 2.01425 87.667 1.84951C87.5893 1.68558 87.4731 1.53959 87.3281 1.42215C86.9184 1.14404 86.4152 1.01354 85.9093 1.05351H83.1505V3.74164Z" fill="black"/>
<path d="M90.2391 8.2844V0.152298H96.5475V1.11631H91.3923V3.60463H96.2199V4.55804H91.3923V7.32529H96.7449V8.2844H90.2391Z" fill="black"/>
<path d="M20 13.715V10.5848H20.5084V11.022C20.6124 10.8687 20.7566 10.7414 20.9269 10.6534C21.1077 10.5571 21.313 10.5098 21.5201 10.5163C21.7341 10.509 21.9455 10.5579 22.1308 10.6583C22.2889 10.7512 22.4068 10.8931 22.4645 11.0587C22.5737 10.8956 22.7266 10.7618 22.9074 10.6697C23.0891 10.5767 23.2927 10.5294 23.4988 10.5318C23.6386 10.5237 23.7793 10.5416 23.9112 10.5848C24.0431 10.6281 24.1645 10.6966 24.2676 10.7847C24.4537 11.0041 24.5437 11.2805 24.5218 11.5595V13.715H23.9566V11.7389C23.9653 11.5839 23.9461 11.429 23.8998 11.2805C23.8649 11.1973 23.8011 11.1272 23.719 11.0799C23.6185 11.0196 23.4997 10.9886 23.38 10.9902C23.2752 10.9902 23.1704 11.0098 23.0734 11.0481C22.9764 11.0864 22.8882 11.1419 22.8148 11.212C22.6436 11.4086 22.5606 11.6598 22.5833 11.9126V13.715H22.0181V11.6753C22.0329 11.4901 21.9831 11.3058 21.8765 11.1484C21.8224 11.0864 21.7534 11.0375 21.6739 11.0065C21.5952 10.9755 21.5096 10.9625 21.424 10.969C21.2615 10.9625 21.0999 11.0008 20.961 11.0799C20.8221 11.1582 20.7181 11.2797 20.6666 11.4224C20.5906 11.6361 20.5556 11.8612 20.5652 12.0863V13.715H20Z" fill="black"/>
<path d="M27.6694 12.6985L28.2346 12.767C28.1604 13.0622 27.9786 13.3248 27.7209 13.51C27.4422 13.6935 27.1059 13.7864 26.7652 13.7734C26.5503 13.7832 26.3354 13.7506 26.1353 13.678C25.9344 13.6046 25.7527 13.4945 25.6007 13.3517C25.2984 13.0255 25.1446 12.6022 25.1708 12.1716C25.1542 11.7214 25.3263 11.2826 25.6513 10.9491C25.7955 10.8055 25.9711 10.6922 26.1668 10.6179C26.3616 10.5429 26.5713 10.5086 26.7818 10.5168C26.9862 10.5095 27.1889 10.5429 27.3776 10.6163C27.5654 10.6889 27.7349 10.799 27.8729 10.9384C28.1673 11.2737 28.3115 11.7026 28.2748 12.1349C28.2748 12.1659 28.2748 12.2083 28.2748 12.2719H25.7763C25.7763 12.5614 25.8863 12.8412 26.0873 13.0622C26.1772 13.1503 26.2865 13.2196 26.407 13.2661C26.5276 13.3118 26.6577 13.3346 26.7879 13.3313C26.9862 13.346 27.1845 13.2963 27.3479 13.1886C27.5113 13.0614 27.6327 12.8934 27.6982 12.7034L27.6694 12.6985ZM25.8322 11.8503H27.7035C27.6973 11.6374 27.6222 11.4319 27.4885 11.2598C27.4056 11.1595 27.2981 11.0795 27.1749 11.0257C27.0526 10.9719 26.9181 10.945 26.7818 10.9491C26.6604 10.9458 26.5389 10.9654 26.4254 11.007C26.3118 11.0486 26.2078 11.1113 26.1205 11.1913C25.9396 11.3674 25.8348 11.6007 25.8269 11.8446L25.8322 11.8503Z" fill="black"/>
<path d="M28.957 13.7166V10.5864H29.4664V11.0815C29.552 10.9135 29.6751 10.7642 29.828 10.6443C29.9337 10.5742 30.0604 10.5375 30.1897 10.5391C30.3915 10.5456 30.5863 10.6035 30.7549 10.7071L30.5575 11.1973C30.4422 11.1288 30.3094 11.0888 30.1731 11.0815C30.0526 11.0831 29.9355 11.1198 29.8394 11.1867C29.7363 11.2585 29.662 11.3612 29.6297 11.477C29.5642 11.6768 29.5319 11.8848 29.5336 12.0936V13.7166H28.957Z" fill="black"/>
<path d="M33.5674 12.5594L34.1327 12.6279C34.0942 12.9509 33.9291 13.2494 33.6696 13.4655C33.4119 13.6727 33.0817 13.7812 32.7419 13.7714C32.5374 13.7787 32.333 13.7453 32.1426 13.6735C31.953 13.6017 31.7817 13.4933 31.6402 13.3554C31.3266 13.017 31.1685 12.5782 31.199 12.1329C31.1929 11.8287 31.2541 11.5277 31.3799 11.2472C31.4917 11.0017 31.6918 10.8011 31.9451 10.6779C32.1889 10.5531 32.464 10.4895 32.7419 10.4936C33.0607 10.4797 33.3735 10.5694 33.6294 10.7464C33.8706 10.9307 34.0296 11.1917 34.0759 11.4788L33.5106 11.5579C33.4739 11.376 33.3744 11.2096 33.2285 11.0841C33.0948 10.9772 32.9236 10.9209 32.748 10.9258C32.6161 10.9209 32.4859 10.9438 32.3653 10.9935C32.2448 11.0425 32.1382 11.1167 32.0526 11.2105C31.8447 11.4763 31.7477 11.8042 31.7809 12.1329C31.7503 12.4559 31.842 12.7788 32.0412 13.0439C32.1225 13.1369 32.2255 13.2103 32.3417 13.2592C32.4588 13.309 32.5855 13.3326 32.7139 13.3285C32.9218 13.335 33.1236 13.2674 33.2791 13.1393C33.4434 12.9803 33.543 12.7739 33.5622 12.5545L33.5674 12.5594Z" fill="black"/>
<path d="M34.8555 13.7145V9.39844H35.4207V10.9423C35.543 10.8061 35.6959 10.6968 35.8689 10.6226C36.0418 10.5492 36.2305 10.5125 36.421 10.5158C36.6464 10.5101 36.8692 10.5549 37.0718 10.6471C37.2413 10.7319 37.3785 10.8648 37.4615 11.0263C37.5523 11.2506 37.5925 11.4888 37.5803 11.7277V13.7145H37.015V11.7277C37.0351 11.5189 36.9687 11.3118 36.8281 11.1478C36.7599 11.0859 36.6778 11.0378 36.5887 11.0068C36.4996 10.9758 36.4035 10.9635 36.3083 10.9684C36.1406 10.9652 35.9746 11.0035 35.8278 11.0793C35.6845 11.1536 35.5736 11.2702 35.5116 11.4113C35.4399 11.5956 35.4067 11.7905 35.4155 11.9863V13.7145H34.8555Z" fill="black"/>
<path d="M39.2463 13.0977H38.6016V13.6987H39.2463V13.0977Z" fill="black"/>
<path d="M44.1957 13.7145V13.3197C44.0996 13.4682 43.9625 13.5897 43.7983 13.6712C43.634 13.7528 43.4488 13.7919 43.2627 13.783C43.0015 13.7846 42.7455 13.7128 42.528 13.5774C42.2991 13.4364 42.1183 13.2373 42.0082 13.0033C41.8754 12.7301 41.8116 12.4332 41.8213 12.1339C41.8169 11.8444 41.8745 11.5581 41.9907 11.2906C42.086 11.0508 42.2607 10.8461 42.4887 10.705C42.7106 10.5712 42.9701 10.5011 43.2348 10.5052C43.4305 10.497 43.6253 10.537 43.8 10.621C43.952 10.696 44.083 10.802 44.1844 10.9317V9.39844H44.7496V13.7145H44.1957ZM42.404 12.1339C42.3769 12.4528 42.473 12.77 42.6748 13.0294C42.7499 13.1207 42.8469 13.1949 42.9578 13.2463C43.0679 13.2977 43.1902 13.3246 43.3134 13.3246C43.4348 13.3263 43.5554 13.3018 43.6646 13.2537C43.7747 13.2047 43.8708 13.1338 43.9468 13.0457C44.1407 12.7953 44.2324 12.4887 44.2071 12.1812C44.2351 11.8476 44.1407 11.5149 43.9415 11.2376C43.8655 11.1438 43.7668 11.0687 43.6541 11.0174C43.5414 10.966 43.4165 10.9407 43.2907 10.9423C43.1692 10.9415 43.0487 10.966 42.9386 11.0157C42.8285 11.0647 42.7324 11.1372 42.6582 11.227C42.466 11.4936 42.376 11.8134 42.404 12.1339Z" fill="black"/>
<path d="M47.9006 12.6987L48.4658 12.7672C48.3863 13.0608 48.2055 13.3218 47.9513 13.5102C47.6726 13.6929 47.3371 13.7859 46.9964 13.7736C46.7815 13.7842 46.5666 13.7516 46.3656 13.679C46.1647 13.6064 45.983 13.4955 45.8319 13.352C45.5392 13.0225 45.3968 12.5984 45.4361 12.1718C45.4047 11.7265 45.561 11.2877 45.8712 10.9493C46.0153 10.8049 46.1909 10.6916 46.3857 10.6173C46.5814 10.5423 46.7911 10.5081 47.0016 10.517C47.2069 10.5097 47.4105 10.5431 47.6001 10.6157C47.7888 10.6891 47.9591 10.7984 48.0989 10.9387C48.3924 11.2739 48.5383 11.7021 48.506 12.1351V12.2721H46.0013C46.0013 12.5617 46.1114 12.8414 46.3123 13.0624C46.4032 13.1497 46.5124 13.219 46.633 13.2655C46.7535 13.3112 46.8828 13.334 47.013 13.3308C47.2043 13.3381 47.3913 13.2843 47.545 13.1782C47.711 13.0526 47.8333 12.8838 47.8953 12.6938L47.9006 12.6987ZM46.0354 11.8399H47.9006C47.8971 11.6303 47.8263 11.4264 47.697 11.2543C47.614 11.1564 47.5075 11.0773 47.386 11.0243C47.2637 10.9713 47.1309 10.9452 46.9964 10.9493C46.875 10.946 46.7544 10.9656 46.6417 11.0072C46.529 11.0488 46.4268 11.1116 46.3403 11.1915C46.1577 11.3668 46.0529 11.6001 46.0468 11.8448L46.0354 11.8399Z" fill="black"/>
<path d="M48.9775 12.7711L49.5428 12.6863C49.5594 12.8731 49.652 13.0468 49.8031 13.1716C49.9778 13.2898 50.1919 13.3477 50.4077 13.3347C50.6086 13.3485 50.8086 13.2963 50.9729 13.187C51.0323 13.1479 51.0812 13.0957 51.1144 13.0345C51.1476 12.9742 51.1651 12.9073 51.1651 12.8396C51.1659 12.7825 51.1502 12.7271 51.1205 12.6781C51.0908 12.6292 51.0471 12.5884 50.9956 12.5599C50.8156 12.4791 50.6261 12.4188 50.4304 12.3805C50.1333 12.3193 49.8424 12.2369 49.5594 12.1333C49.4082 12.0681 49.2807 11.9637 49.1924 11.8324C49.1112 11.7068 49.0684 11.5632 49.0675 11.4164C49.0666 11.2819 49.1016 11.1497 49.1697 11.0315C49.237 10.9132 49.334 10.8121 49.4519 10.7362C49.5594 10.6628 49.6799 10.609 49.8084 10.578C49.9682 10.5373 50.1342 10.5177 50.3002 10.5201C50.5352 10.5144 50.7693 10.5503 50.9895 10.6253C51.1633 10.6783 51.3171 10.777 51.4307 10.91C51.5355 11.056 51.6036 11.2215 51.629 11.3952L51.0629 11.4637C51.0445 11.3169 50.965 11.1832 50.8427 11.0894C50.6924 10.9915 50.5116 10.9434 50.3281 10.9524C50.1307 10.9344 49.9324 10.9768 49.7629 11.0739C49.7131 11.1041 49.6712 11.1457 49.6415 11.1938C49.6118 11.2427 49.5961 11.2974 49.5934 11.3528C49.5926 11.4197 49.617 11.4849 49.6616 11.5371C49.7201 11.6024 49.7961 11.6513 49.8817 11.6799C49.9385 11.6799 50.1028 11.7427 50.3797 11.8169C50.6654 11.8821 50.9467 11.9629 51.2219 12.0591C51.3721 12.117 51.5014 12.2141 51.5949 12.3389C51.6892 12.4726 51.7364 12.6317 51.7303 12.7915C51.7294 12.9685 51.6718 13.1406 51.5661 13.2874C51.4481 13.4497 51.2813 13.5769 51.0856 13.6511C50.8619 13.7384 50.6217 13.7808 50.3797 13.7775C50.0294 13.7963 49.6834 13.7058 49.396 13.519C49.1531 13.3306 48.9976 13.0631 48.9609 12.7711H48.9775Z" fill="black"/>
<path d="M52.4297 9.39844H52.9949V10.0256H52.4297V9.39844ZM52.4297 10.5843H52.9949V13.7145H52.4297V10.5843Z" fill="black"/>
<path d="M53.7538 13.9601L54.3199 14.0335C54.3243 14.1012 54.3435 14.1664 54.3767 14.2268C54.409 14.2863 54.4553 14.3393 54.5121 14.3818C54.679 14.4845 54.8764 14.5359 55.0773 14.5294C55.2905 14.54 55.501 14.4886 55.6819 14.3818C55.8269 14.2806 55.9291 14.1346 55.9702 13.9707C56.0112 13.7464 56.027 13.518 56.0156 13.2905C55.9046 13.4202 55.7631 13.5246 55.6024 13.5963C55.4416 13.6673 55.266 13.7032 55.0887 13.7016C54.8825 13.7105 54.6781 13.6722 54.492 13.5906C54.3059 13.5091 54.1434 13.3859 54.0203 13.2326C53.7643 12.9153 53.6315 12.5279 53.6411 12.1316C53.6376 11.8486 53.697 11.5688 53.8167 11.3095C53.9189 11.0721 54.0936 10.8682 54.3199 10.7239C54.5479 10.5861 54.8161 10.5159 55.0887 10.5241C55.2774 10.5208 55.4643 10.5591 55.6338 10.6366C55.8033 10.7133 55.9518 10.8266 56.0663 10.9661V10.5926H56.5922V13.2856C56.6184 13.6436 56.5625 14.0033 56.4279 14.3393C56.3205 14.5465 56.144 14.7145 55.9247 14.8189C55.6635 14.9469 55.3717 15.0081 55.0773 14.9983C54.734 15.0122 54.395 14.9241 54.1102 14.7455C53.9879 14.6574 53.8918 14.5424 53.8298 14.4103C53.7678 14.279 53.7416 14.1346 53.7538 13.9919V13.9601ZM54.2238 12.1153C54.1967 12.4333 54.2885 12.7498 54.4833 13.0116C54.5636 13.1005 54.6641 13.1714 54.7777 13.2204C54.8913 13.2693 55.0144 13.2946 55.1394 13.2946C55.2643 13.2946 55.3875 13.2693 55.5002 13.2204C55.6137 13.1714 55.7142 13.1005 55.7946 13.0116C55.9938 12.7571 56.0881 12.4448 56.0602 12.1316C56.0855 11.8233 55.9894 11.5183 55.7893 11.272C55.7107 11.1814 55.6102 11.108 55.4967 11.0575C55.3831 11.0077 55.259 10.9816 55.1332 10.9824C55.0118 10.9767 54.8904 10.9963 54.7777 11.0403C54.665 11.0844 54.5645 11.1504 54.4833 11.2353C54.2893 11.4799 54.195 11.7809 54.2177 12.0834L54.2238 12.1153Z" fill="black"/>
<path d="M57.4453 13.7156V10.5854H57.9538V11.0283C58.0665 10.8603 58.2246 10.7233 58.4124 10.6311C58.6002 10.539 58.8099 10.4941 59.0222 10.5006C59.2161 10.4974 59.4083 10.5308 59.5874 10.6009C59.7377 10.6548 59.8687 10.7461 59.9666 10.8644C60.0522 10.9826 60.1116 11.1147 60.1413 11.2542C60.1701 11.4287 60.1815 11.6057 60.1754 11.7819V13.7156H59.6101V11.8186C59.618 11.6547 59.5953 11.4899 59.542 11.3333C59.4948 11.2281 59.4136 11.1376 59.3105 11.0756C59.1899 11.0112 59.0536 10.9777 58.9147 10.9802C58.6841 10.9769 58.4605 11.0544 58.2875 11.1963C58.1853 11.3072 58.1084 11.4369 58.063 11.5764C58.0175 11.7158 58.0036 11.8634 58.0219 12.0086V13.7156H57.4453Z" fill="black"/>
<path d="M61.8353 13.0977H61.1914V13.6987H61.8353V13.0977Z" fill="black"/>
<path d="M64.6172 14.8963V10.5852H65.1317V10.9905C65.2401 10.8445 65.3807 10.723 65.5441 10.6325C65.7188 10.5485 65.9136 10.5085 66.1093 10.5167C66.3758 10.5101 66.6387 10.5803 66.8615 10.7165C67.0852 10.8616 67.2581 11.0655 67.3586 11.3021C67.5884 11.842 67.5884 12.443 67.3586 12.983C67.245 13.2227 67.0589 13.4266 66.8213 13.5677C66.6012 13.7015 66.3443 13.7733 66.0814 13.7741C65.9049 13.7757 65.7302 13.7374 65.5721 13.6632C65.4297 13.5938 65.3047 13.4968 65.2051 13.3785V14.8963H64.6172ZM65.1317 12.1609C65.1038 12.4773 65.1964 12.7921 65.3912 13.0515C65.4681 13.1412 65.5651 13.2138 65.6751 13.2643C65.7861 13.3141 65.9075 13.3402 66.0307 13.3402C66.153 13.3402 66.2744 13.3141 66.3854 13.2643C66.4955 13.2138 66.5933 13.1412 66.6693 13.0515C66.8633 12.7815 66.9506 12.4577 66.9174 12.1348C66.9428 11.8159 66.8484 11.4994 66.6518 11.2384C66.5785 11.1479 66.4841 11.0745 66.3749 11.0231C66.2666 10.9718 66.1469 10.9448 66.0246 10.9432C65.8997 10.9473 65.7765 10.9775 65.6655 11.0321C65.5555 11.0867 65.4594 11.165 65.386 11.2597C65.1824 11.5263 65.0837 11.8501 65.109 12.1764L65.1317 12.1609Z" fill="black"/>
<path d="M68.1953 13.7166V10.5865H68.7038V11.0815C68.7911 10.9143 68.9143 10.7659 69.0654 10.6444C69.1729 10.5734 69.3013 10.5367 69.4332 10.5392C69.6342 10.5457 69.8299 10.6036 69.9985 10.7072L69.8001 11.1973C69.6822 11.1264 69.545 11.0864 69.4044 11.0815C69.2847 11.0832 69.1676 11.1199 69.0715 11.1876C68.9676 11.2593 68.8925 11.3613 68.8566 11.4771C68.7929 11.6769 68.7623 11.8849 68.7658 12.0937V13.7166H68.1953Z" fill="black"/>
<path d="M70.3555 9.39844H70.9207V10.0256H70.3555V9.39844ZM70.3555 10.5843H70.9207V13.7145H70.3555V10.5843Z" fill="black"/>
<path d="M71.7852 13.7158V10.5856H72.2945V11.0277C72.4054 10.8605 72.5618 10.7226 72.7488 10.6305C72.9357 10.5375 73.1454 10.4934 73.3568 10.5008C73.5507 10.4975 73.7429 10.531 73.922 10.6011C74.0723 10.6549 74.2033 10.7463 74.3012 10.8645C74.3868 10.982 74.4462 11.1149 74.4759 11.2544C74.5047 11.4289 74.5161 11.6051 74.51 11.7821V13.7158H73.9447V11.8188C73.9508 11.6548 73.9299 11.4917 73.8827 11.3335C73.8364 11.2258 73.7525 11.1345 73.6451 11.0758C73.5254 11.0105 73.3882 10.9779 73.2493 10.9803C73.0205 10.9771 72.7986 11.0546 72.6273 11.1965C72.5251 11.3074 72.4491 11.4371 72.4037 11.5765C72.3574 11.716 72.3434 11.8636 72.3617 12.008V13.7158H71.7852Z" fill="black"/>
<path d="M76.6075 13.2292L76.6923 13.6932C76.5507 13.7226 76.4075 13.7381 76.2624 13.7405C76.0965 13.7495 75.9313 13.7193 75.782 13.6508C75.678 13.597 75.595 13.5138 75.5443 13.4135C75.4858 13.2096 75.4631 12.9975 75.4771 12.7863V10.9945H75.0586V10.5834H75.4771V9.80863L76.0423 9.49219V10.5834H76.6075V10.9945H76.0423V12.8181C76.0344 12.916 76.0467 13.0138 76.0764 13.1076C76.0947 13.1517 76.1288 13.1892 76.1725 13.2128C76.2319 13.2389 76.2983 13.252 76.3647 13.2504C76.4267 13.2504 76.5114 13.2504 76.6128 13.2504L76.6075 13.2292Z" fill="black"/>
</svg>
