<svg width="26" height="26" viewBox="0 0 26 26" fill="none" xmlns="http://www.w3.org/2000/svg">
<path d="M16.8048 3.19523C16.419 3.58103 14.7986 6.95034 14.7986 7.77337C14.7986 8.59641 16.8105 9.72231 16.9334 10.1139C17.0562 10.5054 16.419 12.0172 14.2328 14.2033C12.0466 16.3895 10.5827 16.9789 10.1948 16.8525C9.80677 16.7261 8.31721 14.6663 7.90569 14.6663C7.49417 14.6663 3.61047 16.3895 3.22467 16.7753C2.83887 17.1611 2.85837 18.2745 3.26325 19.0773C3.5543 19.6543 4.43351 20.2475 4.43351 20.2475C4.43351 20.2475 6.61444 21.5659 8.20147 21.2377C11.1351 20.6312 13.8735 19.0893 16.4961 16.4667C19.1187 13.8441 20.6606 11.1057 21.2672 8.17203C21.5953 6.585 20.2769 4.40407 20.2769 4.40407C20.2769 4.40407 19.6838 3.52487 19.1067 3.23381C18.3039 2.82893 17.1906 2.80944 16.8048 3.19523Z" fill="white"/>
</svg>
