<svg width="16" height="17" viewBox="0 0 16 17" fill="none" xmlns="http://www.w3.org/2000/svg">
<path fill-rule="evenodd" clip-rule="evenodd" d="M6 1.73828C4.89543 1.73828 4 2.63371 4 3.73828V4.73828H5V3.73828C5 3.186 5.44772 2.73828 6 2.73828H10C10.5523 2.73828 11 3.186 11 3.73828V4.73828H12V3.73828C12 2.63371 11.1046 1.73828 10 1.73828H6Z" fill="#262426"/>
<path fill-rule="evenodd" clip-rule="evenodd" d="M6 8.73828H1C0.447715 8.73828 0 9.186 0 9.73828V13.7383C0 14.8429 0.895431 15.7383 2 15.7383H14C15.1046 15.7383 16 14.8429 16 13.7383V9.73828C16 9.186 15.5523 8.73828 15 8.73828H10C10 9.29057 9.55229 9.73828 9 9.73828H7C6.44772 9.73828 6 9.29057 6 8.73828Z" fill="#262426"/>
<path fill-rule="evenodd" clip-rule="evenodd" d="M2 4.73828C0.895431 4.73828 0 5.63371 0 6.73828V7.23828C0 7.51442 0.223858 7.73828 0.5 7.73828H6C6 7.186 6.44772 6.73828 7 6.73828H9C9.55229 6.73828 10 7.186 10 7.73828H15.5C15.7761 7.73828 16 7.51442 16 7.23828V6.73828C16 5.63371 15.1046 4.73828 14 4.73828H2Z" fill="#262426"/>
<path d="M7 8.23828C7 7.96214 7.22386 7.73828 7.5 7.73828H8.5C8.77614 7.73828 9 7.96214 9 8.23828C9 8.51442 8.77614 8.73828 8.5 8.73828H7.5C7.22386 8.73828 7 8.51442 7 8.23828Z" fill="#262426"/>
</svg>
