<svg width="16" height="16" viewBox="0 0 16 16" fill="none" xmlns="http://www.w3.org/2000/svg">
<path fill-rule="evenodd" clip-rule="evenodd" d="M10.631 11.6597C9.51128 12.5554 8.09092 13.091 6.54545 13.091C2.9305 13.091 0 10.1605 0 6.54552C0 2.93053 2.9305 0 6.54545 0C10.1604 0 13.0909 2.93053 13.0909 6.54552C13.0909 8.091 12.5553 9.51138 11.6596 10.6312L15.3244 14.296L14.2959 15.3246L10.631 11.6597ZM11.6364 6.54552C11.6364 9.35718 9.35709 11.6365 6.54545 11.6365C3.73382 11.6365 1.45455 9.35718 1.45455 6.54552C1.45455 3.73386 3.73382 1.45456 6.54545 1.45456C9.35709 1.45456 11.6364 3.73386 11.6364 6.54552Z" fill="white"/>
</svg>
