<svg width="16" height="17" viewBox="0 0 16 17" fill="none" xmlns="http://www.w3.org/2000/svg">
<g clip-path="url(#clip0_3699_23413)">
<path d="M5.26933 7.83629L7.104 5.97904L5.90933 4.76222L5.568 5.10379C5.41156 5.26034 5.21614 5.34231 4.98176 5.34971C4.74738 5.35711 4.54457 5.27514 4.37333 5.10379C4.2021 4.93244 4.11676 4.72978 4.11733 4.4958C4.1179 4.26183 4.20324 4.05889 4.37333 3.88697L4.69333 3.56675L3.73333 2.60611L1.87733 4.46336L5.26933 7.83629ZM12.2667 14.8597L14.1227 13.0024L13.1627 12.0418L12.8213 12.362C12.6507 12.5328 12.4516 12.6182 12.224 12.6182C11.9964 12.6182 11.7973 12.5328 11.6267 12.362C11.456 12.1912 11.3707 11.992 11.3707 11.7643C11.3707 11.5366 11.456 11.3373 11.6267 11.1665L11.9467 10.825L10.7307 9.6295L8.896 11.4654L12.2667 14.8597ZM11.6053 3.97236L12.8 5.16783L13.9947 3.97236L12.7787 2.75554L11.6053 3.97236ZM1.17333 16.4181C0.931556 16.4181 0.729031 16.3361 0.56576 16.1721C0.402489 16.0082 0.320569 15.8055 0.32 15.5642V13.1519C0.32 13.038 0.341333 12.9279 0.384 12.8214C0.426667 12.715 0.490667 12.6187 0.576 12.5328L4.05333 9.05311L0.362667 5.35996C0.120889 5.11802 0 4.81915 0 4.46336C0 4.10756 0.120889 3.80869 0.362667 3.56675L2.83733 1.09042C3.07911 0.84848 3.37778 0.73121 3.73333 0.738611C4.08889 0.746011 4.38756 0.870397 4.62933 1.11177L8.34133 4.80492L11.5627 1.56007C11.7333 1.38929 11.9253 1.2612 12.1387 1.17581C12.352 1.09042 12.5724 1.04773 12.8 1.04773C13.0276 1.04773 13.248 1.09042 13.4613 1.17581C13.6747 1.2612 13.8667 1.38929 14.0373 1.56007L15.168 2.71285C15.3387 2.88363 15.4667 3.07576 15.552 3.28923C15.6373 3.50271 15.68 3.7233 15.68 3.95101C15.68 4.17872 15.6373 4.3959 15.552 4.60254C15.4667 4.80919 15.3387 4.99762 15.168 5.16783L11.9467 8.41268L15.6373 12.1058C15.8791 12.3478 16 12.6466 16 13.0024C16 13.3582 15.8791 13.6571 15.6373 13.899L13.1627 16.3754C12.9209 16.6173 12.6222 16.7383 12.2667 16.7383C11.9111 16.7383 11.6124 16.6173 11.3707 16.3754L7.68 12.6822L4.20267 16.1619C4.11733 16.2473 4.02148 16.3113 3.91509 16.354C3.80871 16.3967 3.69835 16.4181 3.584 16.4181H1.17333Z" fill="black"/>
</g>
<defs>
<clipPath id="clip0_3699_23413">
<rect width="16" height="16" fill="white" transform="translate(0 0.738281)"/>
</clipPath>
</defs>
</svg>
