<svg width="40" height="40" viewBox="0 0 40 40" fill="none" xmlns="http://www.w3.org/2000/svg">
<g clip-path="url(#clip0_6029_11917)">
<path d="M20 0C31.0458 0 40 8.95417 40 20C40 31.0458 31.0458 40 20 40C8.95417 40 0 31.0458 0 20C0 8.95417 8.95417 0 20 0ZM26.8992 28.1525C27.2667 27.0242 28.9908 15.775 29.2033 13.5583C29.2675 12.8867 29.0558 12.4408 28.64 12.2417C28.1375 12 27.3933 12.1208 26.5292 12.4325C25.345 12.8592 10.2042 19.2883 9.32917 19.66C8.5 20.0125 7.715 20.3967 7.715 20.9533C7.715 21.345 7.9475 21.565 8.5875 21.7933C9.25333 22.0308 10.9308 22.5392 11.9217 22.8125C12.8758 23.0758 13.9617 22.8475 14.57 22.4692C15.215 22.0683 22.6617 17.0858 23.1958 16.6492C23.73 16.2125 24.1558 16.7717 23.7192 17.2092C23.2825 17.6458 18.1717 22.6067 17.4975 23.2933C16.6792 24.1275 17.26 24.9917 17.8092 25.3375C18.4358 25.7325 22.945 28.7567 23.6242 29.2417C24.3033 29.7267 24.9917 29.9467 25.6225 29.9467C26.2533 29.9467 26.585 29.1167 26.8992 28.1525Z" fill="#0055FF"/>
</g>
<defs>
<clipPath id="clip0_6029_11917">
<rect width="40" height="40" fill="white"/>
</clipPath>
</defs>
</svg>
