<svg width="26" height="26" viewBox="0 0 26 26" fill="none" xmlns="http://www.w3.org/2000/svg">
<path fill-rule="evenodd" clip-rule="evenodd" d="M23.3068 2.15051C23.6265 2.01724 23.9764 1.97128 24.3201 2.0174C24.6638 2.06353 24.9887 2.20005 25.2611 2.41277C25.5334 2.62549 25.7432 2.90663 25.8687 3.22691C25.9941 3.5472 26.0306 3.89493 25.9743 4.23391L23.0404 21.8608C22.7558 23.5611 20.8723 24.5362 19.2979 23.6893C17.981 22.9807 16.0251 21.889 14.2658 20.75C13.3861 20.1798 10.6916 18.3539 11.0227 17.0547C11.3073 15.9438 15.8349 11.7693 18.4222 9.28739C19.4377 8.31231 18.9745 7.74982 17.7754 8.64673C14.7975 10.8736 10.0163 14.2601 8.43549 15.2134C7.04098 16.054 6.31397 16.1975 5.44466 16.054C3.8587 15.7926 2.38786 15.3877 1.18739 14.8944C-0.434798 14.2281 -0.355888 12.0191 1.1861 11.3759L23.3068 2.15051Z" fill="#0055FF"/>
</svg>
