<svg width="26" height="26" viewBox="0 0 26 26" fill="none" xmlns="http://www.w3.org/2000/svg">
<path d="M13 0C5.83191 0 0 5.83191 0 13C0 20.1681 5.83191 26 13 26C20.1687 26 26 20.1681 26 13C26 5.83191 20.1687 0 13 0ZM18.6369 15.5633C19.9013 16.6858 20.1641 17.0865 20.2071 17.1549C20.731 17.9858 19.626 18.087 19.626 18.087H17.2973C17.2973 18.087 16.7304 18.0932 16.246 17.7721C15.4564 17.255 14.6295 16.2523 14.0485 16.4263C13.5607 16.5722 13.5652 17.2312 13.5652 17.7947C13.5652 17.9965 13.3917 18.087 13 18.087C12.6083 18.087 12.4455 18.087 12.272 18.087C10.9963 18.087 9.61209 17.6574 8.23126 16.2144C6.27787 14.1745 4.5647 10.0654 4.5647 10.0654C4.5647 10.0654 4.46352 9.85852 4.57374 9.73248C4.69865 9.59117 5.03835 9.60926 5.03835 9.60926L7.29639 9.6087C7.29639 9.6087 7.50891 9.64883 7.66152 9.75622C7.78757 9.84439 7.85765 10.0128 7.85765 10.0128C7.85765 10.0128 8.23691 11.2653 8.72017 12.064C9.66409 13.6229 10.1033 13.6624 10.4237 13.4946C10.8917 13.2515 10.7391 11.5943 10.7391 11.5943C10.7391 11.5943 10.76 10.8827 10.5159 10.5656C10.3277 10.3203 9.96761 10.1897 9.81048 10.1694C9.6833 10.153 9.89583 9.9303 10.1666 9.80313C10.5283 9.64204 11.0206 9.60078 11.8696 9.6087C12.5303 9.61491 12.7208 9.65448 12.9785 9.71383C13.758 9.89357 13.5652 10.3678 13.5652 12.0329C13.5652 12.5665 13.4917 13.3165 13.8942 13.5652C14.0677 13.6726 14.6623 13.8037 15.7204 12.0855C16.2229 11.2704 16.6225 9.91843 16.6225 9.91843C16.6225 9.91843 16.705 9.76978 16.8333 9.6963C16.9644 9.62113 16.9605 9.62283 17.1402 9.62283C17.32 9.62283 19.1224 9.6087 19.5181 9.6087C19.9132 9.6087 20.284 9.60417 20.3478 9.83591C20.4394 10.1688 20.0562 11.3094 19.0851 12.5473C17.4895 14.5787 17.3126 14.3887 18.6369 15.5633Z" fill="#0055FF"/>
</svg>
