<svg width="435" height="53" viewBox="0 0 435 53" fill="none" xmlns="http://www.w3.org/2000/svg">
<path d="M32.2063 0.5625V14.3034H26.8075C19.9873 14.3034 14.4922 19.7252 14.4922 26.4561C14.4922 33.1845 19.9873 38.6063 26.8049 38.6063H32.2063V52.3472C44.5191 50.0106 53.7106 39.3547 53.7106 26.4536C53.7106 13.6489 44.5216 2.99304 32.2063 0.5625Z" fill="#262426"/>
<path d="M26.8094 42.9023C17.6204 42.9023 10.134 35.5194 10.134 26.4543C10.134 17.3893 17.6179 10.0038 26.8043 10.0038H27.8481V0H26.8069C12.0315 0 0 11.8711 0 26.4518C0 41.1289 12.0315 53 26.8094 53H27.8506V42.9074H26.8094V42.9023Z" fill="#262426"/>
<path d="M91.6015 35.7066C89.4309 37.4651 86.7221 38.4219 83.9301 38.4163C77.2037 38.4163 71.8048 33.0884 71.8048 26.4513C71.8048 19.8168 77.2012 14.4889 83.9301 14.4889C86.8578 14.4763 89.6883 15.5397 91.8853 17.4776L96.1491 13.2736C92.7964 10.251 88.4413 8.58444 83.9301 8.59774C73.8874 8.59774 65.8359 16.6378 65.8359 26.4513C65.8359 36.2673 73.8874 44.3987 83.9301 44.3987C88.5715 44.3987 92.7391 42.7166 95.8654 39.9131L91.6015 35.7066ZM284.38 10.0008L271.023 25.8906L257.57 10.0008L257.477 10.1885V10.0008H252.075V42.9044H257.477V18.7867L271.023 34.6766L284.38 19.1622V42.9044H289.685V10.0008H284.38ZM136.315 26.4513C136.315 36.3612 128.167 44.3049 118.221 44.3049C108.181 44.3049 100.129 36.2673 100.129 26.4513C100.129 16.6378 108.274 8.59774 118.221 8.59774C128.167 8.59774 136.315 16.6378 136.315 26.4513ZM130.252 26.4513C130.252 19.8168 124.854 14.4889 118.127 14.4889C111.401 14.4889 106.002 19.8168 106.002 26.4513C106.002 33.0884 111.401 38.4163 118.127 38.4163C124.854 38.4163 130.252 33.0884 130.252 26.4513ZM246.583 26.4513C246.583 36.3612 238.435 44.3049 228.488 44.3049C218.446 44.3049 210.394 36.2673 210.394 26.4513C210.394 16.6378 218.542 8.59774 228.488 8.59774C238.529 8.59774 246.583 16.6378 246.583 26.4513ZM240.614 26.4513C240.614 19.8168 235.215 14.4889 228.488 14.4889C221.762 14.4889 216.363 19.8168 216.363 26.4513C216.363 33.0884 221.762 38.4163 228.488 38.4163C235.119 38.4163 240.614 33.0884 240.614 26.4513ZM210.301 10.0008H203.004L189.27 23.8356H183.681V10.0008H178.376V42.9044H183.681V29.1635H189.174L202.91 42.9044H210.111L193.818 26.5452L210.301 10.0008ZM434.998 10.0008H427.803L413.97 23.8356H408.381V10.0008H403.076V42.9044H408.381V29.1635H413.97L427.611 42.9044H434.811L418.612 26.5452L434.998 10.0008ZM356.561 42.9019H362.439L347.753 10.0008H341.69L327.008 42.9044H332.881L336.101 35.8005H353.344L356.561 42.9019ZM338.472 30.5639L344.722 16.7317L350.975 30.5639H338.47H338.472ZM171.556 33.37C171.556 32.0694 171.287 30.7829 170.765 29.592C170.243 28.401 169.479 27.3316 168.523 26.4513C170.322 24.6753 171.556 22.2448 171.556 19.5352C171.548 17.0006 170.536 14.5729 168.741 12.7852C166.947 10.9975 164.518 9.99603 161.987 10.0008H142.474V42.9957H161.987C167.292 42.9044 171.556 38.604 171.556 33.37ZM147.873 15.3312H161.893C164.262 15.3312 166.155 17.1985 166.155 19.5352C166.155 21.8718 164.262 23.7417 161.893 23.7417H147.873V15.3287V15.3312ZM161.893 37.6678H147.873V29.1635H161.987C164.356 29.1635 166.251 31.1246 166.251 33.37C166.155 35.7041 164.262 37.6678 161.893 37.6678ZM391.045 10.0946V23.8356H371.626V10.0946H366.227V42.8105H371.626V29.1609H391.045V42.8105H396.446V10.0946H391.045ZM325.113 33.37C325.113 28.1334 320.756 23.8356 315.451 23.8356H301.43V15.3287H321.893V10.0008H296.031V42.9957H315.451C320.756 42.9044 325.113 38.604 325.113 33.37ZM315.451 37.6678H301.43V29.1635H315.451C317.819 29.1635 319.714 31.1246 319.714 33.37C319.714 35.7041 317.819 37.6678 315.451 37.6678Z" fill="#262426"/>
</svg>
