<svg width="16" height="16" viewBox="0 0 16 16" fill="none" xmlns="http://www.w3.org/2000/svg">
<g clip-path="url(#clip0_6164_6804)">
<path d="M13.1265 12.6725L12.773 13.026C12.5777 13.2213 12.2611 13.2213 12.0659 13.026L8 8.96016L3.93411 13.026C3.7389 13.2213 3.42229 13.2213 3.22702 13.026L2.87351 12.6725C2.67824 12.4772 2.67824 12.1606 2.87345 11.9654L6.93934 7.8995L2.87347 3.83364C2.67821 3.63837 2.67822 3.32178 2.87349 3.12651L3.22701 2.77299C3.42228 2.57772 3.73887 2.57771 3.93413 2.77298L8 6.83884L12.0659 2.77297C12.2611 2.5777 12.5777 2.57772 12.773 2.77299L13.1265 3.1265C13.3218 3.32177 13.3218 3.63836 13.1265 3.83363L9.06066 7.8995L13.1265 11.9654C13.3218 12.1606 13.3218 12.4772 13.1265 12.6725Z" fill="#0055FF"/>
</g>
<defs>
<clipPath id="clip0_6164_6804">
<rect width="16" height="16" fill="white"/>
</clipPath>
</defs>
</svg>
