<svg aria-hidden="true" xmlns="http://www.w3.org/2000/svg" xmlns:xlink="http://www.w3.org/1999/xlink"><symbol viewBox="0 0 17 17" id="basket" xmlns="http://www.w3.org/2000/svg">
<path d="M7.0015 1.08534C6.94523 1.09731 6.85145 1.1392 6.78893 1.17511C6.71703 1.21999 5.99179 2.05486 4.7664 3.50615L2.85641 5.77137L2.33749 5.78932C1.77168 5.80728 1.61225 5.84618 1.35279 6.01674C1.18399 6.12746 0.968295 6.41472 0.908901 6.60324C0.811994 6.92043 0.821372 6.98028 1.64351 10.9481C2.0749 13.0218 2.4469 14.7933 2.47503 14.8831C2.55943 15.1584 2.6751 15.3379 2.92205 15.5743C3.17526 15.8137 3.40658 15.9424 3.73794 16.0232C3.99427 16.086 13.7349 16.086 13.9913 16.0232C14.6133 15.8706 15.1229 15.3888 15.2698 14.8083C15.2917 14.7245 15.6605 12.968 16.0888 10.9033C16.6421 8.24006 16.8672 7.088 16.8672 6.94437C16.8672 6.45362 16.5327 6.00477 16.0419 5.84618C15.8825 5.79531 15.7731 5.78633 15.276 5.78633H14.6946L12.8815 3.64081C11.8843 2.46182 11.0059 1.43245 10.9309 1.35166C10.7308 1.1392 10.5933 1.07935 10.3213 1.09431C10.1369 1.10329 10.0775 1.11825 9.96496 1.19306C9.69299 1.37859 9.60234 1.72869 9.75239 2.03092C9.79615 2.12069 10.4401 2.9017 11.3623 3.97595L12.8972 5.77137L8.78332 5.78034C6.51696 5.78334 4.66011 5.78034 4.65074 5.77436C4.64448 5.76538 5.31658 4.96343 6.14497 3.98792C6.97336 3.01241 7.6986 2.1566 7.75174 2.08478C7.83927 1.96509 7.84865 1.92918 7.84865 1.73767C7.84552 1.4504 7.72673 1.24992 7.47978 1.13022C7.37037 1.07636 7.13279 1.05242 7.0015 1.08534ZM6.49821 9.14675C6.56073 9.19163 6.65138 9.27841 6.69827 9.33826L6.7858 9.44598V10.993V12.5371L6.69827 12.6658C6.41381 13.0787 5.79798 13.0428 5.56978 12.6029L5.48851 12.4473V10.996C5.48851 9.64348 5.49476 9.53276 5.5479 9.42204C5.66982 9.17069 5.88864 9.04501 6.17936 9.05698C6.34816 9.06296 6.40755 9.08091 6.49821 9.14675ZM9.14281 9.10485C9.29599 9.18265 9.44604 9.34723 9.4898 9.48787C9.51481 9.56568 9.52106 10.0594 9.51481 11.0678L9.50543 12.5341L9.42103 12.6508C9.31474 12.8004 9.11781 12.9261 8.96151 12.953C8.70517 12.9949 8.39257 12.8333 8.27378 12.6029C8.20814 12.4742 8.20814 12.4383 8.20814 10.996C8.20814 9.37117 8.20189 9.42204 8.40508 9.23352C8.46134 9.18265 8.54887 9.11981 8.59889 9.09588C8.73018 9.03004 8.99589 9.03603 9.14281 9.10485ZM11.8312 9.10485C11.9844 9.18265 12.1344 9.34723 12.1782 9.48787C12.2032 9.56568 12.2094 10.0654 12.2032 11.0708L12.1938 12.5371L12.1094 12.6628C11.8437 13.0458 11.2748 13.0458 11.0028 12.6628L10.9121 12.5341L10.9028 11.0529C10.8965 9.77514 10.8996 9.55371 10.9434 9.44897C10.9934 9.31731 11.1372 9.17368 11.2873 9.09887C11.4186 9.03004 11.6843 9.03603 11.8312 9.10485Z"/>
</symbol><symbol viewBox="0 0 16 17" id="catalog" xmlns="http://www.w3.org/2000/svg">
<path fill-rule="evenodd" clip-rule="evenodd" d="M10.2188 0.738281C9.52839 0.738281 8.96875 1.29793 8.96875 1.98828V6.51953C8.96875 7.20989 9.52839 7.76953 10.2188 7.76953H14.75C15.4404 7.76953 16 7.20989 16 6.51953V1.98828C16 1.29793 15.4404 0.738281 14.75 0.738281H10.2188ZM10.2188 9.70703C9.52839 9.70703 8.96875 10.2667 8.96875 10.957V15.4883C8.96875 16.1786 9.52839 16.7383 10.2188 16.7383H14.75C15.4404 16.7383 16 16.1786 16 15.4883V10.957C16 10.2667 15.4404 9.70703 14.75 9.70703H10.2188ZM0 10.957C0 10.2667 0.559644 9.70703 1.25 9.70703H5.78125C6.47161 9.70703 7.03125 10.2667 7.03125 10.957V15.4883C7.03125 16.1786 6.47161 16.7383 5.78125 16.7383H1.25C0.559644 16.7383 0 16.1786 0 15.4883V10.957ZM1.25 0.738281C0.559644 0.738281 0 1.29793 0 1.98828V6.51953C0 7.20989 0.559644 7.76953 1.25 7.76953H5.78125C6.47161 7.76953 7.03125 7.20989 7.03125 6.51953V1.98828C7.03125 1.29793 6.47161 0.738281 5.78125 0.738281H1.25Z"/>
</symbol><symbol viewBox="0 0 20 20" id="close" xmlns="http://www.w3.org/2000/svg">
<path d="M19.547 18.8995L18.8989 19.5476C18.5409 19.9056 17.9605 19.9057 17.6025 19.5477L10.1484 12.0936L2.69431 19.5477C2.33642 19.9056 1.75597 19.9056 1.39798 19.5476L0.749869 18.8995C0.391878 18.5415 0.391877 17.9611 0.74977 17.6032L8.20389 10.1491L0.749808 2.695C0.391828 2.33702 0.391847 1.75659 0.749837 1.3986L1.39795 0.750484C1.75594 0.392494 2.33637 0.392475 2.69435 0.750455L10.1484 8.20453L17.6025 0.750438C17.9605 0.392457 18.5409 0.392486 18.8989 0.750477L19.547 1.39859C19.905 1.75658 19.905 2.337 19.5471 2.69498L12.093 10.1491L19.5471 17.6032C19.9051 17.9612 19.905 18.5415 19.547 18.8995Z"/>
</symbol><symbol viewBox="0 0 14 14" id="copy" xmlns="http://www.w3.org/2000/svg">
<path opacity="0.6" d="M4.60645 0.0226574C3.89395 0.128907 3.2627 0.585157 2.92207 1.24453C2.74082 1.58828 2.67207 1.88828 2.67207 2.32266V2.67578H2.31895C1.88457 2.67578 1.58457 2.74453 1.24082 2.92578C0.659572 3.22578 0.237697 3.75078 0.0564473 4.39453C0.00332226 4.58516 0.00019726 4.80391 0.00019726 8.00391C0.00019726 11.8227 -0.0154277 11.5633 0.231447 12.0664C0.525197 12.6633 1.0377 13.0883 1.6877 13.2758L1.9377 13.3477H5.35957H8.78145L9.0752 13.2445C9.4377 13.1195 9.68145 12.9758 9.94082 12.7289C10.2814 12.4133 10.5689 11.9039 10.6252 11.5164L10.6471 11.3727L11.0408 11.3539C11.3033 11.3414 11.5158 11.3133 11.6658 11.2695C12.5811 11.0085 13.3439 10.3058 13.3439 9.41016V5.67578C13.3439 5.67578 13.3439 3.39977 13.3439 1.94141C13.3439 0.988564 12.4992 0.0039072 11.4377 0.0039072C10.2534 0.0039072 8.10957 0.000782013 8.10957 0.000782013C6.27832 -0.00234299 4.70332 0.0070324 4.60645 0.0226574ZM11.3752 1.42891C11.6064 1.51641 11.8314 1.74141 11.9189 1.97266C11.9846 2.14453 11.9846 2.17578 11.9846 5.67578C11.9846 9.17578 11.9846 9.20703 11.9189 9.37891C11.8314 9.61016 11.6064 9.83516 11.3752 9.92266C11.2502 9.96953 11.1283 9.98828 10.9377 9.98828H10.6721V7.31016C10.6721 4.94453 10.6658 4.61016 10.6221 4.42891C10.4127 3.59141 9.75645 2.93516 8.91895 2.72578C8.74082 2.68203 8.42832 2.67578 6.3627 2.67578H4.00957L4.02207 2.38516C4.04082 2.01328 4.11895 1.82266 4.34395 1.61953C4.6377 1.35078 4.39395 1.36641 8.00645 1.36641C11.1721 1.36328 11.2033 1.36328 11.3752 1.42891Z"/>
</symbol><symbol viewBox="0 0 23 16" id="email" xmlns="http://www.w3.org/2000/svg">
<path d="M22 0V1.39355L22.0205 1.41406L22 1.43262V16H0V0H22ZM2 14H20V3.25098L11.0127 11.4229L11.0117 11.4219L11.0098 11.4238L2 3.23145V14ZM3.64648 2L11.0107 8.59668L18.374 2H3.64648Z"/>
</symbol><symbol viewBox="0 0 21 21" id="file" xmlns="http://www.w3.org/2000/svg">
<path d="M16.7578 5.14844C16.7578 4.5319 16.4979 3.92753 16.0156 3.47266C15.5314 3.0161 14.8628 2.75 14.1543 2.75C13.5342 2.75002 12.9445 2.9536 12.4824 3.31055L12.293 3.47266L4.01953 11.2754C3.19942 12.0489 2.7501 13.0853 2.75 14.1523C2.75 15.2195 3.19937 16.2558 4.01953 17.0293L4.17676 17.1709C4.98224 17.8587 6.04206 18.2499 7.1543 18.25C8.34079 18.25 9.46791 17.8047 10.29 17.0293L18.5635 9.22656C18.9652 8.84767 19.5986 8.86592 19.9775 9.26758C20.3564 9.66932 20.3382 10.3027 19.9365 10.6816L11.6621 18.4844C10.4571 19.6208 8.83456 20.25 7.1543 20.25C5.57916 20.2499 4.05513 19.6969 2.87793 18.6914L2.64648 18.4844C1.43966 17.3461 0.75 15.7889 0.75 14.1523C0.7501 12.516 1.43987 10.9596 2.64648 9.82129L10.9209 2.01758L11.0869 1.86914C11.9337 1.14589 13.027 0.750024 14.1543 0.75C15.3568 0.75 16.5215 1.19973 17.3887 2.01758C18.2577 2.83728 18.7578 3.96248 18.7578 5.14844C18.7577 6.3342 18.2575 7.45869 17.3887 8.27832L17.3877 8.2793L9.10547 16.082L9.10449 16.0811C8.57522 16.5801 7.87003 16.8516 7.14551 16.8516C6.42084 16.8515 5.71482 16.5803 5.18555 16.0811V16.082C4.65422 15.581 4.34375 14.8877 4.34375 14.1523C4.34385 13.4171 4.65443 12.7246 5.18555 12.2236H5.18652L12.8291 5.02344L12.9072 4.95703C13.3094 4.64832 13.8881 4.68846 14.2432 5.06543C14.6217 5.46732 14.6028 6.0998 14.2012 6.47852L6.55762 13.6787C6.41336 13.8149 6.34385 13.9867 6.34375 14.1523C6.34375 14.2768 6.38333 14.4049 6.46387 14.5186L6.55762 14.627L6.67871 14.7197C6.81052 14.8026 6.97222 14.8515 7.14551 14.8516C7.3763 14.8516 7.58701 14.765 7.7334 14.627V14.626L16.0156 6.82324L16.1865 6.64648C16.5592 6.21777 16.7578 5.68784 16.7578 5.14844Z"/>
</symbol><symbol viewBox="0 0 17 15" id="link-arrow" xmlns="http://www.w3.org/2000/svg">
<path d="M-0.000154454 8.02248L13.4412 8.02248L8.56355 12.9001L9.86658 14.2031L16.9688 7.10095L9.86658 -0.00121653L8.56355 1.30182L13.4412 6.17943L-0.000154293 6.17943L-0.000154454 8.02248Z"/>
</symbol><symbol viewBox="0 0 14 13" id="link-arrow2" xmlns="http://www.w3.org/2000/svg">
<path d="M1.67376 12.6714L11.1782 3.16697L11.1782 10.065L13.021 10.065L13.021 0.0209767L2.97699 0.0209769L2.97699 1.86374L9.87498 1.86374L0.370535 11.3682L1.67376 12.6714Z"/>
</symbol><symbol viewBox="0 0 12 18" id="location" xmlns="http://www.w3.org/2000/svg">
<path fill-rule="evenodd" clip-rule="evenodd" d="M6 17.562C8.403 14.679 12 9.737 12 6C12 2.691 9.309 0 6 0C2.691 0 0 2.691 0 6C0 9.738 3.599 14.68 6 17.562Z"/>
</symbol><symbol viewBox="0 0 314 50" id="logo_desk" xmlns="http://www.w3.org/2000/svg">
<path d="M20.1268 23.1319H10.2826L8.91102 27.6121H0L10.6135 0.505144H20.1268L30.7403 27.6121H21.5918L20.1268 23.1319ZM18.2971 17.2815L15.2599 7.53268L12.1689 17.2815H18.2971Z"/>
<path d="M26.7899 0.505144H35.9017L42.2704 20.0219L48.5288 0.505144H57.3832L46.8998 27.6121H37.4571L26.7899 0.505144Z"/>
<path d="M60.3861 27.6125V0.505516H75.0238C77.108 0.437552 79.1923 0.660495 81.2086 1.17159C82.6113 1.60656 83.8217 2.47923 84.6503 3.65094C85.5581 4.94498 86.019 6.48096 85.9653 8.04143C85.9964 9.398 85.6486 10.7383 84.9614 11.9236C84.2883 13.0192 83.3353 13.9326 82.1956 14.5769C81.2454 15.0907 80.2132 15.4523 79.1414 15.6481C79.9445 15.8764 80.7081 16.2135 81.4094 16.6512C81.9241 17.0753 82.3907 17.5538 82.8008 18.073C83.2646 18.6222 83.6746 19.2094 84.0253 19.8292L88.2532 27.6832H78.2618L73.5956 19.3562C73.228 18.5623 72.6935 17.8501 72.0233 17.2656C71.3955 16.8442 70.646 16.624 69.8825 16.6322H69.1133V27.6125H60.3861ZM69.15 11.4859H72.8095C73.5561 11.4234 74.2998 11.301 75.0238 11.1162C75.5951 11.021 76.1041 10.7193 76.4519 10.2734C76.8111 9.82756 77.0062 9.27569 77.0006 8.71022C77.0232 8.33234 76.9553 7.95171 76.8026 7.60102C76.6527 7.25304 76.418 6.94041 76.121 6.6903C75.1539 6.11668 74.0142 5.86929 72.883 5.98619H69.0397L69.15 11.4859Z"/>
<path d="M89.15 14.0847C89.0369 12.2034 89.3168 10.3194 89.9786 8.54686C90.6375 6.77163 91.6641 5.14051 92.9932 3.75403C94.4242 2.46814 96.1125 1.47582 97.9564 0.834238C99.8002 0.195371 101.76 -0.0791959 103.717 0.0295475C105.688 -0.0927888 107.668 0.16549 109.534 0.790765C111.401 1.41604 113.12 2.39472 114.585 3.66702C115.908 5.02903 116.927 6.63299 117.583 8.38648C118.236 10.1372 118.513 11.9995 118.391 13.8563C118.502 16.5477 117.931 19.2255 116.726 21.6559C115.643 23.6541 113.968 25.2988 111.913 26.3835C109.497 27.6042 106.794 28.2077 104.065 28.1397C101.347 28.2349 98.6436 27.7374 96.1578 26.6826C94.0226 25.6658 92.258 24.0564 91.09 22.061C89.7015 19.6197 89.0284 16.863 89.15 14.0847ZM97.8602 14.0847C97.6679 16.1698 98.2279 18.255 99.4524 19.9894C100.015 20.5494 100.688 20.9926 101.432 21.297C102.179 21.6015 102.979 21.7592 103.788 21.7592C104.599 21.7592 105.4 21.6015 106.146 21.297C106.89 20.9926 107.563 20.5494 108.126 19.9894C109.35 18.1054 109.891 15.8898 109.661 13.6823C109.837 11.6977 109.271 9.7186 108.072 8.0956C107.523 7.50567 106.848 7.04351 106.093 6.73903C105.335 6.43455 104.517 6.29862 103.697 6.33668C102.9 6.30406 102.105 6.4454 101.373 6.74988C100.64 7.05436 99.9897 7.51382 99.4693 8.0956C98.2165 9.84909 97.6481 11.9696 97.8602 14.0847Z"/>
<path d="M123.205 27.6125V0.505516H137.842C139.929 0.437552 142.011 0.660495 144.027 1.17159C145.427 1.612 146.637 2.48195 147.469 3.65094C148.374 4.94498 148.829 6.48368 148.767 8.04143C148.804 9.398 148.464 10.7383 147.78 11.9236C147.081 13.03 146.097 13.9435 144.926 14.5769C143.973 15.088 142.941 15.4496 141.869 15.6481C142.67 15.8791 143.436 16.2162 144.138 16.6512C144.652 17.0753 145.119 17.5538 145.529 18.073C145.993 18.6222 146.403 19.2094 146.756 19.8292L150.981 27.6832H141.12L136.454 19.3562C136.083 18.5623 135.549 17.8501 134.879 17.2656C134.251 16.8442 133.504 16.624 132.738 16.6322H131.969V27.6125H123.205ZM131.969 11.4859H135.631C136.409 11.4288 137.181 11.3065 137.936 11.1162C138.504 11.021 139.016 10.7193 139.364 10.2734C139.723 9.82756 139.918 9.27569 139.912 8.71022C139.938 8.33234 139.879 7.95716 139.731 7.60646C139.587 7.25576 139.361 6.94313 139.07 6.6903C138.094 6.11668 136.949 5.86929 135.812 5.98619H131.969V11.4859Z"/>
<path d="M172.703 23.1319H162.859L161.484 27.6121H152.519L163.133 0.505144H172.646L183.243 27.6121H174.094L172.703 23.1319ZM170.873 17.2815L167.762 7.53268L164.688 17.2815H170.873Z"/>
<path d="M192.136 18.9004L195.665 18.6204C195.77 19.8057 196.171 20.953 196.839 21.9561C197.557 22.9022 198.541 23.6335 199.675 24.0658C201.049 24.6068 202.523 24.8759 204.01 24.8569C205.294 24.8786 206.572 24.6774 207.78 24.2588C208.753 23.9135 209.598 23.3018 210.215 22.5026C210.735 21.8338 211.018 21.0182 211.018 20.1836C211.038 19.3762 210.766 18.5878 210.249 17.9517C209.562 17.2176 208.685 16.6658 207.707 16.3531C206.052 15.8312 204.375 15.3935 202.676 15.0346C200.781 14.6486 198.94 14.0586 197.184 13.2784C195.965 12.7075 194.921 11.8321 194.166 10.7474C193.504 9.73881 193.162 8.5671 193.176 7.37636C193.176 6.00891 193.603 4.67409 194.404 3.54588C195.286 2.35514 196.533 1.45799 197.973 0.982239C199.604 0.343371 201.352 0.0225806 203.114 0.0334549C204.992 0.00898766 206.855 0.33795 208.603 0.998566C210.096 1.57762 211.372 2.57532 212.262 3.86121C213.133 5.13079 213.617 6.60972 213.654 8.13213L209.994 8.39583C209.958 7.65637 209.768 6.93052 209.434 6.26446C209.101 5.59841 208.631 5.00302 208.054 4.51096C206.621 3.54314 204.881 3.07827 203.134 3.19517C201.392 3.05652 199.655 3.47791 198.19 4.38863C197.71 4.71486 197.316 5.1444 197.048 5.64734C196.776 6.14756 196.635 6.70486 196.635 7.27033C196.624 7.72161 196.714 8.17017 196.904 8.58339C197.093 8.99662 197.379 9.36365 197.735 9.65997C199.454 10.6686 201.372 11.3265 203.371 11.5929C205.501 12.0007 207.588 12.5906 209.61 13.3491C211.072 13.9254 212.339 14.8796 213.269 16.1057C214.058 17.2448 214.465 18.5878 214.44 19.9553C214.443 21.4097 213.996 22.8342 213.159 24.0467C212.26 25.3516 210.99 26.382 209.499 27.0154C207.772 27.7467 205.899 28.1056 204.01 28.0702C201.816 28.1382 199.63 27.7739 197.588 26.9991C195.928 26.3439 194.511 25.2239 193.527 23.783C192.534 22.3313 191.994 20.6376 191.969 18.9004H192.136Z"/>
<path d="M223.616 27.6121V3.71844H214.321V0.505056H236.682V3.71844H227.349V27.6121H223.616Z"/>
<path d="M235.701 14.4175C235.48 10.568 236.832 6.78367 239.47 3.87751C240.72 2.60793 242.233 1.60748 243.916 0.944143C245.599 0.280808 247.409 -0.0291064 249.224 0.0307025C251.696 -0.0127949 254.131 0.596158 256.269 1.7869C258.342 2.96676 260.004 4.70939 261.045 6.79454C262.188 9.06456 262.765 11.563 262.728 14.0831C262.773 16.6413 262.185 19.1695 261.008 21.464C259.928 23.5465 258.211 25.2619 256.085 26.382C254.001 27.5265 251.645 28.13 249.241 28.1382C246.73 28.1789 244.258 27.5401 242.106 26.295C240.044 25.0906 238.393 23.3399 237.349 21.252C236.278 19.1451 235.726 16.8316 235.737 14.4882L235.701 14.4175ZM239.581 14.4882C239.417 17.3046 240.401 20.0694 242.327 22.2008C243.22 23.0979 244.292 23.8129 245.48 24.2995C246.67 24.7861 247.949 25.039 249.241 25.039C250.536 25.039 251.815 24.7861 253.002 24.2995C254.193 23.8129 255.268 23.0979 256.158 22.2008C258.098 19.9226 259.06 17.0192 258.848 14.0831C258.896 12.0985 258.497 10.1275 257.677 8.30337C256.97 6.72659 255.785 5.39175 254.275 4.47558C252.765 3.57301 251.02 3.10542 249.241 3.12173C247.98 3.09998 246.727 3.32019 245.553 3.76876C244.383 4.22004 243.316 4.88881 242.417 5.73973C240.488 7.48506 239.533 10.413 239.544 14.5235L239.581 14.4882Z"/>
<path d="M265.423 27.612V0.505031H277.94C279.885 0.423473 281.831 0.673572 283.686 1.24176C285.007 1.73926 286.115 2.64998 286.834 3.82441C287.62 5.05049 288.041 6.46144 288.041 7.90229C288.084 9.70471 287.388 11.4528 286.101 12.7658C284.45 14.2393 282.329 15.1256 280.08 15.2805C280.892 15.6312 281.65 16.0853 282.331 16.6317C283.519 17.7055 284.563 18.9153 285.442 20.2338L290.346 27.612H285.643L281.984 21.9737C280.903 20.3561 279.99 19.1083 279.294 18.2492C278.78 17.5805 278.16 16.9878 277.465 16.493C276.941 16.1668 276.367 15.9221 275.765 15.7726C275.072 15.6775 274.373 15.6367 273.675 15.6476H269.357V27.612H265.423ZM269.173 12.4695H277.19C278.548 12.5239 279.902 12.3526 281.197 11.9584C282.097 11.673 282.872 11.1048 283.395 10.3436C283.893 9.61775 284.15 8.76952 284.144 7.90229C284.161 7.3042 284.042 6.71158 283.794 6.16242C283.542 5.61599 283.166 5.12936 282.696 4.73789C281.37 3.81085 279.741 3.37587 278.104 3.50908H269.173V12.4695Z"/>
<path d="M292.12 27.6121V0.505056H312.541V3.71844H295.853V12.0128H311.48V15.1909H295.853V24.415H313.18V27.6121H292.12Z"/>
<path d="M0 45.7076V35.2737H1.6459V36.7309C1.98243 36.2198 2.44904 35.7957 3.0005 35.5021C3.58589 35.1813 4.25048 35.0236 4.92072 35.0454C5.61358 35.0209 6.29795 35.184 6.89749 35.5184C7.40935 35.8283 7.79113 36.3014 7.97778 36.8532C8.33128 36.3095 8.82618 35.8637 9.41158 35.5565C9.9998 35.2465 10.6587 35.0888 11.3261 35.097C11.7786 35.0698 12.2339 35.1296 12.6609 35.2737C13.088 35.4178 13.4811 35.6462 13.8148 35.9398C14.4171 36.6711 14.7084 37.5927 14.6377 38.5224V45.7076H12.808V39.1205C12.8363 38.604 12.7741 38.0875 12.6242 37.5927C12.5111 37.3154 12.3046 37.0816 12.0388 36.9239C11.7136 36.7227 11.329 36.6194 10.9415 36.6248C10.6022 36.6248 10.2628 36.6901 9.94889 36.8179C9.63498 36.9456 9.34936 37.1305 9.11181 37.3643C8.55752 38.0195 8.28886 38.8568 8.36239 39.6996V45.7076H6.53268V38.9085C6.58076 38.2914 6.41954 37.6769 6.07453 37.1522C5.89919 36.9456 5.6758 36.7825 5.41845 36.6792C5.16393 36.5759 4.88677 36.5324 4.60963 36.5542C4.08362 36.5324 3.56045 36.6602 3.1108 36.9239C2.66114 37.1849 2.32461 37.59 2.15776 38.0657C1.91173 38.778 1.79861 39.5283 1.82972 40.2786V45.7076H0Z"/>
<path d="M24.8317 42.3191L26.6615 42.5475C26.4211 43.5316 25.8329 44.407 24.9986 45.0241C24.0965 45.6358 23.0077 45.9457 21.9048 45.9022C21.2091 45.9348 20.5134 45.8261 19.8658 45.5841C19.2153 45.3394 18.6271 44.9724 18.1351 44.4967C17.1566 43.4092 16.6588 41.9983 16.7437 40.5629C16.6899 39.0622 17.2471 37.5996 18.2991 36.4877C18.7657 36.0093 19.3341 35.6314 19.9676 35.384C20.5982 35.1339 21.277 35.0197 21.9585 35.0469C22.6203 35.0224 23.2764 35.1339 23.8872 35.3786C24.4952 35.6205 25.0438 35.9875 25.4907 36.4524C26.4437 37.5697 26.9103 38.9997 26.7915 40.4406C26.7915 40.5439 26.7915 40.6852 26.7915 40.8973H18.7035C18.7035 41.8624 19.0598 42.7949 19.7102 43.5316C20.0015 43.8252 20.355 44.0563 20.7453 44.2113C21.1356 44.3635 21.5569 44.4396 21.9783 44.4287C22.6203 44.4776 23.2622 44.3118 23.791 43.9529C24.3199 43.5288 24.713 42.9688 24.9251 42.3354L24.8317 42.3191ZM18.8845 39.4918H24.942C24.9222 38.7822 24.679 38.0971 24.2463 37.5235C23.9777 37.1891 23.6299 36.9227 23.2311 36.7433C22.8352 36.5639 22.3997 36.4741 21.9585 36.4877C21.5654 36.4769 21.1723 36.5421 20.8047 36.6808C20.437 36.8194 20.1005 37.0287 19.8177 37.2951C19.2323 37.8824 18.893 38.6599 18.8675 39.4727L18.8845 39.4918Z"/>
<path d="M29 45.705V35.2711H30.6487V36.9213C30.9259 36.3613 31.3246 35.8638 31.8195 35.4641C32.1617 35.2303 32.5718 35.108 32.9903 35.1135C33.6436 35.1352 34.2742 35.3282 34.82 35.6735L34.1809 37.3073C33.8076 37.079 33.3777 36.9458 32.9366 36.9213C32.5463 36.9268 32.1674 37.0491 31.8563 37.272C31.5226 37.5113 31.2822 37.8538 31.1776 38.2398C30.9655 38.9058 30.8608 39.5991 30.8665 40.2951V45.705H29Z"/>
<path d="M43.9132 41.8596L45.7429 42.088C45.6184 43.1645 45.084 44.1595 44.244 44.8799C43.4098 45.5705 42.3408 45.932 41.2407 45.8994C40.579 45.9239 39.9172 45.8124 39.3007 45.5731C38.687 45.3339 38.1327 44.9724 37.6746 44.5129C36.6593 43.3847 36.1475 41.9221 36.2465 40.4378C36.2267 39.4237 36.4246 38.4205 36.8319 37.4853C37.1938 36.667 37.8415 35.9983 38.6616 35.5878C39.4506 35.1719 40.3414 34.9598 41.2407 34.9734C42.2729 34.9272 43.2853 35.2262 44.1139 35.8162C44.8945 36.4306 45.4092 37.3005 45.559 38.2574L43.7293 38.5211C43.6106 37.9149 43.2882 37.3603 42.8159 36.9416C42.3832 36.5855 41.8289 36.3979 41.2605 36.4142C40.8335 36.3979 40.4121 36.4741 40.0218 36.6399C39.6316 36.803 39.2866 37.0504 39.0094 37.363C38.3364 38.2493 38.0225 39.3422 38.1299 40.4378C38.0309 41.5143 38.3279 42.5909 38.9727 43.4744C39.2357 43.7843 39.5694 44.029 39.9455 44.1921C40.3244 44.358 40.7345 44.4368 41.1502 44.4232C41.8233 44.4449 42.4765 44.2193 42.9799 43.7925C43.5116 43.2624 43.834 42.5745 43.8962 41.8432L43.9132 41.8596Z"/>
<path d="M48.0859 45.707V31.3203H49.9156V36.4666C50.3116 36.0126 50.8065 35.6483 51.3664 35.4009C51.9263 35.1562 52.5372 35.0339 53.1537 35.0448C53.8833 35.0258 54.6045 35.1753 55.2606 35.4825C55.8092 35.7652 56.2532 36.2084 56.5218 36.7466C56.8159 37.4942 56.946 38.2881 56.9064 39.0846V45.707H55.0767V39.0846C55.1418 38.3886 54.9268 37.6981 54.4715 37.1517C54.251 36.9451 53.9851 36.7847 53.6967 36.6814C53.4082 36.5781 53.0971 36.5373 52.7889 36.5536C52.2459 36.5427 51.7086 36.6705 51.2335 36.9233C50.7697 37.1707 50.4105 37.5594 50.2097 38.0298C49.9779 38.6442 49.8704 39.2939 49.8987 39.9464V45.707H48.0859Z"/>
<path d="M62.3058 43.6523H60.2188V45.6559H62.3058V43.6523Z"/>
<path d="M78.3185 45.707V44.3913C78.0074 44.8861 77.5634 45.2912 77.0317 45.563C76.5001 45.8349 75.9005 45.9653 75.2982 45.9354C74.4526 45.9409 73.624 45.7016 72.9198 45.2503C72.1789 44.78 71.5935 44.1167 71.2372 43.3364C70.8073 42.4257 70.6009 41.4362 70.632 40.4385C70.6178 39.4734 70.8045 38.5191 71.1806 37.6274C71.4888 36.8282 72.0545 36.1458 72.7926 35.6755C73.5109 35.2296 74.3508 34.9959 75.2077 35.0095C75.8411 34.9823 76.4718 35.1155 77.0374 35.3955C77.5295 35.6456 77.9536 35.999 78.2817 36.4313V31.3203H80.1114V45.707H78.3185ZM72.5182 40.4385C72.4306 41.5014 72.7417 42.5589 73.3949 43.4235C73.6381 43.7279 73.952 43.9753 74.3112 44.1466C74.6675 44.3178 75.0634 44.4076 75.4622 44.4076C75.8553 44.4131 76.2455 44.3315 76.599 44.1711C76.9554 44.008 77.2664 43.7714 77.5125 43.4778C78.1403 42.6432 78.4372 41.6211 78.3552 40.5962C78.4457 39.4843 78.1403 38.3751 77.4955 37.4507C77.2495 37.1381 76.9299 36.888 76.5651 36.7167C76.2003 36.5455 75.7959 36.4612 75.3887 36.4666C74.9956 36.4639 74.6053 36.5455 74.249 36.7113C73.8926 36.8744 73.5816 37.1163 73.3412 37.4154C72.719 38.3043 72.4277 39.3701 72.5182 40.4385Z"/>
<path d="M90.3228 42.3159L92.1525 42.5443C91.8952 43.523 91.3098 44.393 90.4868 45.021C89.5847 45.6299 88.4987 45.9398 87.3958 45.8991C86.7001 45.9344 86.0044 45.8256 85.354 45.5837C84.7036 45.3417 84.1153 44.972 83.6261 44.4935C82.6787 43.3952 82.2177 41.9815 82.345 40.5597C82.2432 39.0754 82.7494 37.6128 83.7534 36.4846C84.22 36.0034 84.7884 35.6255 85.419 35.3781C86.0525 35.128 86.7312 35.0138 87.4128 35.0437C88.0774 35.0193 88.7363 35.1307 89.3499 35.3727C89.9608 35.6173 90.5123 35.9816 90.9647 36.4492C91.9149 37.5666 92.3872 38.9938 92.2826 40.4374V40.8941H84.1747C84.1747 41.8592 84.531 42.7917 85.1815 43.5285C85.4756 43.8193 85.8291 44.0504 86.2194 44.2054C86.6096 44.3576 87.0282 44.4337 87.4495 44.4228C88.0689 44.4473 88.6741 44.2679 89.1718 43.9145C89.7091 43.4958 90.105 42.9331 90.3058 42.2996L90.3228 42.3159ZM84.285 39.4532H90.3228C90.3115 38.7546 90.0824 38.0749 89.6639 37.5013C89.3952 37.1751 89.0502 36.9114 88.6571 36.7347C88.2612 36.558 87.8313 36.471 87.3958 36.4846C87.0027 36.4737 86.6125 36.539 86.2476 36.6776C85.8828 36.8162 85.552 37.0255 85.272 37.292C84.6809 37.8765 84.3416 38.654 84.3218 39.4696L84.285 39.4532Z"/>
<path d="M93.7998 42.5639L95.6295 42.2811C95.6833 42.9037 95.983 43.4827 96.4723 43.8987C97.0379 44.2929 97.7308 44.4859 98.4293 44.4424C99.0797 44.4886 99.7273 44.3146 100.259 43.9503C100.451 43.8198 100.61 43.6459 100.717 43.442C100.825 43.2408 100.881 43.0178 100.881 42.7922C100.884 42.6019 100.833 42.417 100.737 42.2539C100.641 42.0908 100.499 41.9549 100.333 41.8597C99.7499 41.5906 99.1363 41.3894 98.5028 41.2617C97.5413 41.0578 96.5996 40.7832 95.6833 40.4379C95.194 40.2204 94.7811 39.8725 94.4955 39.4348C94.2325 39.0161 94.0939 38.5376 94.0911 38.0483C94.0883 37.5997 94.2014 37.1593 94.422 36.7651C94.6397 36.3709 94.9536 36.0338 95.3354 35.781C95.6833 35.5363 96.0736 35.3569 96.4893 35.2536C97.0068 35.1177 97.5441 35.0524 98.0814 35.0606C98.8422 35.0415 99.6 35.1612 100.313 35.4113C100.875 35.588 101.373 35.9169 101.741 36.36C102.08 36.8467 102.301 37.3985 102.383 37.9776L100.55 38.206C100.491 37.7166 100.234 37.2708 99.8376 36.9581C99.3512 36.6319 98.7658 36.4715 98.1719 36.5014C97.5328 36.4416 96.8908 36.583 96.3422 36.9065C96.181 37.0071 96.0453 37.1457 95.9491 37.3061C95.853 37.4692 95.802 37.6514 95.7936 37.8362C95.7907 38.0591 95.8699 38.2766 96.0142 38.4506C96.2036 38.6681 96.4497 38.8312 96.7268 38.9264C96.9106 38.9264 97.4423 39.1358 98.3388 39.3831C99.2635 39.6006 100.174 39.8698 101.065 40.1906C101.551 40.3836 101.97 40.7071 102.273 41.123C102.578 41.5689 102.731 42.099 102.711 42.6318C102.708 43.2218 102.521 43.7954 102.179 44.2847C101.797 44.8257 101.257 45.2498 100.624 45.4972C99.8998 45.7881 99.1221 45.9294 98.3388 45.9186C97.2047 45.9811 96.0849 45.6794 95.1544 45.0568C94.3683 44.4288 93.8649 43.5371 93.7461 42.5639H93.7998Z"/>
<path d="M104.977 31.3203H106.806V33.4109H104.977V31.3203ZM104.977 35.2731H106.806V45.707H104.977V35.2731Z"/>
<path d="M109.261 46.5336L111.093 46.7783C111.108 47.004 111.17 47.2214 111.277 47.4226C111.382 47.6211 111.532 47.7978 111.716 47.9392C112.256 48.2817 112.895 48.4529 113.545 48.4312C114.235 48.4665 114.917 48.2953 115.502 47.9392C115.972 47.6021 116.303 47.1154 116.436 46.569C116.568 45.8214 116.619 45.0602 116.583 44.3017C116.223 44.7339 115.765 45.0819 115.245 45.3211C114.725 45.5577 114.156 45.6773 113.582 45.6719C112.915 45.7018 112.253 45.574 111.651 45.3021C111.048 45.0302 110.522 44.6198 110.123 44.1087C109.295 43.0511 108.865 41.7598 108.896 40.4386C108.885 39.4952 109.077 38.5627 109.465 37.6982C109.795 36.9071 110.361 36.2275 111.093 35.7463C111.832 35.2869 112.7 35.0531 113.582 35.0803C114.193 35.0694 114.798 35.1972 115.347 35.4554C115.895 35.711 116.376 36.0888 116.747 36.5537V35.3086H118.449V44.2853C118.534 45.4788 118.353 46.6777 117.917 47.7978C117.57 48.4883 116.998 49.0483 116.288 49.3963C115.443 49.8231 114.498 50.027 113.545 49.9944C112.434 50.0406 111.337 49.747 110.415 49.1517C110.019 48.858 109.708 48.4747 109.507 48.0343C109.306 47.5966 109.221 47.1154 109.261 46.6397V46.5336ZM110.782 40.3842C110.695 41.4445 110.992 42.4993 111.622 43.3719C111.882 43.6683 112.208 43.9048 112.575 44.0679C112.943 44.231 113.342 44.3153 113.746 44.3153C114.15 44.3153 114.549 44.231 114.914 44.0679C115.282 43.9048 115.607 43.6683 115.867 43.3719C116.512 42.5237 116.817 41.4825 116.727 40.4386C116.809 39.4109 116.498 38.3942 115.85 37.5732C115.596 37.2714 115.27 37.0268 114.903 36.8582C114.535 36.6924 114.134 36.6054 113.726 36.6081C113.333 36.5891 112.94 36.6543 112.575 36.8011C112.211 36.9479 111.885 37.1681 111.622 37.4509C110.994 38.2664 110.689 39.2696 110.763 40.2782L110.782 40.3842Z"/>
<path d="M121.207 45.707V35.2731H122.853V36.7493C123.218 36.1893 123.73 35.7326 124.338 35.4254C124.946 35.1182 125.624 34.9686 126.312 34.9904C126.939 34.9795 127.562 35.0909 128.141 35.3247C128.628 35.5042 129.052 35.8087 129.369 36.2029C129.646 36.5971 129.838 37.0374 129.934 37.5023C130.028 38.0841 130.064 38.674 130.045 39.2612V45.707H128.215V39.3836C128.24 38.8372 128.167 38.288 127.994 37.766C127.842 37.4153 127.578 37.1136 127.245 36.907C126.855 36.6922 126.413 36.5807 125.964 36.5889C125.217 36.578 124.493 36.8363 123.933 37.3093C123.602 37.679 123.353 38.1113 123.206 38.5762C123.059 39.041 123.014 39.5331 123.074 40.017V45.707H121.207Z"/>
<path d="M135.428 43.6523H133.344V45.6559H135.428V43.6523Z"/>
<path d="M144.43 49.6453V35.2748H146.095V36.6259C146.446 36.1393 146.901 35.7342 147.43 35.4325C147.996 35.1524 148.626 35.0192 149.26 35.0464C150.122 35.0247 150.974 35.2585 151.695 35.7125C152.419 36.1964 152.979 36.876 153.304 37.6644C154.048 39.4641 154.048 41.4677 153.304 43.2674C152.936 44.0667 152.334 44.7464 151.565 45.2167C150.852 45.6625 150.021 45.9018 149.169 45.9045C148.598 45.9099 148.033 45.7821 147.521 45.5347C147.06 45.3036 146.655 44.9801 146.333 44.5859V49.6453H144.43ZM146.095 40.5271C146.005 41.5819 146.305 42.6313 146.935 43.4958C147.184 43.7948 147.498 44.0368 147.854 44.2054C148.214 44.3712 148.607 44.4582 149.005 44.4582C149.401 44.4582 149.794 44.3712 150.154 44.2054C150.51 44.0368 150.827 43.7948 151.073 43.4958C151.7 42.5959 151.983 41.5167 151.876 40.4401C151.958 39.3771 151.652 38.3223 151.016 37.4524C150.779 37.1506 150.473 36.9059 150.12 36.7347C149.769 36.5634 149.382 36.4737 148.986 36.4682C148.581 36.4818 148.182 36.5824 147.823 36.7646C147.467 36.9467 147.156 37.2077 146.918 37.5231C146.259 38.412 145.94 39.4913 146.022 40.5787L146.095 40.5271Z"/>
<path d="M156.016 45.7052V35.2713H157.662V36.9215C157.944 36.3642 158.343 35.8694 158.832 35.4643C159.18 35.2278 159.596 35.1055 160.023 35.1137C160.673 35.1354 161.307 35.3284 161.853 35.6737L161.211 37.3075C160.829 37.071 160.385 36.9378 159.93 36.9215C159.542 36.927 159.163 37.0493 158.852 37.275C158.516 37.5142 158.272 37.854 158.156 38.24C157.95 38.9061 157.851 39.5993 157.862 40.2953V45.7052H156.016Z"/>
<path d="M163.004 31.3203H164.834V33.4109H163.004V31.3203ZM163.004 35.2731H164.834V45.707H163.004V35.2731Z"/>
<path d="M167.633 45.7075V35.2736H169.282V36.7471C169.641 36.1898 170.147 35.7304 170.752 35.4232C171.357 35.1133 172.036 34.9664 172.72 34.9909C173.348 34.98 173.97 35.0915 174.55 35.3253C175.036 35.5047 175.461 35.8092 175.777 36.2034C176.055 36.5949 176.247 37.038 176.343 37.5029C176.436 38.0847 176.473 38.6719 176.453 39.2618V45.7075H174.624V39.3842C174.643 38.8377 174.576 38.294 174.423 37.7666C174.273 37.4077 174.001 37.1033 173.654 36.9075C173.266 36.69 172.822 36.5813 172.373 36.5894C171.632 36.5786 170.913 36.8368 170.359 37.3099C170.028 37.6796 169.782 38.1118 169.635 38.5767C169.485 39.0416 169.44 39.5337 169.499 40.0148V45.7075H167.633Z"/>
<path d="M183.241 44.0933L183.515 45.6401C183.057 45.738 182.593 45.7897 182.124 45.7978C181.586 45.8277 181.052 45.7272 180.568 45.4988C180.232 45.3194 179.963 45.0421 179.799 44.7077C179.609 44.028 179.536 43.3212 179.581 42.6171V36.6444H178.227V35.2742H179.581V32.6915L181.411 31.6367V35.2742H183.241V36.6444H181.411V42.7231C181.385 43.0493 181.425 43.3756 181.521 43.6882C181.581 43.835 181.691 43.9601 181.832 44.0389C182.025 44.1259 182.24 44.1694 182.454 44.1639C182.655 44.1639 182.93 44.1639 183.258 44.1639L183.241 44.0933Z"/>
</symbol><symbol viewBox="0 0 97 15" id="logo_mobile" xmlns="http://www.w3.org/2000/svg">
<path d="M6.21753 6.93958H3.17647L2.75277 8.28364H0L3.27869 0.151543H6.21753L9.49621 8.28364H6.67007L6.21753 6.93958ZM5.6523 5.18446L4.71404 2.2598L3.75917 5.18446H5.6523Z"/>
<path d="M8.27587 0.151543H11.0907L13.0581 6.00656L14.9914 0.151543H17.7267L14.4882 8.28364H11.5712L8.27587 0.151543Z"/>
<path d="M18.6543 8.28375V0.151655H23.1761C23.82 0.131265 24.4639 0.198149 25.0867 0.351477C25.5201 0.481969 25.894 0.743768 26.1499 1.09528C26.4304 1.4835 26.5728 1.94429 26.5562 2.41243C26.5658 2.8194 26.4583 3.22148 26.246 3.57707C26.0381 3.90575 25.7437 4.17978 25.3916 4.37307C25.0981 4.52722 24.7792 4.63569 24.4481 4.69442C24.6962 4.76292 24.9321 4.86405 25.1488 4.99536C25.3078 5.12259 25.4519 5.26613 25.5786 5.4219C25.7219 5.58665 25.8485 5.76281 25.9569 5.94876L27.2629 8.30496H24.1764L22.735 5.80685C22.6214 5.5687 22.4563 5.35503 22.2492 5.17968C22.0553 5.05327 21.8238 4.98721 21.5879 4.98965H21.3503V8.28375H18.6543ZM21.3616 3.44577H22.4921C22.7227 3.42701 22.9525 3.39031 23.1761 3.33485C23.3526 3.3063 23.5099 3.21578 23.6173 3.08202C23.7283 2.94827 23.7885 2.78271 23.7868 2.61307C23.7938 2.4997 23.7728 2.38551 23.7256 2.2803C23.6793 2.17591 23.6068 2.08212 23.5151 2.00709C23.2163 1.835 22.8643 1.76079 22.5148 1.79586H21.3276L21.3616 3.44577Z"/>
<path d="M27.54 4.2254C27.505 3.66102 27.5915 3.09581 27.7959 2.56406C27.9995 2.03149 28.3166 1.54215 28.7272 1.12621C29.1693 0.740442 29.6908 0.442747 30.2604 0.250271C30.83 0.0586112 31.4354 -0.0237588 32.04 0.00886426C32.6489 -0.0278366 33.2604 0.049647 33.837 0.237229C34.4136 0.424812 34.9447 0.718415 35.3973 1.1001C35.8061 1.50871 36.1206 1.9899 36.3233 2.51594C36.5251 3.04117 36.6107 3.59984 36.5732 4.15688C36.6072 4.9643 36.4308 5.76765 36.0586 6.49677C35.724 7.09622 35.2068 7.58964 34.5717 7.91506C33.8256 8.28125 32.9905 8.46231 32.1474 8.44192C31.3079 8.47046 30.4727 8.32121 29.7048 8.00477C29.0452 7.69974 28.5001 7.21692 28.1393 6.61829C27.7103 5.8859 27.5024 5.05891 27.54 4.2254ZM30.2307 4.2254C30.1713 4.85094 30.3443 5.47649 30.7226 5.99682C30.8964 6.16483 31.1043 6.29777 31.3341 6.38911C31.5647 6.48045 31.812 6.52776 32.0618 6.52776C32.3125 6.52776 32.5598 6.48045 32.7904 6.38911C33.0202 6.29777 33.2281 6.16483 33.4019 5.99682C33.7802 5.43163 33.9471 4.76693 33.8763 4.10468C33.9305 3.50931 33.7557 2.91558 33.3853 2.42868C33.2159 2.2517 33.0071 2.11305 32.7738 2.02171C32.5397 1.93036 32.2872 1.88959 32.0339 1.90101C31.7875 1.89122 31.542 1.93362 31.3157 2.02496C31.0895 2.11631 30.8885 2.25415 30.7278 2.42868C30.3408 2.95473 30.1652 3.59088 30.2307 4.2254Z"/>
<path d="M38.06 8.28375V0.151655H42.5819C43.2266 0.131265 43.8696 0.198149 44.4925 0.351477C44.9249 0.4836 45.2988 0.744584 45.5557 1.09528C45.8352 1.4835 45.9759 1.9451 45.9567 2.41243C45.968 2.8194 45.8632 3.22148 45.6518 3.57707C45.436 3.90901 45.132 4.18305 44.7703 4.37307C44.4759 4.5264 44.157 4.63488 43.8259 4.69442C44.0732 4.76374 44.3099 4.86487 44.5266 4.99536C44.6856 5.12259 44.8297 5.26613 44.9564 5.4219C45.0996 5.58665 45.2263 5.76281 45.3355 5.94876L46.6407 8.30496H43.5944L42.1529 5.80685C42.0385 5.5687 41.8734 5.35503 41.6663 5.17968C41.4724 5.05327 41.2418 4.98721 41.005 4.98965H40.7674V8.28375H38.06ZM40.7674 3.44577H41.8987C42.139 3.42864 42.3775 3.39194 42.6107 3.33485C42.7863 3.3063 42.9444 3.21578 43.0519 3.08202C43.1628 2.94827 43.2231 2.78271 43.2214 2.61307C43.2292 2.4997 43.2109 2.38715 43.1655 2.28194C43.1209 2.17673 43.051 2.08294 42.961 2.00709C42.6596 1.835 42.3058 1.76079 41.9546 1.79586H40.7674V3.44577Z"/>
<path d="M53.3509 6.93958H50.3098L49.8852 8.28364H47.1159L50.3946 0.151543H53.3334L56.6068 8.28364H53.7807L53.3509 6.93958ZM52.7857 5.18446L51.8247 2.2598L50.8751 5.18446H52.7857Z"/>
<path d="M59.3523 5.67091L60.4426 5.58691C60.4749 5.9425 60.599 6.28667 60.8051 6.58762C61.027 6.87144 61.3311 7.09083 61.6814 7.22051C62.106 7.38281 62.5611 7.46355 63.0206 7.45784C63.4173 7.46437 63.8121 7.40401 64.1852 7.27841C64.4857 7.17483 64.7469 6.99133 64.9373 6.75155C65.0981 6.55092 65.1855 6.30624 65.1855 6.05586C65.1916 5.81364 65.1077 5.57712 64.9478 5.38628C64.7355 5.16607 64.4647 5.00051 64.1624 4.90672C63.6514 4.75013 63.1333 4.61882 62.6083 4.51117C62.023 4.39536 61.4542 4.21837 60.9117 3.9843C60.5352 3.81303 60.2128 3.55042 59.9796 3.225C59.7751 2.92243 59.6694 2.57091 59.6738 2.21369C59.6738 1.80345 59.8057 1.40301 60.053 1.06454C60.3255 0.707323 60.7108 0.438179 61.1555 0.295453C61.6595 0.103793 62.1994 0.00755543 62.7437 0.0108177C63.3238 0.00347755 63.8995 0.102166 64.4394 0.300351C64.9007 0.474069 65.2947 0.773377 65.5698 1.15914C65.8389 1.54002 65.9883 1.9837 65.9997 2.44042L64.8692 2.51953C64.8579 2.29769 64.7993 2.07994 64.6962 1.88012C64.5931 1.6803 64.4481 1.50169 64.2699 1.35407C63.827 1.06372 63.2897 0.924263 62.7498 0.959332C62.2117 0.917738 61.6753 1.04415 61.2227 1.31737C61.0742 1.41524 60.9528 1.5441 60.8698 1.69498C60.7859 1.84505 60.7422 2.01224 60.7422 2.18188C60.7388 2.31727 60.7667 2.45183 60.8252 2.5758C60.8838 2.69977 60.972 2.80988 61.0821 2.89877C61.6132 3.20135 62.2056 3.39872 62.8232 3.47865C63.481 3.60098 64.1258 3.77796 64.7504 4.00551C65.2021 4.17841 65.5934 4.46468 65.8809 4.8325C66.1246 5.17423 66.2504 5.57712 66.2425 5.98736C66.2434 6.42369 66.1054 6.85105 65.8468 7.21479C65.569 7.60627 65.1767 7.91538 64.7163 8.1054C64.1825 8.32479 63.6042 8.43245 63.0206 8.42185C62.3427 8.44224 61.6674 8.33296 61.0367 8.10052C60.5238 7.90396 60.0862 7.56794 59.7821 7.13568C59.4755 6.70017 59.3086 6.19207 59.3008 5.67091H59.3523Z"/>
<path d="M69.0773 8.2844V1.11631H66.2057V0.152298H73.1134V1.11631H70.2305V8.2844H69.0773Z"/>
<path d="M72.8103 4.32602C72.7422 3.17117 73.1598 2.03588 73.9748 1.16403C74.361 0.783159 74.8284 0.483025 75.3482 0.284024C75.868 0.0850237 76.4271 -0.00795067 76.9879 0.00999199C77.7515 -0.00305722 78.5037 0.179629 79.1641 0.536851C79.8045 0.89081 80.3182 1.4136 80.6397 2.03914C80.9926 2.72015 81.1708 3.46967 81.1595 4.22571C81.1734 4.99316 80.9917 5.75164 80.6283 6.43999C80.2946 7.06472 79.7643 7.57935 79.1073 7.91537C78.4635 8.25873 77.7358 8.43978 76.9932 8.44223C76.2174 8.45446 75.4539 8.2628 74.789 7.88927C74.1522 7.52797 73.642 7.00274 73.3196 6.37638C72.9885 5.74431 72.8182 5.05025 72.8217 4.34723L72.8103 4.32602ZM74.0089 4.34723C73.9582 5.19216 74.2623 6.0216 74.8572 6.66101C75.1333 6.93015 75.4644 7.14465 75.8313 7.29064C76.1991 7.43662 76.5939 7.51247 76.9932 7.51247C77.3933 7.51247 77.7882 7.43662 78.1551 7.29064C78.5229 7.14465 78.8549 6.93015 79.1301 6.66101C79.7294 5.97756 80.0264 5.10653 79.9609 4.22571C79.9757 3.63034 79.8525 3.03904 79.5992 2.49179C79.3808 2.01876 79.0147 1.6183 78.5482 1.34346C78.0817 1.07268 77.5427 0.932407 76.9932 0.937301C76.6035 0.930776 76.2165 0.996838 75.854 1.13141C75.4923 1.26679 75.163 1.46743 74.8851 1.7227C74.2893 2.2463 73.9941 3.12468 73.9976 4.35783L74.0089 4.34723Z"/>
<path d="M81.992 8.28439V0.15229H85.8587C86.4597 0.127823 87.0608 0.202853 87.6338 0.373308C88.0418 0.522559 88.3843 0.795776 88.6062 1.14811C88.849 1.51593 88.9792 1.93921 88.9792 2.37147C88.9923 2.9122 88.7774 3.43661 88.3799 3.83053C87.8697 4.27258 87.2145 4.53845 86.52 4.58494C86.7707 4.69015 87.0048 4.82636 87.2154 4.99029C87.5823 5.31244 87.9047 5.67537 88.1764 6.07093L89.6912 8.28439H88.2384L87.1079 6.59289C86.7742 6.10762 86.492 5.73328 86.2771 5.47555C86.1181 5.27492 85.9268 5.09713 85.7119 4.9487C85.5503 4.85083 85.3729 4.77742 85.1868 4.73257C84.9728 4.70402 84.757 4.69179 84.5412 4.69505H83.2072V8.28439H81.992ZM83.1505 3.74164H85.6272C86.0465 3.75795 86.4649 3.70657 86.8651 3.58831C87.1429 3.50268 87.3822 3.33223 87.5439 3.10386C87.6976 2.88611 87.7771 2.63164 87.7754 2.37147C87.7806 2.19204 87.7439 2.01425 87.667 1.84951C87.5893 1.68558 87.4731 1.53959 87.3281 1.42215C86.9184 1.14404 86.4152 1.01354 85.9093 1.05351H83.1505V3.74164Z"/>
<path d="M90.2391 8.2844V0.152298H96.5475V1.11631H91.3923V3.60463H96.2199V4.55804H91.3923V7.32529H96.7449V8.2844H90.2391Z"/>
<path d="M20 13.715V10.5848H20.5084V11.022C20.6124 10.8687 20.7566 10.7414 20.9269 10.6534C21.1077 10.5571 21.313 10.5098 21.5201 10.5163C21.7341 10.509 21.9455 10.5579 22.1308 10.6583C22.2889 10.7512 22.4068 10.8931 22.4645 11.0587C22.5737 10.8956 22.7266 10.7618 22.9074 10.6697C23.0891 10.5767 23.2927 10.5294 23.4988 10.5318C23.6386 10.5237 23.7793 10.5416 23.9112 10.5848C24.0431 10.6281 24.1645 10.6966 24.2676 10.7847C24.4537 11.0041 24.5437 11.2805 24.5218 11.5595V13.715H23.9566V11.7389C23.9653 11.5839 23.9461 11.429 23.8998 11.2805C23.8649 11.1973 23.8011 11.1272 23.719 11.0799C23.6185 11.0196 23.4997 10.9886 23.38 10.9902C23.2752 10.9902 23.1704 11.0098 23.0734 11.0481C22.9764 11.0864 22.8882 11.1419 22.8148 11.212C22.6436 11.4086 22.5606 11.6598 22.5833 11.9126V13.715H22.0181V11.6753C22.0329 11.4901 21.9831 11.3058 21.8765 11.1484C21.8224 11.0864 21.7534 11.0375 21.6739 11.0065C21.5952 10.9755 21.5096 10.9625 21.424 10.969C21.2615 10.9625 21.0999 11.0008 20.961 11.0799C20.8221 11.1582 20.7181 11.2797 20.6666 11.4224C20.5906 11.6361 20.5556 11.8612 20.5652 12.0863V13.715H20Z"/>
<path d="M27.6694 12.6985L28.2346 12.767C28.1604 13.0622 27.9786 13.3248 27.7209 13.51C27.4422 13.6935 27.1059 13.7864 26.7652 13.7734C26.5503 13.7832 26.3354 13.7506 26.1353 13.678C25.9344 13.6046 25.7527 13.4945 25.6007 13.3517C25.2984 13.0255 25.1446 12.6022 25.1708 12.1716C25.1542 11.7214 25.3263 11.2826 25.6513 10.9491C25.7955 10.8055 25.9711 10.6922 26.1668 10.6179C26.3616 10.5429 26.5713 10.5086 26.7818 10.5168C26.9862 10.5095 27.1889 10.5429 27.3776 10.6163C27.5654 10.6889 27.7349 10.799 27.8729 10.9384C28.1673 11.2737 28.3115 11.7026 28.2748 12.1349C28.2748 12.1659 28.2748 12.2083 28.2748 12.2719H25.7763C25.7763 12.5614 25.8863 12.8412 26.0873 13.0622C26.1772 13.1503 26.2865 13.2196 26.407 13.2661C26.5276 13.3118 26.6577 13.3346 26.7879 13.3313C26.9862 13.346 27.1845 13.2963 27.3479 13.1886C27.5113 13.0614 27.6327 12.8934 27.6982 12.7034L27.6694 12.6985ZM25.8322 11.8503H27.7035C27.6973 11.6374 27.6222 11.4319 27.4885 11.2598C27.4056 11.1595 27.2981 11.0795 27.1749 11.0257C27.0526 10.9719 26.9181 10.945 26.7818 10.9491C26.6604 10.9458 26.5389 10.9654 26.4254 11.007C26.3118 11.0486 26.2078 11.1113 26.1205 11.1913C25.9396 11.3674 25.8348 11.6007 25.8269 11.8446L25.8322 11.8503Z"/>
<path d="M28.957 13.7166V10.5864H29.4664V11.0815C29.552 10.9135 29.6751 10.7642 29.828 10.6443C29.9337 10.5742 30.0604 10.5375 30.1897 10.5391C30.3915 10.5456 30.5863 10.6035 30.7549 10.7071L30.5575 11.1973C30.4422 11.1288 30.3094 11.0888 30.1731 11.0815C30.0526 11.0831 29.9355 11.1198 29.8394 11.1867C29.7363 11.2585 29.662 11.3612 29.6297 11.477C29.5642 11.6768 29.5319 11.8848 29.5336 12.0936V13.7166H28.957Z"/>
<path d="M33.5674 12.5594L34.1327 12.6279C34.0942 12.9509 33.9291 13.2494 33.6696 13.4655C33.4119 13.6727 33.0817 13.7812 32.7419 13.7714C32.5374 13.7787 32.333 13.7453 32.1426 13.6735C31.953 13.6017 31.7817 13.4933 31.6402 13.3554C31.3266 13.017 31.1685 12.5782 31.199 12.1329C31.1929 11.8287 31.2541 11.5277 31.3799 11.2472C31.4917 11.0017 31.6918 10.8011 31.9451 10.6779C32.1889 10.5531 32.464 10.4895 32.7419 10.4936C33.0607 10.4797 33.3735 10.5694 33.6294 10.7464C33.8706 10.9307 34.0296 11.1917 34.0759 11.4788L33.5106 11.5579C33.4739 11.376 33.3744 11.2096 33.2285 11.0841C33.0948 10.9772 32.9236 10.9209 32.748 10.9258C32.6161 10.9209 32.4859 10.9438 32.3653 10.9935C32.2448 11.0425 32.1382 11.1167 32.0526 11.2105C31.8447 11.4763 31.7477 11.8042 31.7809 12.1329C31.7503 12.4559 31.842 12.7788 32.0412 13.0439C32.1225 13.1369 32.2255 13.2103 32.3417 13.2592C32.4588 13.309 32.5855 13.3326 32.7139 13.3285C32.9218 13.335 33.1236 13.2674 33.2791 13.1393C33.4434 12.9803 33.543 12.7739 33.5622 12.5545L33.5674 12.5594Z"/>
<path d="M34.8555 13.7145V9.39844H35.4207V10.9423C35.543 10.8061 35.6959 10.6968 35.8689 10.6226C36.0418 10.5492 36.2305 10.5125 36.421 10.5158C36.6464 10.5101 36.8692 10.5549 37.0718 10.6471C37.2413 10.7319 37.3785 10.8648 37.4615 11.0263C37.5523 11.2506 37.5925 11.4888 37.5803 11.7277V13.7145H37.015V11.7277C37.0351 11.5189 36.9687 11.3118 36.8281 11.1478C36.7599 11.0859 36.6778 11.0378 36.5887 11.0068C36.4996 10.9758 36.4035 10.9635 36.3083 10.9684C36.1406 10.9652 35.9746 11.0035 35.8278 11.0793C35.6845 11.1536 35.5736 11.2702 35.5116 11.4113C35.4399 11.5956 35.4067 11.7905 35.4155 11.9863V13.7145H34.8555Z"/>
<path d="M39.2463 13.0977H38.6016V13.6987H39.2463V13.0977Z"/>
<path d="M44.1957 13.7145V13.3197C44.0996 13.4682 43.9625 13.5897 43.7983 13.6712C43.634 13.7528 43.4488 13.7919 43.2627 13.783C43.0015 13.7846 42.7455 13.7128 42.528 13.5774C42.2991 13.4364 42.1183 13.2373 42.0082 13.0033C41.8754 12.7301 41.8116 12.4332 41.8213 12.1339C41.8169 11.8444 41.8745 11.5581 41.9907 11.2906C42.086 11.0508 42.2607 10.8461 42.4887 10.705C42.7106 10.5712 42.9701 10.5011 43.2348 10.5052C43.4305 10.497 43.6253 10.537 43.8 10.621C43.952 10.696 44.083 10.802 44.1844 10.9317V9.39844H44.7496V13.7145H44.1957ZM42.404 12.1339C42.3769 12.4528 42.473 12.77 42.6748 13.0294C42.7499 13.1207 42.8469 13.1949 42.9578 13.2463C43.0679 13.2977 43.1902 13.3246 43.3134 13.3246C43.4348 13.3263 43.5554 13.3018 43.6646 13.2537C43.7747 13.2047 43.8708 13.1338 43.9468 13.0457C44.1407 12.7953 44.2324 12.4887 44.2071 12.1812C44.2351 11.8476 44.1407 11.5149 43.9415 11.2376C43.8655 11.1438 43.7668 11.0687 43.6541 11.0174C43.5414 10.966 43.4165 10.9407 43.2907 10.9423C43.1692 10.9415 43.0487 10.966 42.9386 11.0157C42.8285 11.0647 42.7324 11.1372 42.6582 11.227C42.466 11.4936 42.376 11.8134 42.404 12.1339Z"/>
<path d="M47.9006 12.6987L48.4658 12.7672C48.3863 13.0608 48.2055 13.3218 47.9513 13.5102C47.6726 13.6929 47.3371 13.7859 46.9964 13.7736C46.7815 13.7842 46.5666 13.7516 46.3656 13.679C46.1647 13.6064 45.983 13.4955 45.8319 13.352C45.5392 13.0225 45.3968 12.5984 45.4361 12.1718C45.4047 11.7265 45.561 11.2877 45.8712 10.9493C46.0153 10.8049 46.1909 10.6916 46.3857 10.6173C46.5814 10.5423 46.7911 10.5081 47.0016 10.517C47.2069 10.5097 47.4105 10.5431 47.6001 10.6157C47.7888 10.6891 47.9591 10.7984 48.0989 10.9387C48.3924 11.2739 48.5383 11.7021 48.506 12.1351V12.2721H46.0013C46.0013 12.5617 46.1114 12.8414 46.3123 13.0624C46.4032 13.1497 46.5124 13.219 46.633 13.2655C46.7535 13.3112 46.8828 13.334 47.013 13.3308C47.2043 13.3381 47.3913 13.2843 47.545 13.1782C47.711 13.0526 47.8333 12.8838 47.8953 12.6938L47.9006 12.6987ZM46.0354 11.8399H47.9006C47.8971 11.6303 47.8263 11.4264 47.697 11.2543C47.614 11.1564 47.5075 11.0773 47.386 11.0243C47.2637 10.9713 47.1309 10.9452 46.9964 10.9493C46.875 10.946 46.7544 10.9656 46.6417 11.0072C46.529 11.0488 46.4268 11.1116 46.3403 11.1915C46.1577 11.3668 46.0529 11.6001 46.0468 11.8448L46.0354 11.8399Z"/>
<path d="M48.9775 12.7711L49.5428 12.6863C49.5594 12.8731 49.652 13.0468 49.8031 13.1716C49.9778 13.2898 50.1919 13.3477 50.4077 13.3347C50.6086 13.3485 50.8086 13.2963 50.9729 13.187C51.0323 13.1479 51.0812 13.0957 51.1144 13.0345C51.1476 12.9742 51.1651 12.9073 51.1651 12.8396C51.1659 12.7825 51.1502 12.7271 51.1205 12.6781C51.0908 12.6292 51.0471 12.5884 50.9956 12.5599C50.8156 12.4791 50.6261 12.4188 50.4304 12.3805C50.1333 12.3193 49.8424 12.2369 49.5594 12.1333C49.4082 12.0681 49.2807 11.9637 49.1924 11.8324C49.1112 11.7068 49.0684 11.5632 49.0675 11.4164C49.0666 11.2819 49.1016 11.1497 49.1697 11.0315C49.237 10.9132 49.334 10.8121 49.4519 10.7362C49.5594 10.6628 49.6799 10.609 49.8084 10.578C49.9682 10.5373 50.1342 10.5177 50.3002 10.5201C50.5352 10.5144 50.7693 10.5503 50.9895 10.6253C51.1633 10.6783 51.3171 10.777 51.4307 10.91C51.5355 11.056 51.6036 11.2215 51.629 11.3952L51.0629 11.4637C51.0445 11.3169 50.965 11.1832 50.8427 11.0894C50.6924 10.9915 50.5116 10.9434 50.3281 10.9524C50.1307 10.9344 49.9324 10.9768 49.7629 11.0739C49.7131 11.1041 49.6712 11.1457 49.6415 11.1938C49.6118 11.2427 49.5961 11.2974 49.5934 11.3528C49.5926 11.4197 49.617 11.4849 49.6616 11.5371C49.7201 11.6024 49.7961 11.6513 49.8817 11.6799C49.9385 11.6799 50.1028 11.7427 50.3797 11.8169C50.6654 11.8821 50.9467 11.9629 51.2219 12.0591C51.3721 12.117 51.5014 12.2141 51.5949 12.3389C51.6892 12.4726 51.7364 12.6317 51.7303 12.7915C51.7294 12.9685 51.6718 13.1406 51.5661 13.2874C51.4481 13.4497 51.2813 13.5769 51.0856 13.6511C50.8619 13.7384 50.6217 13.7808 50.3797 13.7775C50.0294 13.7963 49.6834 13.7058 49.396 13.519C49.1531 13.3306 48.9976 13.0631 48.9609 12.7711H48.9775Z"/>
<path d="M52.4297 9.39844H52.9949V10.0256H52.4297V9.39844ZM52.4297 10.5843H52.9949V13.7145H52.4297V10.5843Z"/>
<path d="M53.7538 13.9601L54.3199 14.0335C54.3243 14.1012 54.3435 14.1664 54.3767 14.2268C54.409 14.2863 54.4553 14.3393 54.5121 14.3818C54.679 14.4845 54.8764 14.5359 55.0773 14.5294C55.2905 14.54 55.501 14.4886 55.6819 14.3818C55.8269 14.2806 55.9291 14.1346 55.9702 13.9707C56.0112 13.7464 56.027 13.518 56.0156 13.2905C55.9046 13.4202 55.7631 13.5246 55.6024 13.5963C55.4416 13.6673 55.266 13.7032 55.0887 13.7016C54.8825 13.7105 54.6781 13.6722 54.492 13.5906C54.3059 13.5091 54.1434 13.3859 54.0203 13.2326C53.7643 12.9153 53.6315 12.5279 53.6411 12.1316C53.6376 11.8486 53.697 11.5688 53.8167 11.3095C53.9189 11.0721 54.0936 10.8682 54.3199 10.7239C54.5479 10.5861 54.8161 10.5159 55.0887 10.5241C55.2774 10.5208 55.4643 10.5591 55.6338 10.6366C55.8033 10.7133 55.9518 10.8266 56.0663 10.9661V10.5926H56.5922V13.2856C56.6184 13.6436 56.5625 14.0033 56.4279 14.3393C56.3205 14.5465 56.144 14.7145 55.9247 14.8189C55.6635 14.9469 55.3717 15.0081 55.0773 14.9983C54.734 15.0122 54.395 14.9241 54.1102 14.7455C53.9879 14.6574 53.8918 14.5424 53.8298 14.4103C53.7678 14.279 53.7416 14.1346 53.7538 13.9919V13.9601ZM54.2238 12.1153C54.1967 12.4333 54.2885 12.7498 54.4833 13.0116C54.5636 13.1005 54.6641 13.1714 54.7777 13.2204C54.8913 13.2693 55.0144 13.2946 55.1394 13.2946C55.2643 13.2946 55.3875 13.2693 55.5002 13.2204C55.6137 13.1714 55.7142 13.1005 55.7946 13.0116C55.9938 12.7571 56.0881 12.4448 56.0602 12.1316C56.0855 11.8233 55.9894 11.5183 55.7893 11.272C55.7107 11.1814 55.6102 11.108 55.4967 11.0575C55.3831 11.0077 55.259 10.9816 55.1332 10.9824C55.0118 10.9767 54.8904 10.9963 54.7777 11.0403C54.665 11.0844 54.5645 11.1504 54.4833 11.2353C54.2893 11.4799 54.195 11.7809 54.2177 12.0834L54.2238 12.1153Z"/>
<path d="M57.4453 13.7156V10.5854H57.9538V11.0283C58.0665 10.8603 58.2246 10.7233 58.4124 10.6311C58.6002 10.539 58.8099 10.4941 59.0222 10.5006C59.2161 10.4974 59.4083 10.5308 59.5874 10.6009C59.7377 10.6548 59.8687 10.7461 59.9666 10.8644C60.0522 10.9826 60.1116 11.1147 60.1413 11.2542C60.1701 11.4287 60.1815 11.6057 60.1754 11.7819V13.7156H59.6101V11.8186C59.618 11.6547 59.5953 11.4899 59.542 11.3333C59.4948 11.2281 59.4136 11.1376 59.3105 11.0756C59.1899 11.0112 59.0536 10.9777 58.9147 10.9802C58.6841 10.9769 58.4605 11.0544 58.2875 11.1963C58.1853 11.3072 58.1084 11.4369 58.063 11.5764C58.0175 11.7158 58.0036 11.8634 58.0219 12.0086V13.7156H57.4453Z"/>
<path d="M61.8353 13.0977H61.1914V13.6987H61.8353V13.0977Z"/>
<path d="M64.6172 14.8963V10.5852H65.1317V10.9905C65.2401 10.8445 65.3807 10.723 65.5441 10.6325C65.7188 10.5485 65.9136 10.5085 66.1093 10.5167C66.3758 10.5101 66.6387 10.5803 66.8615 10.7165C67.0852 10.8616 67.2581 11.0655 67.3586 11.3021C67.5884 11.842 67.5884 12.443 67.3586 12.983C67.245 13.2227 67.0589 13.4266 66.8213 13.5677C66.6012 13.7015 66.3443 13.7733 66.0814 13.7741C65.9049 13.7757 65.7302 13.7374 65.5721 13.6632C65.4297 13.5938 65.3047 13.4968 65.2051 13.3785V14.8963H64.6172ZM65.1317 12.1609C65.1038 12.4773 65.1964 12.7921 65.3912 13.0515C65.4681 13.1412 65.5651 13.2138 65.6751 13.2643C65.7861 13.3141 65.9075 13.3402 66.0307 13.3402C66.153 13.3402 66.2744 13.3141 66.3854 13.2643C66.4955 13.2138 66.5933 13.1412 66.6693 13.0515C66.8633 12.7815 66.9506 12.4577 66.9174 12.1348C66.9428 11.8159 66.8484 11.4994 66.6518 11.2384C66.5785 11.1479 66.4841 11.0745 66.3749 11.0231C66.2666 10.9718 66.1469 10.9448 66.0246 10.9432C65.8997 10.9473 65.7765 10.9775 65.6655 11.0321C65.5555 11.0867 65.4594 11.165 65.386 11.2597C65.1824 11.5263 65.0837 11.8501 65.109 12.1764L65.1317 12.1609Z"/>
<path d="M68.1953 13.7166V10.5865H68.7038V11.0815C68.7911 10.9143 68.9143 10.7659 69.0654 10.6444C69.1729 10.5734 69.3013 10.5367 69.4332 10.5392C69.6342 10.5457 69.8299 10.6036 69.9985 10.7072L69.8001 11.1973C69.6822 11.1264 69.545 11.0864 69.4044 11.0815C69.2847 11.0832 69.1676 11.1199 69.0715 11.1876C68.9676 11.2593 68.8925 11.3613 68.8566 11.4771C68.7929 11.6769 68.7623 11.8849 68.7658 12.0937V13.7166H68.1953Z"/>
<path d="M70.3555 9.39844H70.9207V10.0256H70.3555V9.39844ZM70.3555 10.5843H70.9207V13.7145H70.3555V10.5843Z"/>
<path d="M71.7852 13.7158V10.5856H72.2945V11.0277C72.4054 10.8605 72.5618 10.7226 72.7488 10.6305C72.9357 10.5375 73.1454 10.4934 73.3568 10.5008C73.5507 10.4975 73.7429 10.531 73.922 10.6011C74.0723 10.6549 74.2033 10.7463 74.3012 10.8645C74.3868 10.982 74.4462 11.1149 74.4759 11.2544C74.5047 11.4289 74.5161 11.6051 74.51 11.7821V13.7158H73.9447V11.8188C73.9508 11.6548 73.9299 11.4917 73.8827 11.3335C73.8364 11.2258 73.7525 11.1345 73.6451 11.0758C73.5254 11.0105 73.3882 10.9779 73.2493 10.9803C73.0205 10.9771 72.7986 11.0546 72.6273 11.1965C72.5251 11.3074 72.4491 11.4371 72.4037 11.5765C72.3574 11.716 72.3434 11.8636 72.3617 12.008V13.7158H71.7852Z"/>
<path d="M76.6075 13.2292L76.6923 13.6932C76.5507 13.7226 76.4075 13.7381 76.2624 13.7405C76.0965 13.7495 75.9313 13.7193 75.782 13.6508C75.678 13.597 75.595 13.5138 75.5443 13.4135C75.4858 13.2096 75.4631 12.9975 75.4771 12.7863V10.9945H75.0586V10.5834H75.4771V9.80863L76.0423 9.49219V10.5834H76.6075V10.9945H76.0423V12.8181C76.0344 12.916 76.0467 13.0138 76.0764 13.1076C76.0947 13.1517 76.1288 13.1892 76.1725 13.2128C76.2319 13.2389 76.2983 13.252 76.3647 13.2504C76.4267 13.2504 76.5114 13.2504 76.6128 13.2504L76.6075 13.2292Z"/>
</symbol><symbol viewBox="0 0 26 26" id="phone" xmlns="http://www.w3.org/2000/svg">
<path d="M16.8048 3.19523C16.419 3.58103 14.7986 6.95034 14.7986 7.77337C14.7986 8.59641 16.8105 9.72231 16.9334 10.1139C17.0562 10.5054 16.419 12.0172 14.2328 14.2033C12.0466 16.3895 10.5827 16.9789 10.1948 16.8525C9.80677 16.7261 8.31721 14.6663 7.90569 14.6663C7.49417 14.6663 3.61047 16.3895 3.22467 16.7753C2.83887 17.1611 2.85837 18.2745 3.26325 19.0773C3.5543 19.6543 4.43351 20.2475 4.43351 20.2475C4.43351 20.2475 6.61444 21.5659 8.20147 21.2377C11.1351 20.6312 13.8735 19.0893 16.4961 16.4667C19.1187 13.8441 20.6606 11.1057 21.2672 8.17203C21.5953 6.585 20.2769 4.40407 20.2769 4.40407C20.2769 4.40407 19.6838 3.52487 19.1067 3.23381C18.3039 2.82893 17.1906 2.80944 16.8048 3.19523Z"/>
</symbol><symbol viewBox="0 0 16 17" id="portfolio" xmlns="http://www.w3.org/2000/svg">
<path fill-rule="evenodd" clip-rule="evenodd" d="M6 1.73828C4.89543 1.73828 4 2.63371 4 3.73828V4.73828H5V3.73828C5 3.186 5.44772 2.73828 6 2.73828H10C10.5523 2.73828 11 3.186 11 3.73828V4.73828H12V3.73828C12 2.63371 11.1046 1.73828 10 1.73828H6Z"/>
<path fill-rule="evenodd" clip-rule="evenodd" d="M6 8.73828H1C0.447715 8.73828 0 9.186 0 9.73828V13.7383C0 14.8429 0.895431 15.7383 2 15.7383H14C15.1046 15.7383 16 14.8429 16 13.7383V9.73828C16 9.186 15.5523 8.73828 15 8.73828H10C10 9.29057 9.55229 9.73828 9 9.73828H7C6.44772 9.73828 6 9.29057 6 8.73828Z"/>
<path fill-rule="evenodd" clip-rule="evenodd" d="M2 4.73828C0.895431 4.73828 0 5.63371 0 6.73828V7.23828C0 7.51442 0.223858 7.73828 0.5 7.73828H6C6 7.186 6.44772 6.73828 7 6.73828H9C9.55229 6.73828 10 7.186 10 7.73828H15.5C15.7761 7.73828 16 7.51442 16 7.23828V6.73828C16 5.63371 15.1046 4.73828 14 4.73828H2Z"/>
<path d="M7 8.23828C7 7.96214 7.22386 7.73828 7.5 7.73828H8.5C8.77614 7.73828 9 7.96214 9 8.23828C9 8.51442 8.77614 8.73828 8.5 8.73828H7.5C7.22386 8.73828 7 8.51442 7 8.23828Z"/>
</symbol><symbol viewBox="0 0 16 16" id="search" xmlns="http://www.w3.org/2000/svg">
<path fill-rule="evenodd" clip-rule="evenodd" d="M10.631 11.6597C9.51128 12.5554 8.09092 13.091 6.54545 13.091C2.9305 13.091 0 10.1605 0 6.54552C0 2.93053 2.9305 0 6.54545 0C10.1604 0 13.0909 2.93053 13.0909 6.54552C13.0909 8.091 12.5553 9.51138 11.6596 10.6312L15.3244 14.296L14.2959 15.3246L10.631 11.6597ZM11.6364 6.54552C11.6364 9.35718 9.35709 11.6365 6.54545 11.6365C3.73382 11.6365 1.45455 9.35718 1.45455 6.54552C1.45455 3.73386 3.73382 1.45456 6.54545 1.45456C9.35709 1.45456 11.6364 3.73386 11.6364 6.54552Z"/>
</symbol><symbol viewBox="0 0 11 6" id="select" xmlns="http://www.w3.org/2000/svg">
<path d="M0.152782 1.1435C-0.0509271 0.958556 -0.0509271 0.658642 0.152782 0.473665L0.521556 0.138732C0.725186 -0.0462447 1.05539 -0.0462446 1.2591 0.138732L5.49999 3.99044L9.74095 0.138733C9.94458 -0.0462443 10.2748 -0.0462442 10.4785 0.138733L10.8472 0.473659C11.0509 0.658635 11.0509 0.958556 10.8472 1.1435C7.712 3.99044 5.49999 6 5.49999 6C5.49999 6 4.93474 5.48664 0.152782 1.1435Z"/>
</symbol><symbol viewBox="0 0 16 17" id="services" xmlns="http://www.w3.org/2000/svg">
<g clip-path="url(#pclip0_3699_23413)">
<path d="M5.26933 7.83629L7.104 5.97904L5.90933 4.76222L5.568 5.10379C5.41156 5.26034 5.21614 5.34231 4.98176 5.34971C4.74738 5.35711 4.54457 5.27514 4.37333 5.10379C4.2021 4.93244 4.11676 4.72978 4.11733 4.4958C4.1179 4.26183 4.20324 4.05889 4.37333 3.88697L4.69333 3.56675L3.73333 2.60611L1.87733 4.46336L5.26933 7.83629ZM12.2667 14.8597L14.1227 13.0024L13.1627 12.0418L12.8213 12.362C12.6507 12.5328 12.4516 12.6182 12.224 12.6182C11.9964 12.6182 11.7973 12.5328 11.6267 12.362C11.456 12.1912 11.3707 11.992 11.3707 11.7643C11.3707 11.5366 11.456 11.3373 11.6267 11.1665L11.9467 10.825L10.7307 9.6295L8.896 11.4654L12.2667 14.8597ZM11.6053 3.97236L12.8 5.16783L13.9947 3.97236L12.7787 2.75554L11.6053 3.97236ZM1.17333 16.4181C0.931556 16.4181 0.729031 16.3361 0.56576 16.1721C0.402489 16.0082 0.320569 15.8055 0.32 15.5642V13.1519C0.32 13.038 0.341333 12.9279 0.384 12.8214C0.426667 12.715 0.490667 12.6187 0.576 12.5328L4.05333 9.05311L0.362667 5.35996C0.120889 5.11802 0 4.81915 0 4.46336C0 4.10756 0.120889 3.80869 0.362667 3.56675L2.83733 1.09042C3.07911 0.84848 3.37778 0.73121 3.73333 0.738611C4.08889 0.746011 4.38756 0.870397 4.62933 1.11177L8.34133 4.80492L11.5627 1.56007C11.7333 1.38929 11.9253 1.2612 12.1387 1.17581C12.352 1.09042 12.5724 1.04773 12.8 1.04773C13.0276 1.04773 13.248 1.09042 13.4613 1.17581C13.6747 1.2612 13.8667 1.38929 14.0373 1.56007L15.168 2.71285C15.3387 2.88363 15.4667 3.07576 15.552 3.28923C15.6373 3.50271 15.68 3.7233 15.68 3.95101C15.68 4.17872 15.6373 4.3959 15.552 4.60254C15.4667 4.80919 15.3387 4.99762 15.168 5.16783L11.9467 8.41268L15.6373 12.1058C15.8791 12.3478 16 12.6466 16 13.0024C16 13.3582 15.8791 13.6571 15.6373 13.899L13.1627 16.3754C12.9209 16.6173 12.6222 16.7383 12.2667 16.7383C11.9111 16.7383 11.6124 16.6173 11.3707 16.3754L7.68 12.6822L4.20267 16.1619C4.11733 16.2473 4.02148 16.3113 3.91509 16.354C3.80871 16.3967 3.69835 16.4181 3.584 16.4181H1.17333Z"/>
</g>
<defs>
<clipPath id="pclip0_3699_23413">
<rect width="16" height="16" transform="translate(0 0.738281)"/>
</clipPath>
</defs>
</symbol><symbol viewBox="0 0 12 22" id="swiper-arrow" xmlns="http://www.w3.org/2000/svg">
<path d="M2.28699 21.6944C1.91711 22.1019 1.31729 22.1019 0.947332 21.6944L0.277465 20.9569C-0.0924884 20.5496 -0.0924884 19.8892 0.277465 19.4818L7.98088 11L0.277465 2.51809C-0.0924884 2.11083 -0.0924884 1.45039 0.277465 1.04305L0.947317 0.305505C1.31727 -0.101835 1.91711 -0.101835 2.28699 0.305505C7.98088 6.576 12 11 12 11C12 11 10.9733 12.1305 2.28699 21.6944Z"/>
</symbol><symbol viewBox="0 0 26 26" id="telegram" xmlns="http://www.w3.org/2000/svg">
<path fill-rule="evenodd" clip-rule="evenodd" d="M23.3068 2.15051C23.6265 2.01724 23.9764 1.97128 24.3201 2.0174C24.6638 2.06353 24.9887 2.20005 25.2611 2.41277C25.5334 2.62549 25.7432 2.90663 25.8687 3.22691C25.9941 3.5472 26.0306 3.89493 25.9743 4.23391L23.0404 21.8608C22.7558 23.5611 20.8723 24.5362 19.2979 23.6893C17.981 22.9807 16.0251 21.889 14.2658 20.75C13.3861 20.1798 10.6916 18.3539 11.0227 17.0547C11.3073 15.9438 15.8349 11.7693 18.4222 9.28739C19.4377 8.31231 18.9745 7.74982 17.7754 8.64673C14.7975 10.8736 10.0163 14.2601 8.43549 15.2134C7.04098 16.054 6.31397 16.1975 5.44466 16.054C3.8587 15.7926 2.38786 15.3877 1.18739 14.8944C-0.434798 14.2281 -0.355888 12.0191 1.1861 11.3759L23.3068 2.15051Z"/>
</symbol><symbol viewBox="0 0 40 40" id="telegram2" xmlns="http://www.w3.org/2000/svg">
<g clip-path="url(#sclip0_6029_11917)">
<path d="M20 0C31.0458 0 40 8.95417 40 20C40 31.0458 31.0458 40 20 40C8.95417 40 0 31.0458 0 20C0 8.95417 8.95417 0 20 0ZM26.8992 28.1525C27.2667 27.0242 28.9908 15.775 29.2033 13.5583C29.2675 12.8867 29.0558 12.4408 28.64 12.2417C28.1375 12 27.3933 12.1208 26.5292 12.4325C25.345 12.8592 10.2042 19.2883 9.32917 19.66C8.5 20.0125 7.715 20.3967 7.715 20.9533C7.715 21.345 7.9475 21.565 8.5875 21.7933C9.25333 22.0308 10.9308 22.5392 11.9217 22.8125C12.8758 23.0758 13.9617 22.8475 14.57 22.4692C15.215 22.0683 22.6617 17.0858 23.1958 16.6492C23.73 16.2125 24.1558 16.7717 23.7192 17.2092C23.2825 17.6458 18.1717 22.6067 17.4975 23.2933C16.6792 24.1275 17.26 24.9917 17.8092 25.3375C18.4358 25.7325 22.945 28.7567 23.6242 29.2417C24.3033 29.7267 24.9917 29.9467 25.6225 29.9467C26.2533 29.9467 26.585 29.1167 26.8992 28.1525Z"/>
</g>
<defs>
<clipPath id="sclip0_6029_11917">
<rect width="40" height="40"/>
</clipPath>
</defs>
</symbol><symbol viewBox="0 0 26 26" id="vk" xmlns="http://www.w3.org/2000/svg">
<path d="M13 0C5.83191 0 0 5.83191 0 13C0 20.1681 5.83191 26 13 26C20.1687 26 26 20.1681 26 13C26 5.83191 20.1687 0 13 0ZM18.6369 15.5633C19.9013 16.6858 20.1641 17.0865 20.2071 17.1549C20.731 17.9858 19.626 18.087 19.626 18.087H17.2973C17.2973 18.087 16.7304 18.0932 16.246 17.7721C15.4564 17.255 14.6295 16.2523 14.0485 16.4263C13.5607 16.5722 13.5652 17.2312 13.5652 17.7947C13.5652 17.9965 13.3917 18.087 13 18.087C12.6083 18.087 12.4455 18.087 12.272 18.087C10.9963 18.087 9.61209 17.6574 8.23126 16.2144C6.27787 14.1745 4.5647 10.0654 4.5647 10.0654C4.5647 10.0654 4.46352 9.85852 4.57374 9.73248C4.69865 9.59117 5.03835 9.60926 5.03835 9.60926L7.29639 9.6087C7.29639 9.6087 7.50891 9.64883 7.66152 9.75622C7.78757 9.84439 7.85765 10.0128 7.85765 10.0128C7.85765 10.0128 8.23691 11.2653 8.72017 12.064C9.66409 13.6229 10.1033 13.6624 10.4237 13.4946C10.8917 13.2515 10.7391 11.5943 10.7391 11.5943C10.7391 11.5943 10.76 10.8827 10.5159 10.5656C10.3277 10.3203 9.96761 10.1897 9.81048 10.1694C9.6833 10.153 9.89583 9.9303 10.1666 9.80313C10.5283 9.64204 11.0206 9.60078 11.8696 9.6087C12.5303 9.61491 12.7208 9.65448 12.9785 9.71383C13.758 9.89357 13.5652 10.3678 13.5652 12.0329C13.5652 12.5665 13.4917 13.3165 13.8942 13.5652C14.0677 13.6726 14.6623 13.8037 15.7204 12.0855C16.2229 11.2704 16.6225 9.91843 16.6225 9.91843C16.6225 9.91843 16.705 9.76978 16.8333 9.6963C16.9644 9.62113 16.9605 9.62283 17.1402 9.62283C17.32 9.62283 19.1224 9.6087 19.5181 9.6087C19.9132 9.6087 20.284 9.60417 20.3478 9.83591C20.4394 10.1688 20.0562 11.3094 19.0851 12.5473C17.4895 14.5787 17.3126 14.3887 18.6369 15.5633Z"/>
</symbol><symbol viewBox="0 0 26 26" id="whatsapp" xmlns="http://www.w3.org/2000/svg">
<path d="M22.2111 3.78306C21.0131 2.5794 19.5863 1.62502 18.0138 0.975539C16.4414 0.326055 14.7548 -0.0055421 13.0523 7.00635e-05C5.91859 7.00635e-05 0.104523 5.78505 0.104523 12.883C0.104523 15.158 0.705528 17.368 1.82915 19.318L0 26L6.8593 24.206C8.75377 25.233 10.8834 25.779 13.0523 25.779C20.1859 25.779 26 19.994 26 12.896C26 9.45105 24.6543 6.21405 22.2111 3.78306ZM13.0523 23.595C11.1186 23.595 9.22412 23.075 7.56482 22.1L7.17286 21.866L3.09648 22.932L4.1809 18.98L3.9196 18.577C2.84504 16.8702 2.27458 14.8971 2.27337 12.883C2.27337 6.98105 7.10754 2.17106 13.0392 2.17106C15.9136 2.17106 18.6181 3.28906 20.6432 5.31706C21.6461 6.31008 22.4409 7.49136 22.9814 8.79237C23.5219 10.0934 23.7974 11.4883 23.792 12.896C23.8181 18.798 18.9839 23.595 13.0523 23.595ZM18.9578 15.587C18.6312 15.431 17.0372 14.651 16.7497 14.534C16.4492 14.43 16.2402 14.378 16.0181 14.69C15.796 15.015 15.1819 15.743 14.999 15.951C14.8161 16.172 14.6201 16.198 14.2935 16.029C13.9668 15.873 12.9216 15.522 11.6935 14.43C10.7266 13.572 10.0864 12.519 9.89045 12.194C9.70754 11.869 9.86432 11.7 10.0342 11.531C10.1779 11.388 10.3608 11.154 10.5176 10.972C10.6744 10.79 10.7397 10.647 10.8442 10.439C10.9487 10.218 10.8965 10.036 10.8181 9.88004C10.7397 9.72404 10.0864 8.13805 9.82512 7.48805C9.56382 6.86405 9.28945 6.94205 9.09347 6.92905H8.46633C8.24422 6.92905 7.90452 7.00705 7.60402 7.33205C7.31658 7.65705 6.4804 8.43705 6.4804 10.023C6.4804 11.609 7.64322 13.143 7.8 13.351C7.95678 13.572 10.0864 16.822 13.3266 18.213C14.0975 18.551 14.6985 18.746 15.1688 18.889C15.9397 19.136 16.6452 19.097 17.207 19.019C17.8342 18.928 19.1276 18.239 19.3889 17.485C19.6633 16.731 19.6633 16.094 19.5719 15.951C19.4804 15.808 19.2844 15.743 18.9578 15.587Z"/>
</symbol></svg>