<svg width="25" height="24" viewBox="0 0 25 24" fill="none" xmlns="http://www.w3.org/2000/svg">
<rect x="0.5" width="24" height="24" rx="4" fill="#F1E90C"/>
<path d="M16.4807 8.73836L11.3122 13.9133L8.44864 11.0498L7.03612 12.4623L11.3122 16.7384L17.8997 10.1509L16.4807 8.73836ZM6.49679 6.99839C6.49679 6.44623 6.94623 5.99679 7.49839 5.99679H9.89968V4H7.49839C5.84189 4 4.5 5.34189 4.5 6.99839V9.39968H6.49679V6.99839ZM18.4968 6.99839V9.39968H20.4936V6.99839C20.4936 5.34189 19.1517 4 17.4952 4H15.1003V5.99679H17.5016C18.0474 5.99679 18.4968 6.44623 18.4968 6.99839ZM18.4968 14.6003V17.0016C18.4968 17.5538 18.0474 18.0032 17.4952 18.0032H15.1003V20H17.5016C19.1581 20 20.5 18.6581 20.5 17.0016V14.6003H18.4968ZM6.49679 17.0016V14.6003H4.5V17.0016C4.5 18.6581 5.84189 20 7.49839 20H9.89968V18.0032H7.49839C6.94623 17.9968 6.49679 17.5538 6.49679 17.0016Z" fill="#6D6C71"/>
</svg>
