<svg width="24" height="23" viewBox="0 0 24 23" fill="none" xmlns="http://www.w3.org/2000/svg">
<path d="M11.2338 0.475477C11.5466 -0.158494 12.4505 -0.158492 12.7633 0.475479L15.8104 6.65054C15.9346 6.90228 16.1747 7.07678 16.4525 7.11714L23.266 8.10736C23.9655 8.20903 24.2447 9.0688 23.7387 9.56228L18.8083 14.3689C18.6073 14.5648 18.5156 14.8472 18.5631 15.1239L19.7269 21.9108C19.8464 22.6077 19.1152 23.1391 18.4895 22.8101L12.3954 19.6057C12.147 19.4751 11.8501 19.4751 11.6017 19.6057L5.50754 22.8101C4.88188 23.1391 4.15064 22.6077 4.27013 21.9108L5.434 15.1239C5.48146 14.8472 5.38974 14.5648 5.18873 14.3689L0.258477 9.56228C-0.247694 9.0688 0.0316193 8.20903 0.731131 8.10736L7.54458 7.11714C7.82236 7.07678 8.06249 6.90228 8.18671 6.65054L11.2338 0.475477Z" fill="#0055FF"/>
</svg>
