<svg width="24" height="27" viewBox="0 0 24 27" fill="none" xmlns="http://www.w3.org/2000/svg">
<path d="M5.91605 1.82417C4.80988 2.34763 3.74321 2.8859 3.54568 3.01923C3.11111 3.30565 2.41481 3.98713 2.13333 4.40689C1.90123 4.74763 1.61481 5.30071 1.50123 5.6217C1.38765 5.94269 0 11.2266 0 11.3402C0 11.6168 0.0987654 11.6859 2.26667 12.9353L4.39506 14.16V18.6143C4.39506 21.1279 4.41975 23.2217 4.44444 23.4242C4.53333 24.1057 4.93827 24.7131 5.51605 25.0291C6.12346 25.355 7.92593 25.7995 9.62963 26.0365C10.5333 26.1649 13.4222 26.1649 14.3704 26.0365C15.8519 25.839 17.8272 25.3649 18.4296 25.0587C19.0321 24.7575 19.4617 24.1254 19.5556 23.4242C19.5802 23.2217 19.6049 21.1279 19.6049 18.6143V14.16L21.2198 13.2316C22.1136 12.7229 23.0716 12.1649 23.363 11.997C23.8716 11.6958 24 11.5624 24 11.3353C24 11.2266 22.6074 5.92294 22.5037 5.63158C22.3951 5.32047 22.084 4.72787 21.8617 4.39701C21.5951 3.99701 20.8938 3.31059 20.4593 3.01923C20.2617 2.89084 19.1901 2.35257 18.079 1.82417C16.5185 1.08343 16.0198 0.866148 15.8667 0.866148C15.763 0.866148 15.442 0.94516 15.1556 1.03899C13.1358 1.72541 10.7951 1.70565 8.65679 0.989603C8.45926 0.920467 8.21235 0.866148 8.10864 0.866148C7.97531 0.866148 7.40247 1.118 5.91605 1.82417ZM10.321 2.53034C10.7259 2.59948 11.0963 2.61923 12 2.6143C13.037 2.60936 13.2395 2.59454 13.8765 2.48096C14.2716 2.40689 14.721 2.318 14.879 2.27849C15.0321 2.23899 15.1605 2.21923 15.1605 2.23405C15.1605 2.24393 15.1012 2.40689 15.0321 2.58467C14.4444 4.06615 12.8691 4.92047 11.3333 4.59454C10.6123 4.44146 9.84198 3.95257 9.41235 3.37973C9.18519 3.07849 8.92346 2.58467 8.8642 2.34269L8.82963 2.20936L9.31852 2.32788C9.58519 2.39207 10.0346 2.48096 10.321 2.53034Z" fill="#0055FF"/>
</svg>
