<svg width="462" height="142" viewBox="0 0 462 142" fill="none" xmlns="http://www.w3.org/2000/svg">
<path d="M80.2519 141.359V101.233H0V61.1069H20.063V41.0439H40.1259V20.9809H60.1889V0.917969H120.378V81.1698H140.441V101.233H120.378V141.359H80.2519ZM40.1259 81.1698H80.2519V41.0439H60.1889V61.1069H40.1259V81.1698Z" fill="#0064F5"/>
<path d="M200.63 141.359V121.296H180.567V101.233H160.504V41.0439H180.567V20.9809H200.63V0.917969H260.819V20.9809H280.882V41.0439H300.944V101.233H280.882V121.296H260.819V141.359H200.63ZM220.693 121.296H260.819V41.0439H240.756V20.9809H200.63V101.233H220.693V121.296Z" fill="#0064F5"/>
<path d="M401.259 141.359V101.233H321.007V61.1069H341.07V41.0439H361.133V20.9809H381.196V0.917969H441.385V81.1698H461.448V101.233H441.385V141.359H401.259ZM361.133 81.1698H401.259V41.0439H381.196V61.1069H361.133V81.1698Z" fill="#0064F5"/>
</svg>
