<svg width="48" height="49" viewBox="0 0 48 49" fill="none" xmlns="http://www.w3.org/2000/svg">
<path d="M12.2389 2.35515C10.1375 3.34958 8.11111 4.37215 7.73586 4.62545C6.91029 5.16957 5.58751 6.46421 5.05277 7.26163C4.61184 7.90895 4.06772 8.95966 3.85195 9.56945C3.63618 10.1792 1 20.2174 1 20.4331C1 20.9585 1.18763 21.0898 5.30607 23.4633L9.34946 25.7899V34.252C9.34946 39.0271 9.39637 43.0048 9.44327 43.3895C9.61214 44.6841 10.3814 45.838 11.479 46.4384C12.633 47.0576 16.0572 47.9019 19.2938 48.3522C21.0106 48.5961 26.4987 48.5961 28.2999 48.3522C31.1143 47.977 34.8669 47.0763 36.0114 46.4947C37.156 45.9224 37.9721 44.7216 38.1504 43.3895C38.1973 43.0048 38.2442 39.0271 38.2442 34.252V25.7899L41.3119 24.0262C43.01 23.0599 44.83 21.9998 45.3835 21.6809C46.3498 21.1086 46.5937 20.8553 46.5937 20.4237C46.5937 20.2174 43.9481 10.1417 43.7511 9.58822C43.5447 8.99719 42.9537 7.87142 42.5315 7.24287C42.0249 6.48297 40.6928 5.17896 39.8672 4.62545C39.4919 4.38153 37.4562 3.35896 35.3454 2.35515C32.3808 0.947937 31.4333 0.535152 31.1425 0.535152C30.9455 0.535152 30.3357 0.685257 29.7916 0.863503C25.9546 2.16752 21.5078 2.12999 17.4456 0.769691C17.0704 0.638351 16.6013 0.535152 16.4043 0.535152C16.151 0.535152 15.0627 1.01361 12.2389 2.35515ZM20.6072 3.69669C21.3764 3.82803 22.08 3.86555 23.7968 3.85617C25.7669 3.84679 26.1516 3.81865 27.3618 3.60287C28.1123 3.46215 28.966 3.29329 29.2662 3.21824C29.557 3.14319 29.8009 3.10566 29.8009 3.1338C29.8009 3.15257 29.6884 3.46215 29.557 3.79988C28.4406 6.61431 25.448 8.23729 22.5303 7.61812C21.1607 7.3273 19.6972 6.39854 18.881 5.3103C18.4494 4.73803 17.9522 3.79988 17.8396 3.3402L17.774 3.0869L18.7027 3.31205C19.2093 3.43401 20.063 3.60287 20.6072 3.69669Z" fill="#909090"/>
</svg>
