<svg width="98" height="40" viewBox="0 0 98 40" fill="none" xmlns="http://www.w3.org/2000/svg">
<rect width="98" height="40" rx="8" fill="#F1E90C"/>
<path d="M49.1342 23.9511L51.6027 21.3371V19.2581H42.9876V21.8235H47.6901L45.5672 24.0849V26.176H46.9742C48.1838 26.176 48.8009 26.5529 48.8009 27.3189C48.8009 27.708 48.6282 28.0119 48.2949 28.2308C47.9493 28.4374 47.4926 28.5469 46.9125 28.5469C46.3448 28.5469 45.7647 28.4618 45.1846 28.2915C44.6045 28.1213 44.0737 27.8782 43.6047 27.5742L42.3828 30.0788C42.9876 30.4435 43.6911 30.7353 44.5181 30.9298C45.345 31.1244 46.172 31.2338 47.0113 31.2338C48.1591 31.2338 49.1219 31.0514 49.8994 30.6867C50.677 30.3219 51.2571 29.8478 51.6397 29.252C52.0224 28.6563 52.2075 28.0119 52.2075 27.3189C52.2075 26.4678 51.9483 25.7505 51.4176 25.1426C50.8868 24.5469 50.1216 24.1456 49.1342 23.9511ZM62.0569 23.6593H57.4654V19.246H54.0959V30.9906H57.4654V26.407H62.0569V30.9906H65.4264V19.246H62.0569V23.6593ZM88.3712 24.9238L92.9627 19.2581H88.939L84.7549 24.8143H84.6685V19.246H81.3113V30.9906H84.6685V25.4222L88.7168 30.9906H93.0861L88.3712 24.9238ZM76.3619 19.6836C75.4979 19.246 74.5105 19.0149 73.3873 19.0149C72.2642 19.0149 71.2768 19.2338 70.4128 19.6836C69.5612 20.1213 68.8947 20.7657 68.4256 21.6168C67.9566 22.4557 67.7221 23.477 67.7221 24.6563V30.9906H71.0423V28.3888H75.6954V30.9906H79.0649V24.6563C79.0649 23.477 78.8304 22.4557 78.3614 21.6168C77.88 20.7657 77.2135 20.1213 76.3619 19.6836ZM75.6954 25.8235H71.0423V24.3645C71.0423 23.5013 71.2521 22.8569 71.6717 22.4192C72.0914 21.9815 72.6591 21.7627 73.375 21.7627C74.0785 21.7627 74.6463 21.9815 75.0659 22.4192C75.4856 22.8569 75.6954 23.5013 75.6954 24.3645V25.8235ZM85.1992 9.41008H83.1627V15.4648H85.1992V9.41008ZM71.4496 13.2277H73.3627V15.4648H75.4362V9.41008H73.3627V11.5621H71.4496V9.41008H69.376V15.4648H71.4496V13.2277ZM90.7163 12.328V15.4648H92.7528V9.41008H90.8027L88.6798 12.559V9.41008H86.6433V15.4648H88.6057L90.7163 12.328ZM57.5518 15.1973C58.0702 15.4648 58.6627 15.5985 59.3045 15.5985C59.8969 15.5985 60.44 15.4891 60.909 15.2824C61.378 15.0757 61.7606 14.7718 62.0692 14.3827L60.7609 13.2277C60.3783 13.7019 59.9339 13.9329 59.4156 13.9329C58.9836 13.9329 58.638 13.7991 58.3664 13.5195C58.1072 13.2399 57.9715 12.8751 57.9715 12.4131C57.9715 11.9511 58.1072 11.5864 58.3664 11.3067C58.6256 11.0271 58.9836 10.8934 59.4156 10.8934C59.9339 10.8934 60.3783 11.1244 60.7609 11.5985L62.0692 10.4435C61.7606 10.0545 61.378 9.75051 60.909 9.54382C60.44 9.33714 59.9093 9.22771 59.3045 9.22771C58.6503 9.22771 58.0702 9.36145 57.5518 9.62893C57.0334 9.89641 56.6261 10.2733 56.3299 10.7596C56.0337 11.246 55.8856 11.7931 55.8856 12.401C55.8856 13.0089 56.0337 13.556 56.3299 14.0423C56.6261 14.5651 57.0334 14.9298 57.5518 15.1973ZM88.2231 8.69276C88.5193 8.93592 89.013 9.06966 89.6919 9.06966C90.3707 9.06966 90.8644 8.94808 91.173 8.69276C91.4816 8.4496 91.6297 8.0727 91.6297 7.57422H90.2473C90.2473 7.76875 90.2103 7.91464 90.1239 7.99975C90.0375 8.08486 89.9017 8.13349 89.6919 8.13349C89.4944 8.13349 89.3586 8.08486 89.2722 7.99975C89.1982 7.91464 89.1488 7.76875 89.1488 7.57422H87.7664C87.7788 8.0727 87.9269 8.43744 88.2231 8.69276ZM55.071 13.9329H51.9977V13.1305H54.602V11.6593H51.9977V10.9542H54.9599V9.41008H49.9612V15.4648H55.071V13.9329ZM68.4256 9.41008H62.7851V10.9906H64.5871V15.4648H66.6236V10.9906H68.4256V9.41008ZM82.5949 13.2642C82.5949 12.6077 82.3851 12.1092 81.9654 11.7687C81.5458 11.4283 80.9533 11.2581 80.1881 11.2581H78.9168V9.41008H76.8803V15.4648H79.9289C80.7559 15.4648 81.41 15.2824 81.879 14.8934C82.3604 14.5286 82.5949 13.9815 82.5949 13.2642ZM80.3115 13.8478C80.1758 13.9815 80.003 14.0423 79.7931 14.0423H78.9292V12.7049H79.7931C80.2745 12.7049 80.509 12.9116 80.509 13.3128C80.5214 13.5317 80.4473 13.714 80.3115 13.8478ZM45.3574 13.714C45.6906 13.714 46.0609 13.6532 46.4682 13.5317V15.4648H48.5171V9.41008H46.4805V11.9511C46.2584 12.0484 45.9745 12.0849 45.6289 12.0849C45.2957 12.0849 45.0488 11.9998 44.876 11.8174C44.7156 11.6472 44.6292 11.3675 44.6292 11.0028V9.41008H42.5926V11.2338C42.5926 12.0362 42.8271 12.6563 43.2962 13.0818C43.7775 13.4952 44.4564 13.714 45.3574 13.714Z" fill="#6D6C71"/>
<path d="M28.0427 13.8647L18.075 23.6956L12.5525 18.2557L9.82847 20.939L18.075 29.0623L30.7791 16.5481L28.0427 13.8647ZM8.78836 10.5593C8.78836 9.51037 9.65511 8.65657 10.72 8.65657H15.3509V4.86328H10.72C7.52538 4.86328 4.9375 7.41247 4.9375 10.5593V15.121H8.78836V10.5593ZM31.9307 10.5593V15.121H35.7815V10.5593C35.7815 7.41247 33.1937 4.86328 29.9991 4.86328H25.3805V8.65657H30.0114C31.0639 8.65657 31.9307 9.51037 31.9307 10.5593ZM31.9307 25.0007V29.5624C31.9307 30.6113 31.0639 31.4651 29.9991 31.4651H25.3805V35.2584H30.0114C33.206 35.2584 35.7939 32.7092 35.7939 29.5624V25.0007H31.9307ZM8.78836 29.5624V25.0007H4.9375V29.5624C4.9375 32.7092 7.52538 35.2584 10.72 35.2584H15.3509V31.4651H10.72C9.65511 31.4529 8.78836 30.6113 8.78836 29.5624Z" fill="#6D6C71"/>
</svg>
