<svg width="314" height="50" viewBox="0 0 314 50" fill="none" xmlns="http://www.w3.org/2000/svg">
<path d="M20.1268 23.1319H10.2826L8.91102 27.6121H0L10.6135 0.505144H20.1268L30.7403 27.6121H21.5918L20.1268 23.1319ZM18.2971 17.2815L15.2599 7.53268L12.1689 17.2815H18.2971Z" fill="black"/>
<path d="M26.7899 0.505144H35.9017L42.2704 20.0219L48.5288 0.505144H57.3832L46.8998 27.6121H37.4571L26.7899 0.505144Z" fill="black"/>
<path d="M60.3861 27.6125V0.505516H75.0238C77.108 0.437552 79.1923 0.660495 81.2086 1.17159C82.6113 1.60656 83.8217 2.47923 84.6503 3.65094C85.5581 4.94498 86.019 6.48096 85.9653 8.04143C85.9964 9.398 85.6486 10.7383 84.9614 11.9236C84.2883 13.0192 83.3353 13.9326 82.1956 14.5769C81.2454 15.0907 80.2132 15.4523 79.1414 15.6481C79.9445 15.8764 80.7081 16.2135 81.4094 16.6512C81.9241 17.0753 82.3907 17.5538 82.8008 18.073C83.2646 18.6222 83.6746 19.2094 84.0253 19.8292L88.2532 27.6832H78.2618L73.5956 19.3562C73.228 18.5623 72.6935 17.8501 72.0233 17.2656C71.3955 16.8442 70.646 16.624 69.8825 16.6322H69.1133V27.6125H60.3861ZM69.15 11.4859H72.8095C73.5561 11.4234 74.2998 11.301 75.0238 11.1162C75.5951 11.021 76.1041 10.7193 76.4519 10.2734C76.8111 9.82756 77.0062 9.27569 77.0006 8.71022C77.0232 8.33234 76.9553 7.95171 76.8026 7.60102C76.6527 7.25304 76.418 6.94041 76.121 6.6903C75.1539 6.11668 74.0142 5.86929 72.883 5.98619H69.0397L69.15 11.4859Z" fill="black"/>
<path d="M89.15 14.0847C89.0369 12.2034 89.3168 10.3194 89.9786 8.54686C90.6375 6.77163 91.6641 5.14051 92.9932 3.75403C94.4242 2.46814 96.1125 1.47582 97.9564 0.834238C99.8002 0.195371 101.76 -0.0791959 103.717 0.0295475C105.688 -0.0927888 107.668 0.16549 109.534 0.790765C111.401 1.41604 113.12 2.39472 114.585 3.66702C115.908 5.02903 116.927 6.63299 117.583 8.38648C118.236 10.1372 118.513 11.9995 118.391 13.8563C118.502 16.5477 117.931 19.2255 116.726 21.6559C115.643 23.6541 113.968 25.2988 111.913 26.3835C109.497 27.6042 106.794 28.2077 104.065 28.1397C101.347 28.2349 98.6436 27.7374 96.1578 26.6826C94.0226 25.6658 92.258 24.0564 91.09 22.061C89.7015 19.6197 89.0284 16.863 89.15 14.0847ZM97.8602 14.0847C97.6679 16.1698 98.2279 18.255 99.4524 19.9894C100.015 20.5494 100.688 20.9926 101.432 21.297C102.179 21.6015 102.979 21.7592 103.788 21.7592C104.599 21.7592 105.4 21.6015 106.146 21.297C106.89 20.9926 107.563 20.5494 108.126 19.9894C109.35 18.1054 109.891 15.8898 109.661 13.6823C109.837 11.6977 109.271 9.7186 108.072 8.0956C107.523 7.50567 106.848 7.04351 106.093 6.73903C105.335 6.43455 104.517 6.29862 103.697 6.33668C102.9 6.30406 102.105 6.4454 101.373 6.74988C100.64 7.05436 99.9897 7.51382 99.4693 8.0956C98.2165 9.84909 97.6481 11.9696 97.8602 14.0847Z" fill="black"/>
<path d="M123.205 27.6125V0.505516H137.842C139.929 0.437552 142.011 0.660495 144.027 1.17159C145.427 1.612 146.637 2.48195 147.469 3.65094C148.374 4.94498 148.829 6.48368 148.767 8.04143C148.804 9.398 148.464 10.7383 147.78 11.9236C147.081 13.03 146.097 13.9435 144.926 14.5769C143.973 15.088 142.941 15.4496 141.869 15.6481C142.67 15.8791 143.436 16.2162 144.138 16.6512C144.652 17.0753 145.119 17.5538 145.529 18.073C145.993 18.6222 146.403 19.2094 146.756 19.8292L150.981 27.6832H141.12L136.454 19.3562C136.083 18.5623 135.549 17.8501 134.879 17.2656C134.251 16.8442 133.504 16.624 132.738 16.6322H131.969V27.6125H123.205ZM131.969 11.4859H135.631C136.409 11.4288 137.181 11.3065 137.936 11.1162C138.504 11.021 139.016 10.7193 139.364 10.2734C139.723 9.82756 139.918 9.27569 139.912 8.71022C139.938 8.33234 139.879 7.95716 139.731 7.60646C139.587 7.25576 139.361 6.94313 139.07 6.6903C138.094 6.11668 136.949 5.86929 135.812 5.98619H131.969V11.4859Z" fill="black"/>
<path d="M172.703 23.1319H162.859L161.484 27.6121H152.519L163.133 0.505144H172.646L183.243 27.6121H174.094L172.703 23.1319ZM170.873 17.2815L167.762 7.53268L164.688 17.2815H170.873Z" fill="black"/>
<path d="M192.136 18.9004L195.665 18.6204C195.77 19.8057 196.171 20.953 196.839 21.9561C197.557 22.9022 198.541 23.6335 199.675 24.0658C201.049 24.6068 202.523 24.8759 204.01 24.8569C205.294 24.8786 206.572 24.6774 207.78 24.2588C208.753 23.9135 209.598 23.3018 210.215 22.5026C210.735 21.8338 211.018 21.0182 211.018 20.1836C211.038 19.3762 210.766 18.5878 210.249 17.9517C209.562 17.2176 208.685 16.6658 207.707 16.3531C206.052 15.8312 204.375 15.3935 202.676 15.0346C200.781 14.6486 198.94 14.0586 197.184 13.2784C195.965 12.7075 194.921 11.8321 194.166 10.7474C193.504 9.73881 193.162 8.5671 193.176 7.37636C193.176 6.00891 193.603 4.67409 194.404 3.54588C195.286 2.35514 196.533 1.45799 197.973 0.982239C199.604 0.343371 201.352 0.0225806 203.114 0.0334549C204.992 0.00898766 206.855 0.33795 208.603 0.998566C210.096 1.57762 211.372 2.57532 212.262 3.86121C213.133 5.13079 213.617 6.60972 213.654 8.13213L209.994 8.39583C209.958 7.65637 209.768 6.93052 209.434 6.26446C209.101 5.59841 208.631 5.00302 208.054 4.51096C206.621 3.54314 204.881 3.07827 203.134 3.19517C201.392 3.05652 199.655 3.47791 198.19 4.38863C197.71 4.71486 197.316 5.1444 197.048 5.64734C196.776 6.14756 196.635 6.70486 196.635 7.27033C196.624 7.72161 196.714 8.17017 196.904 8.58339C197.093 8.99662 197.379 9.36365 197.735 9.65997C199.454 10.6686 201.372 11.3265 203.371 11.5929C205.501 12.0007 207.588 12.5906 209.61 13.3491C211.072 13.9254 212.339 14.8796 213.269 16.1057C214.058 17.2448 214.465 18.5878 214.44 19.9553C214.443 21.4097 213.996 22.8342 213.159 24.0467C212.26 25.3516 210.99 26.382 209.499 27.0154C207.772 27.7467 205.899 28.1056 204.01 28.0702C201.816 28.1382 199.63 27.7739 197.588 26.9991C195.928 26.3439 194.511 25.2239 193.527 23.783C192.534 22.3313 191.994 20.6376 191.969 18.9004H192.136Z" fill="black"/>
<path d="M223.616 27.6121V3.71844H214.321V0.505056H236.682V3.71844H227.349V27.6121H223.616Z" fill="black"/>
<path d="M235.701 14.4175C235.48 10.568 236.832 6.78367 239.47 3.87751C240.72 2.60793 242.233 1.60748 243.916 0.944143C245.599 0.280808 247.409 -0.0291064 249.224 0.0307025C251.696 -0.0127949 254.131 0.596158 256.269 1.7869C258.342 2.96676 260.004 4.70939 261.045 6.79454C262.188 9.06456 262.765 11.563 262.728 14.0831C262.773 16.6413 262.185 19.1695 261.008 21.464C259.928 23.5465 258.211 25.2619 256.085 26.382C254.001 27.5265 251.645 28.13 249.241 28.1382C246.73 28.1789 244.258 27.5401 242.106 26.295C240.044 25.0906 238.393 23.3399 237.349 21.252C236.278 19.1451 235.726 16.8316 235.737 14.4882L235.701 14.4175ZM239.581 14.4882C239.417 17.3046 240.401 20.0694 242.327 22.2008C243.22 23.0979 244.292 23.8129 245.48 24.2995C246.67 24.7861 247.949 25.039 249.241 25.039C250.536 25.039 251.815 24.7861 253.002 24.2995C254.193 23.8129 255.268 23.0979 256.158 22.2008C258.098 19.9226 259.06 17.0192 258.848 14.0831C258.896 12.0985 258.497 10.1275 257.677 8.30337C256.97 6.72659 255.785 5.39175 254.275 4.47558C252.765 3.57301 251.02 3.10542 249.241 3.12173C247.98 3.09998 246.727 3.32019 245.553 3.76876C244.383 4.22004 243.316 4.88881 242.417 5.73973C240.488 7.48506 239.533 10.413 239.544 14.5235L239.581 14.4882Z" fill="black"/>
<path d="M265.423 27.612V0.505031H277.94C279.885 0.423473 281.831 0.673572 283.686 1.24176C285.007 1.73926 286.115 2.64998 286.834 3.82441C287.62 5.05049 288.041 6.46144 288.041 7.90229C288.084 9.70471 287.388 11.4528 286.101 12.7658C284.45 14.2393 282.329 15.1256 280.08 15.2805C280.892 15.6312 281.65 16.0853 282.331 16.6317C283.519 17.7055 284.563 18.9153 285.442 20.2338L290.346 27.612H285.643L281.984 21.9737C280.903 20.3561 279.99 19.1083 279.294 18.2492C278.78 17.5805 278.16 16.9878 277.465 16.493C276.941 16.1668 276.367 15.9221 275.765 15.7726C275.072 15.6775 274.373 15.6367 273.675 15.6476H269.357V27.612H265.423ZM269.173 12.4695H277.19C278.548 12.5239 279.902 12.3526 281.197 11.9584C282.097 11.673 282.872 11.1048 283.395 10.3436C283.893 9.61775 284.15 8.76952 284.144 7.90229C284.161 7.3042 284.042 6.71158 283.794 6.16242C283.542 5.61599 283.166 5.12936 282.696 4.73789C281.37 3.81085 279.741 3.37587 278.104 3.50908H269.173V12.4695Z" fill="black"/>
<path d="M292.12 27.6121V0.505056H312.541V3.71844H295.853V12.0128H311.48V15.1909H295.853V24.415H313.18V27.6121H292.12Z" fill="black"/>
<path d="M0 45.7076V35.2737H1.6459V36.7309C1.98243 36.2198 2.44904 35.7957 3.0005 35.5021C3.58589 35.1813 4.25048 35.0236 4.92072 35.0454C5.61358 35.0209 6.29795 35.184 6.89749 35.5184C7.40935 35.8283 7.79113 36.3014 7.97778 36.8532C8.33128 36.3095 8.82618 35.8637 9.41158 35.5565C9.9998 35.2465 10.6587 35.0888 11.3261 35.097C11.7786 35.0698 12.2339 35.1296 12.6609 35.2737C13.088 35.4178 13.4811 35.6462 13.8148 35.9398C14.4171 36.6711 14.7084 37.5927 14.6377 38.5224V45.7076H12.808V39.1205C12.8363 38.604 12.7741 38.0875 12.6242 37.5927C12.5111 37.3154 12.3046 37.0816 12.0388 36.9239C11.7136 36.7227 11.329 36.6194 10.9415 36.6248C10.6022 36.6248 10.2628 36.6901 9.94889 36.8179C9.63498 36.9456 9.34936 37.1305 9.11181 37.3643C8.55752 38.0195 8.28886 38.8568 8.36239 39.6996V45.7076H6.53268V38.9085C6.58076 38.2914 6.41954 37.6769 6.07453 37.1522C5.89919 36.9456 5.6758 36.7825 5.41845 36.6792C5.16393 36.5759 4.88677 36.5324 4.60963 36.5542C4.08362 36.5324 3.56045 36.6602 3.1108 36.9239C2.66114 37.1849 2.32461 37.59 2.15776 38.0657C1.91173 38.778 1.79861 39.5283 1.82972 40.2786V45.7076H0Z" fill="black"/>
<path d="M24.8317 42.3191L26.6615 42.5475C26.4211 43.5316 25.8329 44.407 24.9986 45.0241C24.0965 45.6358 23.0077 45.9457 21.9048 45.9022C21.2091 45.9348 20.5134 45.8261 19.8658 45.5841C19.2153 45.3394 18.6271 44.9724 18.1351 44.4967C17.1566 43.4092 16.6588 41.9983 16.7437 40.5629C16.6899 39.0622 17.2471 37.5996 18.2991 36.4877C18.7657 36.0093 19.3341 35.6314 19.9676 35.384C20.5982 35.1339 21.277 35.0197 21.9585 35.0469C22.6203 35.0224 23.2764 35.1339 23.8872 35.3786C24.4952 35.6205 25.0438 35.9875 25.4907 36.4524C26.4437 37.5697 26.9103 38.9997 26.7915 40.4406C26.7915 40.5439 26.7915 40.6852 26.7915 40.8973H18.7035C18.7035 41.8624 19.0598 42.7949 19.7102 43.5316C20.0015 43.8252 20.355 44.0563 20.7453 44.2113C21.1356 44.3635 21.5569 44.4396 21.9783 44.4287C22.6203 44.4776 23.2622 44.3118 23.791 43.9529C24.3199 43.5288 24.713 42.9688 24.9251 42.3354L24.8317 42.3191ZM18.8845 39.4918H24.942C24.9222 38.7822 24.679 38.0971 24.2463 37.5235C23.9777 37.1891 23.6299 36.9227 23.2311 36.7433C22.8352 36.5639 22.3997 36.4741 21.9585 36.4877C21.5654 36.4769 21.1723 36.5421 20.8047 36.6808C20.437 36.8194 20.1005 37.0287 19.8177 37.2951C19.2323 37.8824 18.893 38.6599 18.8675 39.4727L18.8845 39.4918Z" fill="black"/>
<path d="M29 45.705V35.2711H30.6487V36.9213C30.9259 36.3613 31.3246 35.8638 31.8195 35.4641C32.1617 35.2303 32.5718 35.108 32.9903 35.1135C33.6436 35.1352 34.2742 35.3282 34.82 35.6735L34.1809 37.3073C33.8076 37.079 33.3777 36.9458 32.9366 36.9213C32.5463 36.9268 32.1674 37.0491 31.8563 37.272C31.5226 37.5113 31.2822 37.8538 31.1776 38.2398C30.9655 38.9058 30.8608 39.5991 30.8665 40.2951V45.705H29Z" fill="black"/>
<path d="M43.9132 41.8596L45.7429 42.088C45.6184 43.1645 45.084 44.1595 44.244 44.8799C43.4098 45.5705 42.3408 45.932 41.2407 45.8994C40.579 45.9239 39.9172 45.8124 39.3007 45.5731C38.687 45.3339 38.1327 44.9724 37.6746 44.5129C36.6593 43.3847 36.1475 41.9221 36.2465 40.4378C36.2267 39.4237 36.4246 38.4205 36.8319 37.4853C37.1938 36.667 37.8415 35.9983 38.6616 35.5878C39.4506 35.1719 40.3414 34.9598 41.2407 34.9734C42.2729 34.9272 43.2853 35.2262 44.1139 35.8162C44.8945 36.4306 45.4092 37.3005 45.559 38.2574L43.7293 38.5211C43.6106 37.9149 43.2882 37.3603 42.8159 36.9416C42.3832 36.5855 41.8289 36.3979 41.2605 36.4142C40.8335 36.3979 40.4121 36.4741 40.0218 36.6399C39.6316 36.803 39.2866 37.0504 39.0094 37.363C38.3364 38.2493 38.0225 39.3422 38.1299 40.4378C38.0309 41.5143 38.3279 42.5909 38.9727 43.4744C39.2357 43.7843 39.5694 44.029 39.9455 44.1921C40.3244 44.358 40.7345 44.4368 41.1502 44.4232C41.8233 44.4449 42.4765 44.2193 42.9799 43.7925C43.5116 43.2624 43.834 42.5745 43.8962 41.8432L43.9132 41.8596Z" fill="black"/>
<path d="M48.0859 45.707V31.3203H49.9156V36.4666C50.3116 36.0126 50.8065 35.6483 51.3664 35.4009C51.9263 35.1562 52.5372 35.0339 53.1537 35.0448C53.8833 35.0258 54.6045 35.1753 55.2606 35.4825C55.8092 35.7652 56.2532 36.2084 56.5218 36.7466C56.8159 37.4942 56.946 38.2881 56.9064 39.0846V45.707H55.0767V39.0846C55.1418 38.3886 54.9268 37.6981 54.4715 37.1517C54.251 36.9451 53.9851 36.7847 53.6967 36.6814C53.4082 36.5781 53.0971 36.5373 52.7889 36.5536C52.2459 36.5427 51.7086 36.6705 51.2335 36.9233C50.7697 37.1707 50.4105 37.5594 50.2097 38.0298C49.9779 38.6442 49.8704 39.2939 49.8987 39.9464V45.707H48.0859Z" fill="black"/>
<path d="M62.3058 43.6523H60.2188V45.6559H62.3058V43.6523Z" fill="black"/>
<path d="M78.3185 45.707V44.3913C78.0074 44.8861 77.5634 45.2912 77.0317 45.563C76.5001 45.8349 75.9005 45.9653 75.2982 45.9354C74.4526 45.9409 73.624 45.7016 72.9198 45.2503C72.1789 44.78 71.5935 44.1167 71.2372 43.3364C70.8073 42.4257 70.6009 41.4362 70.632 40.4385C70.6178 39.4734 70.8045 38.5191 71.1806 37.6274C71.4888 36.8282 72.0545 36.1458 72.7926 35.6755C73.5109 35.2296 74.3508 34.9959 75.2077 35.0095C75.8411 34.9823 76.4718 35.1155 77.0374 35.3955C77.5295 35.6456 77.9536 35.999 78.2817 36.4313V31.3203H80.1114V45.707H78.3185ZM72.5182 40.4385C72.4306 41.5014 72.7417 42.5589 73.3949 43.4235C73.6381 43.7279 73.952 43.9753 74.3112 44.1466C74.6675 44.3178 75.0634 44.4076 75.4622 44.4076C75.8553 44.4131 76.2455 44.3315 76.599 44.1711C76.9554 44.008 77.2664 43.7714 77.5125 43.4778C78.1403 42.6432 78.4372 41.6211 78.3552 40.5962C78.4457 39.4843 78.1403 38.3751 77.4955 37.4507C77.2495 37.1381 76.9299 36.888 76.5651 36.7167C76.2003 36.5455 75.7959 36.4612 75.3887 36.4666C74.9956 36.4639 74.6053 36.5455 74.249 36.7113C73.8926 36.8744 73.5816 37.1163 73.3412 37.4154C72.719 38.3043 72.4277 39.3701 72.5182 40.4385Z" fill="black"/>
<path d="M90.3228 42.3159L92.1525 42.5443C91.8952 43.523 91.3098 44.393 90.4868 45.021C89.5847 45.6299 88.4987 45.9398 87.3958 45.8991C86.7001 45.9344 86.0044 45.8256 85.354 45.5837C84.7036 45.3417 84.1153 44.972 83.6261 44.4935C82.6787 43.3952 82.2177 41.9815 82.345 40.5597C82.2432 39.0754 82.7494 37.6128 83.7534 36.4846C84.22 36.0034 84.7884 35.6255 85.419 35.3781C86.0525 35.128 86.7312 35.0138 87.4128 35.0437C88.0774 35.0193 88.7363 35.1307 89.3499 35.3727C89.9608 35.6173 90.5123 35.9816 90.9647 36.4492C91.9149 37.5666 92.3872 38.9938 92.2826 40.4374V40.8941H84.1747C84.1747 41.8592 84.531 42.7917 85.1815 43.5285C85.4756 43.8193 85.8291 44.0504 86.2194 44.2054C86.6096 44.3576 87.0282 44.4337 87.4495 44.4228C88.0689 44.4473 88.6741 44.2679 89.1718 43.9145C89.7091 43.4958 90.105 42.9331 90.3058 42.2996L90.3228 42.3159ZM84.285 39.4532H90.3228C90.3115 38.7546 90.0824 38.0749 89.6639 37.5013C89.3952 37.1751 89.0502 36.9114 88.6571 36.7347C88.2612 36.558 87.8313 36.471 87.3958 36.4846C87.0027 36.4737 86.6125 36.539 86.2476 36.6776C85.8828 36.8162 85.552 37.0255 85.272 37.292C84.6809 37.8765 84.3416 38.654 84.3218 39.4696L84.285 39.4532Z" fill="black"/>
<path d="M93.7998 42.5639L95.6295 42.2811C95.6833 42.9037 95.983 43.4827 96.4723 43.8987C97.0379 44.2929 97.7308 44.4859 98.4293 44.4424C99.0797 44.4886 99.7273 44.3146 100.259 43.9503C100.451 43.8198 100.61 43.6459 100.717 43.442C100.825 43.2408 100.881 43.0178 100.881 42.7922C100.884 42.6019 100.833 42.417 100.737 42.2539C100.641 42.0908 100.499 41.9549 100.333 41.8597C99.7499 41.5906 99.1363 41.3894 98.5028 41.2617C97.5413 41.0578 96.5996 40.7832 95.6833 40.4379C95.194 40.2204 94.7811 39.8725 94.4955 39.4348C94.2325 39.0161 94.0939 38.5376 94.0911 38.0483C94.0883 37.5997 94.2014 37.1593 94.422 36.7651C94.6397 36.3709 94.9536 36.0338 95.3354 35.781C95.6833 35.5363 96.0736 35.3569 96.4893 35.2536C97.0068 35.1177 97.5441 35.0524 98.0814 35.0606C98.8422 35.0415 99.6 35.1612 100.313 35.4113C100.875 35.588 101.373 35.9169 101.741 36.36C102.08 36.8467 102.301 37.3985 102.383 37.9776L100.55 38.206C100.491 37.7166 100.234 37.2708 99.8376 36.9581C99.3512 36.6319 98.7658 36.4715 98.1719 36.5014C97.5328 36.4416 96.8908 36.583 96.3422 36.9065C96.181 37.0071 96.0453 37.1457 95.9491 37.3061C95.853 37.4692 95.802 37.6514 95.7936 37.8362C95.7907 38.0591 95.8699 38.2766 96.0142 38.4506C96.2036 38.6681 96.4497 38.8312 96.7268 38.9264C96.9106 38.9264 97.4423 39.1358 98.3388 39.3831C99.2635 39.6006 100.174 39.8698 101.065 40.1906C101.551 40.3836 101.97 40.7071 102.273 41.123C102.578 41.5689 102.731 42.099 102.711 42.6318C102.708 43.2218 102.521 43.7954 102.179 44.2847C101.797 44.8257 101.257 45.2498 100.624 45.4972C99.8998 45.7881 99.1221 45.9294 98.3388 45.9186C97.2047 45.9811 96.0849 45.6794 95.1544 45.0568C94.3683 44.4288 93.8649 43.5371 93.7461 42.5639H93.7998Z" fill="black"/>
<path d="M104.977 31.3203H106.806V33.4109H104.977V31.3203ZM104.977 35.2731H106.806V45.707H104.977V35.2731Z" fill="black"/>
<path d="M109.261 46.5336L111.093 46.7783C111.108 47.004 111.17 47.2214 111.277 47.4226C111.382 47.6211 111.532 47.7978 111.716 47.9392C112.256 48.2817 112.895 48.4529 113.545 48.4312C114.235 48.4665 114.917 48.2953 115.502 47.9392C115.972 47.6021 116.303 47.1154 116.436 46.569C116.568 45.8214 116.619 45.0602 116.583 44.3017C116.223 44.7339 115.765 45.0819 115.245 45.3211C114.725 45.5577 114.156 45.6773 113.582 45.6719C112.915 45.7018 112.253 45.574 111.651 45.3021C111.048 45.0302 110.522 44.6198 110.123 44.1087C109.295 43.0511 108.865 41.7598 108.896 40.4386C108.885 39.4952 109.077 38.5627 109.465 37.6982C109.795 36.9071 110.361 36.2275 111.093 35.7463C111.832 35.2869 112.7 35.0531 113.582 35.0803C114.193 35.0694 114.798 35.1972 115.347 35.4554C115.895 35.711 116.376 36.0888 116.747 36.5537V35.3086H118.449V44.2853C118.534 45.4788 118.353 46.6777 117.917 47.7978C117.57 48.4883 116.998 49.0483 116.288 49.3963C115.443 49.8231 114.498 50.027 113.545 49.9944C112.434 50.0406 111.337 49.747 110.415 49.1517C110.019 48.858 109.708 48.4747 109.507 48.0343C109.306 47.5966 109.221 47.1154 109.261 46.6397V46.5336ZM110.782 40.3842C110.695 41.4445 110.992 42.4993 111.622 43.3719C111.882 43.6683 112.208 43.9048 112.575 44.0679C112.943 44.231 113.342 44.3153 113.746 44.3153C114.15 44.3153 114.549 44.231 114.914 44.0679C115.282 43.9048 115.607 43.6683 115.867 43.3719C116.512 42.5237 116.817 41.4825 116.727 40.4386C116.809 39.4109 116.498 38.3942 115.85 37.5732C115.596 37.2714 115.27 37.0268 114.903 36.8582C114.535 36.6924 114.134 36.6054 113.726 36.6081C113.333 36.5891 112.94 36.6543 112.575 36.8011C112.211 36.9479 111.885 37.1681 111.622 37.4509C110.994 38.2664 110.689 39.2696 110.763 40.2782L110.782 40.3842Z" fill="black"/>
<path d="M121.207 45.707V35.2731H122.853V36.7493C123.218 36.1893 123.73 35.7326 124.338 35.4254C124.946 35.1182 125.624 34.9686 126.312 34.9904C126.939 34.9795 127.562 35.0909 128.141 35.3247C128.628 35.5042 129.052 35.8087 129.369 36.2029C129.646 36.5971 129.838 37.0374 129.934 37.5023C130.028 38.0841 130.064 38.674 130.045 39.2612V45.707H128.215V39.3836C128.24 38.8372 128.167 38.288 127.994 37.766C127.842 37.4153 127.578 37.1136 127.245 36.907C126.855 36.6922 126.413 36.5807 125.964 36.5889C125.217 36.578 124.493 36.8363 123.933 37.3093C123.602 37.679 123.353 38.1113 123.206 38.5762C123.059 39.041 123.014 39.5331 123.074 40.017V45.707H121.207Z" fill="black"/>
<path d="M135.428 43.6523H133.344V45.6559H135.428V43.6523Z" fill="black"/>
<path d="M144.43 49.6453V35.2748H146.095V36.6259C146.446 36.1393 146.901 35.7342 147.43 35.4325C147.996 35.1524 148.626 35.0192 149.26 35.0464C150.122 35.0247 150.974 35.2585 151.695 35.7125C152.419 36.1964 152.979 36.876 153.304 37.6644C154.048 39.4641 154.048 41.4677 153.304 43.2674C152.936 44.0667 152.334 44.7464 151.565 45.2167C150.852 45.6625 150.021 45.9018 149.169 45.9045C148.598 45.9099 148.033 45.7821 147.521 45.5347C147.06 45.3036 146.655 44.9801 146.333 44.5859V49.6453H144.43ZM146.095 40.5271C146.005 41.5819 146.305 42.6313 146.935 43.4958C147.184 43.7948 147.498 44.0368 147.854 44.2054C148.214 44.3712 148.607 44.4582 149.005 44.4582C149.401 44.4582 149.794 44.3712 150.154 44.2054C150.51 44.0368 150.827 43.7948 151.073 43.4958C151.7 42.5959 151.983 41.5167 151.876 40.4401C151.958 39.3771 151.652 38.3223 151.016 37.4524C150.779 37.1506 150.473 36.9059 150.12 36.7347C149.769 36.5634 149.382 36.4737 148.986 36.4682C148.581 36.4818 148.182 36.5824 147.823 36.7646C147.467 36.9467 147.156 37.2077 146.918 37.5231C146.259 38.412 145.94 39.4913 146.022 40.5787L146.095 40.5271Z" fill="black"/>
<path d="M156.016 45.7052V35.2713H157.662V36.9215C157.944 36.3642 158.343 35.8694 158.832 35.4643C159.18 35.2278 159.596 35.1055 160.023 35.1137C160.673 35.1354 161.307 35.3284 161.853 35.6737L161.211 37.3075C160.829 37.071 160.385 36.9378 159.93 36.9215C159.542 36.927 159.163 37.0493 158.852 37.275C158.516 37.5142 158.272 37.854 158.156 38.24C157.95 38.9061 157.851 39.5993 157.862 40.2953V45.7052H156.016Z" fill="black"/>
<path d="M163.004 31.3203H164.834V33.4109H163.004V31.3203ZM163.004 35.2731H164.834V45.707H163.004V35.2731Z" fill="black"/>
<path d="M167.633 45.7075V35.2736H169.282V36.7471C169.641 36.1898 170.147 35.7304 170.752 35.4232C171.357 35.1133 172.036 34.9664 172.72 34.9909C173.348 34.98 173.97 35.0915 174.55 35.3253C175.036 35.5047 175.461 35.8092 175.777 36.2034C176.055 36.5949 176.247 37.038 176.343 37.5029C176.436 38.0847 176.473 38.6719 176.453 39.2618V45.7075H174.624V39.3842C174.643 38.8377 174.576 38.294 174.423 37.7666C174.273 37.4077 174.001 37.1033 173.654 36.9075C173.266 36.69 172.822 36.5813 172.373 36.5894C171.632 36.5786 170.913 36.8368 170.359 37.3099C170.028 37.6796 169.782 38.1118 169.635 38.5767C169.485 39.0416 169.44 39.5337 169.499 40.0148V45.7075H167.633Z" fill="black"/>
<path d="M183.241 44.0933L183.515 45.6401C183.057 45.738 182.593 45.7897 182.124 45.7978C181.586 45.8277 181.052 45.7272 180.568 45.4988C180.232 45.3194 179.963 45.0421 179.799 44.7077C179.609 44.028 179.536 43.3212 179.581 42.6171V36.6444H178.227V35.2742H179.581V32.6915L181.411 31.6367V35.2742H183.241V36.6444H181.411V42.7231C181.385 43.0493 181.425 43.3756 181.521 43.6882C181.581 43.835 181.691 43.9601 181.832 44.0389C182.025 44.1259 182.24 44.1694 182.454 44.1639C182.655 44.1639 182.93 44.1639 183.258 44.1639L183.241 44.0933Z" fill="black"/>
</svg>
