<svg width="51" height="51" viewBox="0 0 51 51" fill="none" xmlns="http://www.w3.org/2000/svg">
<path d="M17.8508 22.9516C18.5271 22.9516 19.1757 22.6829 19.6539 22.2047C20.1321 21.7265 20.4008 21.0779 20.4008 20.4016C20.4008 19.7253 20.1321 19.0767 19.6539 18.5984C19.1757 18.1202 18.5271 17.8516 17.8508 17.8516C17.1745 17.8516 16.5259 18.1202 16.0477 18.5984C15.5694 19.0767 15.3008 19.7253 15.3008 20.4016C15.3008 21.0779 15.5694 21.7265 16.0477 22.2047C16.5259 22.6829 17.1745 22.9516 17.8508 22.9516ZM30.6008 38.2516C30.6008 36.899 30.0635 35.6018 29.107 34.6453C28.1506 33.6889 26.8534 33.1516 25.5008 33.1516C24.1482 33.1516 22.851 33.6889 21.8945 34.6453C20.9381 35.6018 20.4008 36.899 20.4008 38.2516H15.3008C15.3008 35.5464 16.3754 32.9519 18.2883 31.0391C20.2012 29.1262 22.7956 28.0516 25.5008 28.0516C28.206 28.0516 30.8004 29.1262 32.7133 31.0391C34.6261 32.9519 35.7008 35.5464 35.7008 38.2516H30.6008ZM35.7008 20.4016C35.7008 21.0779 35.4321 21.7265 34.9539 22.2047C34.4757 22.6829 33.8271 22.9516 33.1508 22.9516C32.4745 22.9516 31.8259 22.6829 31.3477 22.2047C30.8694 21.7265 30.6008 21.0779 30.6008 20.4016C30.6008 19.7253 30.8694 19.0767 31.3477 18.5984C31.8259 18.1202 32.4745 17.8516 33.1508 17.8516C33.8271 17.8516 34.4757 18.1202 34.9539 18.5984C35.4321 19.0767 35.7008 19.7253 35.7008 20.4016Z" fill="#0055FF"/>
<path fill-rule="evenodd" clip-rule="evenodd" d="M51 25.5C51 39.5836 39.5836 51 25.5 51C11.4164 51 0 39.5836 0 25.5C0 11.4164 11.4164 0 25.5 0C39.5836 0 51 11.4164 51 25.5ZM45.9 25.5C45.9 30.9104 43.7507 36.0992 39.925 39.925C36.0992 43.7507 30.9104 45.9 25.5 45.9C20.0896 45.9 14.9008 43.7507 11.075 39.925C7.24928 36.0992 5.1 30.9104 5.1 25.5C5.1 20.0896 7.24928 14.9008 11.075 11.075C14.9008 7.24928 20.0896 5.1 25.5 5.1C30.9104 5.1 36.0992 7.24928 39.925 11.075C43.7507 14.9008 45.9 20.0896 45.9 25.5Z" fill="#0055FF"/>
</svg>
